G04 #@! TF.GenerationSoftware,KiCad,Pcbnew,(5.1.6)-1*
G04 #@! TF.CreationDate,2020-07-16T00:26:14+02:00*
G04 #@! TF.ProjectId,Hauptplatine,48617570-7470-46c6-9174-696e652e6b69,0*
G04 #@! TF.SameCoordinates,Original*
G04 #@! TF.FileFunction,Soldermask,Bot*
G04 #@! TF.FilePolarity,Negative*
%FSLAX46Y46*%
G04 Gerber Fmt 4.6, Leading zero omitted, Abs format (unit mm)*
G04 Created by KiCad (PCBNEW (5.1.6)-1) date 2020-07-16 00:26:14*
%MOMM*%
%LPD*%
G01*
G04 APERTURE LIST*
%ADD10C,1.350000*%
%ADD11C,0.100000*%
G04 APERTURE END LIST*
D10*
X281750000Y-57250000D02*
X278750000Y-54250000D01*
D11*
G36*
X320000000Y-202000000D02*
G01*
X99978676Y-202000000D01*
X99989338Y-197500000D01*
X99989611Y-197500000D01*
X99990258Y-197498797D01*
X99994038Y-197493170D01*
X99997811Y-197484124D01*
X99999747Y-197474515D01*
X100000000Y-197469493D01*
X100000000Y-46049999D01*
X104000000Y-46049999D01*
X104000000Y-175805675D01*
X104000961Y-175815429D01*
X104003806Y-175824809D01*
X104008426Y-175833453D01*
X104014644Y-175841030D01*
X104022221Y-175847248D01*
X104030865Y-175851868D01*
X104040245Y-175854713D01*
X104049999Y-175855674D01*
X104059753Y-175854713D01*
X104069125Y-175851870D01*
X104272466Y-175767644D01*
X104272465Y-175767644D01*
X104272468Y-175767643D01*
X104562261Y-175710000D01*
X104857739Y-175710000D01*
X105147532Y-175767643D01*
X105147535Y-175767644D01*
X105147534Y-175767644D01*
X105420517Y-175880717D01*
X105666194Y-176044874D01*
X105875126Y-176253806D01*
X106039283Y-176499483D01*
X106132956Y-176725631D01*
X106152357Y-176772468D01*
X106210000Y-177062261D01*
X106210000Y-177357739D01*
X106152357Y-177647532D01*
X106152356Y-177647534D01*
X106039283Y-177920517D01*
X105875126Y-178166194D01*
X105666194Y-178375126D01*
X105420517Y-178539283D01*
X105239349Y-178614325D01*
X105147532Y-178652357D01*
X104857739Y-178710000D01*
X104562261Y-178710000D01*
X104272468Y-178652357D01*
X104240154Y-178638972D01*
X104069125Y-178568130D01*
X104059754Y-178565287D01*
X104049999Y-178564326D01*
X104040245Y-178565287D01*
X104030865Y-178568132D01*
X104022221Y-178572752D01*
X104014645Y-178578970D01*
X104008426Y-178586547D01*
X104003806Y-178595191D01*
X104000961Y-178604570D01*
X104000000Y-178614325D01*
X104000000Y-180885675D01*
X104000961Y-180895429D01*
X104003806Y-180904809D01*
X104008426Y-180913453D01*
X104014644Y-180921030D01*
X104022221Y-180927248D01*
X104030865Y-180931868D01*
X104040245Y-180934713D01*
X104049999Y-180935674D01*
X104059753Y-180934713D01*
X104069125Y-180931870D01*
X104272466Y-180847644D01*
X104272465Y-180847644D01*
X104272468Y-180847643D01*
X104562261Y-180790000D01*
X104857739Y-180790000D01*
X105147532Y-180847643D01*
X105147535Y-180847644D01*
X105147534Y-180847644D01*
X105420517Y-180960717D01*
X105666194Y-181124874D01*
X105875126Y-181333806D01*
X106039283Y-181579483D01*
X106132956Y-181805631D01*
X106152357Y-181852468D01*
X106210000Y-182142261D01*
X106210000Y-182437739D01*
X106152357Y-182727532D01*
X106152356Y-182727534D01*
X106039283Y-183000517D01*
X105875126Y-183246194D01*
X105666194Y-183455126D01*
X105420517Y-183619283D01*
X105239349Y-183694325D01*
X105147532Y-183732357D01*
X104857739Y-183790000D01*
X104562261Y-183790000D01*
X104272468Y-183732357D01*
X104240154Y-183718972D01*
X104069125Y-183648130D01*
X104059754Y-183645287D01*
X104049999Y-183644326D01*
X104040245Y-183645287D01*
X104030865Y-183648132D01*
X104022221Y-183652752D01*
X104014645Y-183658970D01*
X104008426Y-183666547D01*
X104003806Y-183675191D01*
X104000961Y-183684570D01*
X104000000Y-183694325D01*
X104000000Y-197450001D01*
X104000961Y-197459755D01*
X104003806Y-197469135D01*
X104008426Y-197477779D01*
X104014644Y-197485356D01*
X104022221Y-197491574D01*
X104030865Y-197496194D01*
X104040245Y-197499039D01*
X104049999Y-197500000D01*
X315950001Y-197500000D01*
X315959755Y-197499039D01*
X315969135Y-197496194D01*
X315977779Y-197491574D01*
X315985356Y-197485356D01*
X315991574Y-197477779D01*
X315996194Y-197469135D01*
X315999039Y-197459755D01*
X316000000Y-197450001D01*
X316000000Y-46049999D01*
X315999039Y-46040245D01*
X315996194Y-46030865D01*
X315991574Y-46022221D01*
X315985356Y-46014644D01*
X315977779Y-46008426D01*
X315969135Y-46003806D01*
X315959755Y-46000961D01*
X315950001Y-46000000D01*
X104049999Y-46000000D01*
X104040245Y-46000961D01*
X104030865Y-46003806D01*
X104022221Y-46008426D01*
X104014644Y-46014644D01*
X104008426Y-46022221D01*
X104003806Y-46030865D01*
X104000961Y-46040245D01*
X104000000Y-46049999D01*
X100000000Y-46049999D01*
X100000000Y-41500000D01*
X320000000Y-41500000D01*
X320000000Y-202000000D01*
G37*
G36*
X298820856Y-184442272D02*
G01*
X299021044Y-184525192D01*
X299021045Y-184525193D01*
X299201209Y-184645575D01*
X299354425Y-184798791D01*
X299354426Y-184798793D01*
X299474808Y-184978956D01*
X299557728Y-185179144D01*
X299600000Y-185391658D01*
X299600000Y-185608342D01*
X299557728Y-185820856D01*
X299474808Y-186021044D01*
X299474807Y-186021045D01*
X299354425Y-186201209D01*
X299201209Y-186354425D01*
X299110513Y-186415026D01*
X299021044Y-186474808D01*
X298820856Y-186557728D01*
X298608342Y-186600000D01*
X298391658Y-186600000D01*
X298179144Y-186557728D01*
X297978956Y-186474808D01*
X297889487Y-186415026D01*
X297798791Y-186354425D01*
X297645575Y-186201209D01*
X297525193Y-186021045D01*
X297525192Y-186021044D01*
X297442272Y-185820856D01*
X297400000Y-185608342D01*
X297400000Y-185391658D01*
X297442272Y-185179144D01*
X297525192Y-184978956D01*
X297645574Y-184798793D01*
X297645575Y-184798791D01*
X297798791Y-184645575D01*
X297978955Y-184525193D01*
X297978956Y-184525192D01*
X298179144Y-184442272D01*
X298391658Y-184400000D01*
X298608342Y-184400000D01*
X298820856Y-184442272D01*
G37*
G36*
X294600000Y-186600000D02*
G01*
X292400000Y-186600000D01*
X292400000Y-184400000D01*
X294600000Y-184400000D01*
X294600000Y-186600000D01*
G37*
G36*
X110227532Y-180847643D02*
G01*
X110227535Y-180847644D01*
X110227534Y-180847644D01*
X110500517Y-180960717D01*
X110746194Y-181124874D01*
X110955126Y-181333806D01*
X111119283Y-181579483D01*
X111212956Y-181805631D01*
X111232357Y-181852468D01*
X111290000Y-182142261D01*
X111290000Y-182437739D01*
X111232357Y-182727532D01*
X111232356Y-182727534D01*
X111119283Y-183000517D01*
X110955126Y-183246194D01*
X110746194Y-183455126D01*
X110500517Y-183619283D01*
X110319349Y-183694325D01*
X110227532Y-183732357D01*
X109937739Y-183790000D01*
X109642261Y-183790000D01*
X109352468Y-183732357D01*
X109260651Y-183694325D01*
X109079483Y-183619283D01*
X108833806Y-183455126D01*
X108624874Y-183246194D01*
X108460717Y-183000517D01*
X108347644Y-182727534D01*
X108347643Y-182727532D01*
X108290000Y-182437739D01*
X108290000Y-182142261D01*
X108347643Y-181852468D01*
X108367044Y-181805631D01*
X108460717Y-181579483D01*
X108624874Y-181333806D01*
X108833806Y-181124874D01*
X109079483Y-180960717D01*
X109352466Y-180847644D01*
X109352465Y-180847644D01*
X109352468Y-180847643D01*
X109642261Y-180790000D01*
X109937739Y-180790000D01*
X110227532Y-180847643D01*
G37*
G36*
X309500000Y-182300000D02*
G01*
X307500000Y-182300000D01*
X307500000Y-177700000D01*
X309500000Y-177700000D01*
X309500000Y-182300000D01*
G37*
G36*
X314496033Y-177914469D02*
G01*
X314684535Y-177971651D01*
X314858256Y-178064506D01*
X315010528Y-178189472D01*
X315135494Y-178341744D01*
X315228349Y-178515464D01*
X315285531Y-178703966D01*
X315300000Y-178850876D01*
X315300000Y-181149124D01*
X315285531Y-181296034D01*
X315228349Y-181484536D01*
X315135494Y-181658256D01*
X315010528Y-181810528D01*
X314858256Y-181935494D01*
X314684536Y-182028349D01*
X314496034Y-182085531D01*
X314300000Y-182104838D01*
X314103967Y-182085531D01*
X313915465Y-182028349D01*
X313741745Y-181935494D01*
X313589473Y-181810528D01*
X313464507Y-181658256D01*
X313371652Y-181484536D01*
X313314470Y-181296034D01*
X313300001Y-181149124D01*
X313300000Y-178850877D01*
X313314469Y-178703967D01*
X313371651Y-178515465D01*
X313464506Y-178341744D01*
X313589472Y-178189472D01*
X313741744Y-178064506D01*
X313915464Y-177971651D01*
X314103966Y-177914469D01*
X314300000Y-177895162D01*
X314496033Y-177914469D01*
G37*
G36*
X182281070Y-179613430D02*
G01*
X182281073Y-179613431D01*
X182281072Y-179613431D01*
X182456436Y-179686069D01*
X182614259Y-179791523D01*
X182748477Y-179925741D01*
X182853931Y-180083564D01*
X182878873Y-180143780D01*
X182926570Y-180258930D01*
X182963600Y-180445092D01*
X182963600Y-180634908D01*
X182926570Y-180821070D01*
X182926569Y-180821072D01*
X182853931Y-180996436D01*
X182748477Y-181154259D01*
X182614259Y-181288477D01*
X182456436Y-181393931D01*
X182311158Y-181454107D01*
X182281070Y-181466570D01*
X182094908Y-181503600D01*
X181905092Y-181503600D01*
X181718930Y-181466570D01*
X181688842Y-181454107D01*
X181543564Y-181393931D01*
X181385741Y-181288477D01*
X181251523Y-181154259D01*
X181146069Y-180996436D01*
X181073431Y-180821072D01*
X181073430Y-180821070D01*
X181036400Y-180634908D01*
X181036400Y-180445092D01*
X181073430Y-180258930D01*
X181121127Y-180143780D01*
X181146069Y-180083564D01*
X181251523Y-179925741D01*
X181385741Y-179791523D01*
X181543564Y-179686069D01*
X181718928Y-179613431D01*
X181718927Y-179613431D01*
X181718930Y-179613430D01*
X181905092Y-179576400D01*
X182094908Y-179576400D01*
X182281070Y-179613430D01*
G37*
G36*
X184821070Y-179613430D02*
G01*
X184821073Y-179613431D01*
X184821072Y-179613431D01*
X184996436Y-179686069D01*
X185154259Y-179791523D01*
X185288477Y-179925741D01*
X185393931Y-180083564D01*
X185418873Y-180143780D01*
X185466570Y-180258930D01*
X185503600Y-180445092D01*
X185503600Y-180634908D01*
X185466570Y-180821070D01*
X185466569Y-180821072D01*
X185393931Y-180996436D01*
X185288477Y-181154259D01*
X185154259Y-181288477D01*
X184996436Y-181393931D01*
X184851158Y-181454107D01*
X184821070Y-181466570D01*
X184634908Y-181503600D01*
X184445092Y-181503600D01*
X184258930Y-181466570D01*
X184228842Y-181454107D01*
X184083564Y-181393931D01*
X183925741Y-181288477D01*
X183791523Y-181154259D01*
X183686069Y-180996436D01*
X183613431Y-180821072D01*
X183613430Y-180821070D01*
X183576400Y-180634908D01*
X183576400Y-180445092D01*
X183613430Y-180258930D01*
X183661127Y-180143780D01*
X183686069Y-180083564D01*
X183791523Y-179925741D01*
X183925741Y-179791523D01*
X184083564Y-179686069D01*
X184258928Y-179613431D01*
X184258927Y-179613431D01*
X184258930Y-179613430D01*
X184445092Y-179576400D01*
X184634908Y-179576400D01*
X184821070Y-179613430D01*
G37*
G36*
X191650000Y-181400000D02*
G01*
X189850000Y-181400000D01*
X189850000Y-179600000D01*
X191650000Y-179600000D01*
X191650000Y-181400000D01*
G37*
G36*
X193454561Y-179623057D02*
G01*
X193512520Y-179634586D01*
X193676310Y-179702430D01*
X193823717Y-179800924D01*
X193949076Y-179926283D01*
X194047570Y-180073690D01*
X194115414Y-180237480D01*
X194120394Y-180262519D01*
X194150000Y-180411356D01*
X194150000Y-180588644D01*
X194140798Y-180634906D01*
X194115414Y-180762520D01*
X194047570Y-180926310D01*
X193949076Y-181073717D01*
X193823717Y-181199076D01*
X193676310Y-181297570D01*
X193512520Y-181365414D01*
X193454561Y-181376943D01*
X193338644Y-181400000D01*
X193161356Y-181400000D01*
X193045439Y-181376943D01*
X192987480Y-181365414D01*
X192823690Y-181297570D01*
X192676283Y-181199076D01*
X192550924Y-181073717D01*
X192452430Y-180926310D01*
X192384586Y-180762520D01*
X192359202Y-180634906D01*
X192350000Y-180588644D01*
X192350000Y-180411356D01*
X192379606Y-180262519D01*
X192384586Y-180237480D01*
X192452430Y-180073690D01*
X192550924Y-179926283D01*
X192676283Y-179800924D01*
X192823690Y-179702430D01*
X192987480Y-179634586D01*
X193045439Y-179623057D01*
X193161356Y-179600000D01*
X193338644Y-179600000D01*
X193454561Y-179623057D01*
G37*
G36*
X107643779Y-178451879D02*
G01*
X107854790Y-178539283D01*
X107889465Y-178553646D01*
X108110575Y-178701387D01*
X108298613Y-178889425D01*
X108446354Y-179110535D01*
X108446355Y-179110537D01*
X108548121Y-179356221D01*
X108600000Y-179617035D01*
X108600000Y-179882965D01*
X108548121Y-180143779D01*
X108446355Y-180389463D01*
X108446354Y-180389465D01*
X108298613Y-180610575D01*
X108110575Y-180798613D01*
X107889465Y-180946354D01*
X107889464Y-180946355D01*
X107889463Y-180946355D01*
X107643779Y-181048121D01*
X107382965Y-181100000D01*
X107117035Y-181100000D01*
X106856221Y-181048121D01*
X106610537Y-180946355D01*
X106610536Y-180946355D01*
X106610535Y-180946354D01*
X106389425Y-180798613D01*
X106201387Y-180610575D01*
X106053646Y-180389465D01*
X106053645Y-180389463D01*
X105951879Y-180143779D01*
X105900000Y-179882965D01*
X105900000Y-179617035D01*
X105951879Y-179356221D01*
X106053645Y-179110537D01*
X106053646Y-179110535D01*
X106201387Y-178889425D01*
X106389425Y-178701387D01*
X106610535Y-178553646D01*
X106645210Y-178539283D01*
X106856221Y-178451879D01*
X107117035Y-178400000D01*
X107382965Y-178400000D01*
X107643779Y-178451879D01*
G37*
G36*
X288150000Y-180900000D02*
G01*
X286350000Y-180900000D01*
X286350000Y-179100000D01*
X288150000Y-179100000D01*
X288150000Y-180900000D01*
G37*
G36*
X289954561Y-179123057D02*
G01*
X290012520Y-179134586D01*
X290176310Y-179202430D01*
X290323717Y-179300924D01*
X290449076Y-179426283D01*
X290449077Y-179426285D01*
X290547571Y-179573692D01*
X290615414Y-179737481D01*
X290644353Y-179882965D01*
X290650000Y-179911358D01*
X290650000Y-180088642D01*
X290615414Y-180262520D01*
X290547570Y-180426310D01*
X290449076Y-180573717D01*
X290323717Y-180699076D01*
X290176310Y-180797570D01*
X290012520Y-180865414D01*
X289954561Y-180876943D01*
X289838644Y-180900000D01*
X289661356Y-180900000D01*
X289545439Y-180876943D01*
X289487480Y-180865414D01*
X289323690Y-180797570D01*
X289176283Y-180699076D01*
X289050924Y-180573717D01*
X288952430Y-180426310D01*
X288884586Y-180262520D01*
X288850000Y-180088642D01*
X288850000Y-179911358D01*
X288855648Y-179882965D01*
X288884586Y-179737481D01*
X288952429Y-179573692D01*
X289050923Y-179426285D01*
X289050924Y-179426283D01*
X289176283Y-179300924D01*
X289323690Y-179202430D01*
X289487480Y-179134586D01*
X289545439Y-179123057D01*
X289661356Y-179100000D01*
X289838644Y-179100000D01*
X289954561Y-179123057D01*
G37*
G36*
X280650000Y-180900000D02*
G01*
X278850000Y-180900000D01*
X278850000Y-179100000D01*
X280650000Y-179100000D01*
X280650000Y-180900000D01*
G37*
G36*
X282454561Y-179123057D02*
G01*
X282512520Y-179134586D01*
X282676310Y-179202430D01*
X282823717Y-179300924D01*
X282949076Y-179426283D01*
X282949077Y-179426285D01*
X283047571Y-179573692D01*
X283115414Y-179737481D01*
X283144353Y-179882965D01*
X283150000Y-179911358D01*
X283150000Y-180088642D01*
X283115414Y-180262520D01*
X283047570Y-180426310D01*
X282949076Y-180573717D01*
X282823717Y-180699076D01*
X282676310Y-180797570D01*
X282512520Y-180865414D01*
X282454561Y-180876943D01*
X282338644Y-180900000D01*
X282161356Y-180900000D01*
X282045439Y-180876943D01*
X281987480Y-180865414D01*
X281823690Y-180797570D01*
X281676283Y-180699076D01*
X281550924Y-180573717D01*
X281452430Y-180426310D01*
X281384586Y-180262520D01*
X281350000Y-180088642D01*
X281350000Y-179911358D01*
X281355648Y-179882965D01*
X281384586Y-179737481D01*
X281452429Y-179573692D01*
X281550923Y-179426285D01*
X281550924Y-179426283D01*
X281676283Y-179300924D01*
X281823690Y-179202430D01*
X281987480Y-179134586D01*
X282045439Y-179123057D01*
X282161356Y-179100000D01*
X282338644Y-179100000D01*
X282454561Y-179123057D01*
G37*
G36*
X184821070Y-177073430D02*
G01*
X184821073Y-177073431D01*
X184821072Y-177073431D01*
X184996436Y-177146069D01*
X185154259Y-177251523D01*
X185288477Y-177385741D01*
X185393931Y-177543564D01*
X185454107Y-177688842D01*
X185466570Y-177718930D01*
X185503600Y-177905092D01*
X185503600Y-178094908D01*
X185466570Y-178281070D01*
X185466569Y-178281072D01*
X185393931Y-178456436D01*
X185288477Y-178614259D01*
X185154259Y-178748477D01*
X184996436Y-178853931D01*
X184851158Y-178914107D01*
X184821070Y-178926570D01*
X184634908Y-178963600D01*
X184445092Y-178963600D01*
X184258930Y-178926570D01*
X184228842Y-178914107D01*
X184083564Y-178853931D01*
X183925741Y-178748477D01*
X183791523Y-178614259D01*
X183686069Y-178456436D01*
X183613431Y-178281072D01*
X183613430Y-178281070D01*
X183576400Y-178094908D01*
X183576400Y-177905092D01*
X183613430Y-177718930D01*
X183625893Y-177688842D01*
X183686069Y-177543564D01*
X183791523Y-177385741D01*
X183925741Y-177251523D01*
X184083564Y-177146069D01*
X184258928Y-177073431D01*
X184258927Y-177073431D01*
X184258930Y-177073430D01*
X184445092Y-177036400D01*
X184634908Y-177036400D01*
X184821070Y-177073430D01*
G37*
G36*
X182281070Y-177073430D02*
G01*
X182281073Y-177073431D01*
X182281072Y-177073431D01*
X182456436Y-177146069D01*
X182614259Y-177251523D01*
X182748477Y-177385741D01*
X182853931Y-177543564D01*
X182914107Y-177688842D01*
X182926570Y-177718930D01*
X182963600Y-177905092D01*
X182963600Y-178094908D01*
X182926570Y-178281070D01*
X182926569Y-178281072D01*
X182853931Y-178456436D01*
X182748477Y-178614259D01*
X182614259Y-178748477D01*
X182456436Y-178853931D01*
X182311158Y-178914107D01*
X182281070Y-178926570D01*
X182094908Y-178963600D01*
X181905092Y-178963600D01*
X181718930Y-178926570D01*
X181688842Y-178914107D01*
X181543564Y-178853931D01*
X181385741Y-178748477D01*
X181251523Y-178614259D01*
X181146069Y-178456436D01*
X181073431Y-178281072D01*
X181073430Y-178281070D01*
X181036400Y-178094908D01*
X181036400Y-177905092D01*
X181073430Y-177718930D01*
X181085893Y-177688842D01*
X181146069Y-177543564D01*
X181251523Y-177385741D01*
X181385741Y-177251523D01*
X181543564Y-177146069D01*
X181718928Y-177073431D01*
X181718927Y-177073431D01*
X181718930Y-177073430D01*
X181905092Y-177036400D01*
X182094908Y-177036400D01*
X182281070Y-177073430D01*
G37*
G36*
X110227532Y-175767643D02*
G01*
X110227535Y-175767644D01*
X110227534Y-175767644D01*
X110500517Y-175880717D01*
X110746194Y-176044874D01*
X110955126Y-176253806D01*
X111119283Y-176499483D01*
X111212956Y-176725631D01*
X111232357Y-176772468D01*
X111290000Y-177062261D01*
X111290000Y-177357739D01*
X111232357Y-177647532D01*
X111232356Y-177647534D01*
X111119283Y-177920517D01*
X110955126Y-178166194D01*
X110746194Y-178375126D01*
X110500517Y-178539283D01*
X110319349Y-178614325D01*
X110227532Y-178652357D01*
X109937739Y-178710000D01*
X109642261Y-178710000D01*
X109352468Y-178652357D01*
X109260651Y-178614325D01*
X109079483Y-178539283D01*
X108833806Y-178375126D01*
X108624874Y-178166194D01*
X108460717Y-177920517D01*
X108347644Y-177647534D01*
X108347643Y-177647532D01*
X108290000Y-177357739D01*
X108290000Y-177062261D01*
X108347643Y-176772468D01*
X108367044Y-176725631D01*
X108460717Y-176499483D01*
X108624874Y-176253806D01*
X108833806Y-176044874D01*
X109079483Y-175880717D01*
X109352466Y-175767644D01*
X109352465Y-175767644D01*
X109352468Y-175767643D01*
X109642261Y-175710000D01*
X109937739Y-175710000D01*
X110227532Y-175767643D01*
G37*
G36*
X182963600Y-176423600D02*
G01*
X181036400Y-176423600D01*
X181036400Y-174496400D01*
X182963600Y-174496400D01*
X182963600Y-176423600D01*
G37*
G36*
X184821070Y-174533430D02*
G01*
X184821073Y-174533431D01*
X184821072Y-174533431D01*
X184996436Y-174606069D01*
X185154259Y-174711523D01*
X185288477Y-174845741D01*
X185393931Y-175003564D01*
X185454107Y-175148842D01*
X185466570Y-175178930D01*
X185503600Y-175365092D01*
X185503600Y-175554908D01*
X185466570Y-175741070D01*
X185466569Y-175741072D01*
X185393931Y-175916436D01*
X185288477Y-176074259D01*
X185154259Y-176208477D01*
X184996436Y-176313931D01*
X184851158Y-176374107D01*
X184821070Y-176386570D01*
X184634908Y-176423600D01*
X184445092Y-176423600D01*
X184258930Y-176386570D01*
X184228842Y-176374107D01*
X184083564Y-176313931D01*
X183925741Y-176208477D01*
X183791523Y-176074259D01*
X183686069Y-175916436D01*
X183613431Y-175741072D01*
X183613430Y-175741070D01*
X183576400Y-175554908D01*
X183576400Y-175365092D01*
X183613430Y-175178930D01*
X183625893Y-175148842D01*
X183686069Y-175003564D01*
X183791523Y-174845741D01*
X183925741Y-174711523D01*
X184083564Y-174606069D01*
X184258928Y-174533431D01*
X184258927Y-174533431D01*
X184258930Y-174533430D01*
X184445092Y-174496400D01*
X184634908Y-174496400D01*
X184821070Y-174533430D01*
G37*
G36*
X312796034Y-174214469D02*
G01*
X312984536Y-174271651D01*
X313158256Y-174364506D01*
X313310528Y-174489472D01*
X313435494Y-174641744D01*
X313528349Y-174815464D01*
X313585531Y-175003966D01*
X313604838Y-175200000D01*
X313585531Y-175396034D01*
X313528349Y-175584536D01*
X313435494Y-175758256D01*
X313310528Y-175910528D01*
X313158256Y-176035494D01*
X312984536Y-176128349D01*
X312796034Y-176185531D01*
X312649124Y-176200000D01*
X310350876Y-176200000D01*
X310203966Y-176185531D01*
X310015464Y-176128349D01*
X309841744Y-176035494D01*
X309689472Y-175910528D01*
X309564506Y-175758256D01*
X309471651Y-175584536D01*
X309414469Y-175396034D01*
X309395162Y-175200000D01*
X309414469Y-175003966D01*
X309471651Y-174815464D01*
X309564506Y-174641744D01*
X309689472Y-174489472D01*
X309841744Y-174364506D01*
X310015464Y-174271651D01*
X310203966Y-174214469D01*
X310350876Y-174200000D01*
X312649124Y-174200000D01*
X312796034Y-174214469D01*
G37*
G36*
X298820856Y-173442272D02*
G01*
X299021044Y-173525192D01*
X299021045Y-173525193D01*
X299201209Y-173645575D01*
X299354425Y-173798791D01*
X299354426Y-173798793D01*
X299474808Y-173978956D01*
X299557728Y-174179144D01*
X299600000Y-174391658D01*
X299600000Y-174608342D01*
X299557728Y-174820856D01*
X299474808Y-175021044D01*
X299474807Y-175021045D01*
X299354425Y-175201209D01*
X299201209Y-175354425D01*
X299138937Y-175396034D01*
X299021044Y-175474808D01*
X298820856Y-175557728D01*
X298608342Y-175600000D01*
X298391658Y-175600000D01*
X298179144Y-175557728D01*
X297978956Y-175474808D01*
X297861063Y-175396034D01*
X297798791Y-175354425D01*
X297645575Y-175201209D01*
X297525193Y-175021045D01*
X297525192Y-175021044D01*
X297442272Y-174820856D01*
X297400000Y-174608342D01*
X297400000Y-174391658D01*
X297442272Y-174179144D01*
X297525192Y-173978956D01*
X297645574Y-173798793D01*
X297645575Y-173798791D01*
X297798791Y-173645575D01*
X297978955Y-173525193D01*
X297978956Y-173525192D01*
X298179144Y-173442272D01*
X298391658Y-173400000D01*
X298608342Y-173400000D01*
X298820856Y-173442272D01*
G37*
G36*
X294600000Y-175600000D02*
G01*
X292400000Y-175600000D01*
X292400000Y-173400000D01*
X294600000Y-173400000D01*
X294600000Y-175600000D01*
G37*
G36*
X219650000Y-172400000D02*
G01*
X217850000Y-172400000D01*
X217850000Y-170600000D01*
X219650000Y-170600000D01*
X219650000Y-172400000D01*
G37*
G36*
X249054561Y-170623057D02*
G01*
X249112520Y-170634586D01*
X249276310Y-170702430D01*
X249423717Y-170800924D01*
X249549076Y-170926283D01*
X249647570Y-171073690D01*
X249715414Y-171237480D01*
X249750000Y-171411358D01*
X249750000Y-171588642D01*
X249715414Y-171762520D01*
X249647570Y-171926310D01*
X249549076Y-172073717D01*
X249423717Y-172199076D01*
X249276310Y-172297570D01*
X249112520Y-172365414D01*
X249054561Y-172376943D01*
X248938644Y-172400000D01*
X248761356Y-172400000D01*
X248645439Y-172376943D01*
X248587480Y-172365414D01*
X248423690Y-172297570D01*
X248276283Y-172199076D01*
X248150924Y-172073717D01*
X248052430Y-171926310D01*
X247984586Y-171762520D01*
X247950000Y-171588642D01*
X247950000Y-171411358D01*
X247984586Y-171237480D01*
X248052430Y-171073690D01*
X248150924Y-170926283D01*
X248276283Y-170800924D01*
X248423690Y-170702430D01*
X248587480Y-170634586D01*
X248645439Y-170623057D01*
X248761356Y-170600000D01*
X248938644Y-170600000D01*
X249054561Y-170623057D01*
G37*
G36*
X247750000Y-172400000D02*
G01*
X245950000Y-172400000D01*
X245950000Y-170600000D01*
X247750000Y-170600000D01*
X247750000Y-172400000D01*
G37*
G36*
X221454561Y-170623057D02*
G01*
X221512520Y-170634586D01*
X221676310Y-170702430D01*
X221823717Y-170800924D01*
X221949076Y-170926283D01*
X222047570Y-171073690D01*
X222115414Y-171237480D01*
X222150000Y-171411358D01*
X222150000Y-171588642D01*
X222115414Y-171762520D01*
X222047570Y-171926310D01*
X221949076Y-172073717D01*
X221823717Y-172199076D01*
X221676310Y-172297570D01*
X221512520Y-172365414D01*
X221454561Y-172376943D01*
X221338644Y-172400000D01*
X221161356Y-172400000D01*
X221045439Y-172376943D01*
X220987480Y-172365414D01*
X220823690Y-172297570D01*
X220676283Y-172199076D01*
X220550924Y-172073717D01*
X220452430Y-171926310D01*
X220384586Y-171762520D01*
X220350000Y-171588642D01*
X220350000Y-171411358D01*
X220384586Y-171237480D01*
X220452430Y-171073690D01*
X220550924Y-170926283D01*
X220676283Y-170800924D01*
X220823690Y-170702430D01*
X220987480Y-170634586D01*
X221045439Y-170623057D01*
X221161356Y-170600000D01*
X221338644Y-170600000D01*
X221454561Y-170623057D01*
G37*
G36*
X230954561Y-170623057D02*
G01*
X231012520Y-170634586D01*
X231176310Y-170702430D01*
X231323717Y-170800924D01*
X231449076Y-170926283D01*
X231547570Y-171073690D01*
X231615414Y-171237480D01*
X231650000Y-171411358D01*
X231650000Y-171588642D01*
X231615414Y-171762520D01*
X231547570Y-171926310D01*
X231449076Y-172073717D01*
X231323717Y-172199076D01*
X231176310Y-172297570D01*
X231012520Y-172365414D01*
X230954561Y-172376943D01*
X230838644Y-172400000D01*
X230661356Y-172400000D01*
X230545439Y-172376943D01*
X230487480Y-172365414D01*
X230323690Y-172297570D01*
X230176283Y-172199076D01*
X230050924Y-172073717D01*
X229952430Y-171926310D01*
X229884586Y-171762520D01*
X229850000Y-171588642D01*
X229850000Y-171411358D01*
X229884586Y-171237480D01*
X229952430Y-171073690D01*
X230050924Y-170926283D01*
X230176283Y-170800924D01*
X230323690Y-170702430D01*
X230487480Y-170634586D01*
X230545439Y-170623057D01*
X230661356Y-170600000D01*
X230838644Y-170600000D01*
X230954561Y-170623057D01*
G37*
G36*
X229650000Y-172400000D02*
G01*
X227850000Y-172400000D01*
X227850000Y-170600000D01*
X229650000Y-170600000D01*
X229650000Y-172400000D01*
G37*
G36*
X210150000Y-172400000D02*
G01*
X208350000Y-172400000D01*
X208350000Y-170600000D01*
X210150000Y-170600000D01*
X210150000Y-172400000D01*
G37*
G36*
X211454561Y-170623057D02*
G01*
X211512520Y-170634586D01*
X211676310Y-170702430D01*
X211823717Y-170800924D01*
X211949076Y-170926283D01*
X212047570Y-171073690D01*
X212115414Y-171237480D01*
X212150000Y-171411358D01*
X212150000Y-171588642D01*
X212115414Y-171762520D01*
X212047570Y-171926310D01*
X211949076Y-172073717D01*
X211823717Y-172199076D01*
X211676310Y-172297570D01*
X211512520Y-172365414D01*
X211454561Y-172376943D01*
X211338644Y-172400000D01*
X211161356Y-172400000D01*
X211045439Y-172376943D01*
X210987480Y-172365414D01*
X210823690Y-172297570D01*
X210676283Y-172199076D01*
X210550924Y-172073717D01*
X210452430Y-171926310D01*
X210384586Y-171762520D01*
X210350000Y-171588642D01*
X210350000Y-171411358D01*
X210384586Y-171237480D01*
X210452430Y-171073690D01*
X210550924Y-170926283D01*
X210676283Y-170800924D01*
X210823690Y-170702430D01*
X210987480Y-170634586D01*
X211045439Y-170623057D01*
X211161356Y-170600000D01*
X211338644Y-170600000D01*
X211454561Y-170623057D01*
G37*
G36*
X183527103Y-165586507D02*
G01*
X183527106Y-165586508D01*
X183527105Y-165586508D01*
X183699994Y-165658121D01*
X183855590Y-165762087D01*
X183987913Y-165894410D01*
X184009228Y-165926310D01*
X184091880Y-166050008D01*
X184163493Y-166222897D01*
X184200000Y-166406432D01*
X184200000Y-166593568D01*
X184163493Y-166777103D01*
X184163492Y-166777105D01*
X184091879Y-166949994D01*
X183987913Y-167105590D01*
X183855590Y-167237913D01*
X183699994Y-167341879D01*
X183699993Y-167341880D01*
X183699992Y-167341880D01*
X183527103Y-167413493D01*
X183343568Y-167450000D01*
X183156432Y-167450000D01*
X182972897Y-167413493D01*
X182800008Y-167341880D01*
X182800007Y-167341880D01*
X182800006Y-167341879D01*
X182644410Y-167237913D01*
X182512087Y-167105590D01*
X182408121Y-166949994D01*
X182336508Y-166777105D01*
X182336507Y-166777103D01*
X182300000Y-166593568D01*
X182300000Y-166406432D01*
X182336507Y-166222897D01*
X182408120Y-166050008D01*
X182490772Y-165926310D01*
X182512087Y-165894410D01*
X182644410Y-165762087D01*
X182800006Y-165658121D01*
X182972895Y-165586508D01*
X182972894Y-165586508D01*
X182972897Y-165586507D01*
X183156432Y-165550000D01*
X183343568Y-165550000D01*
X183527103Y-165586507D01*
G37*
G36*
X186067103Y-165586507D02*
G01*
X186067106Y-165586508D01*
X186067105Y-165586508D01*
X186239994Y-165658121D01*
X186395590Y-165762087D01*
X186527913Y-165894410D01*
X186549228Y-165926310D01*
X186631880Y-166050008D01*
X186703493Y-166222897D01*
X186740000Y-166406432D01*
X186740000Y-166593568D01*
X186703493Y-166777103D01*
X186703492Y-166777105D01*
X186631879Y-166949994D01*
X186527913Y-167105590D01*
X186395590Y-167237913D01*
X186239994Y-167341879D01*
X186239993Y-167341880D01*
X186239992Y-167341880D01*
X186067103Y-167413493D01*
X185883568Y-167450000D01*
X185696432Y-167450000D01*
X185512897Y-167413493D01*
X185340008Y-167341880D01*
X185340007Y-167341880D01*
X185340006Y-167341879D01*
X185184410Y-167237913D01*
X185052087Y-167105590D01*
X184948121Y-166949994D01*
X184876508Y-166777105D01*
X184876507Y-166777103D01*
X184840000Y-166593568D01*
X184840000Y-166406432D01*
X184876507Y-166222897D01*
X184948120Y-166050008D01*
X185030772Y-165926310D01*
X185052087Y-165894410D01*
X185184410Y-165762087D01*
X185340006Y-165658121D01*
X185512895Y-165586508D01*
X185512894Y-165586508D01*
X185512897Y-165586507D01*
X185696432Y-165550000D01*
X185883568Y-165550000D01*
X186067103Y-165586507D01*
G37*
G36*
X181660000Y-167450000D02*
G01*
X179760000Y-167450000D01*
X179760000Y-165550000D01*
X181660000Y-165550000D01*
X181660000Y-167450000D01*
G37*
G36*
X248954561Y-164623057D02*
G01*
X249012520Y-164634586D01*
X249176310Y-164702430D01*
X249323717Y-164800924D01*
X249449076Y-164926283D01*
X249547570Y-165073690D01*
X249615414Y-165237480D01*
X249650000Y-165411358D01*
X249650000Y-165588642D01*
X249615414Y-165762520D01*
X249547570Y-165926310D01*
X249449076Y-166073717D01*
X249323717Y-166199076D01*
X249176310Y-166297570D01*
X249012520Y-166365414D01*
X248954561Y-166376943D01*
X248838644Y-166400000D01*
X248661356Y-166400000D01*
X248545439Y-166376943D01*
X248487480Y-166365414D01*
X248323690Y-166297570D01*
X248176283Y-166199076D01*
X248050924Y-166073717D01*
X247952430Y-165926310D01*
X247884586Y-165762520D01*
X247850000Y-165588642D01*
X247850000Y-165411358D01*
X247884586Y-165237480D01*
X247952430Y-165073690D01*
X248050924Y-164926283D01*
X248176283Y-164800924D01*
X248323690Y-164702430D01*
X248487480Y-164634586D01*
X248545439Y-164623057D01*
X248661356Y-164600000D01*
X248838644Y-164600000D01*
X248954561Y-164623057D01*
G37*
G36*
X247650000Y-166400000D02*
G01*
X245850000Y-166400000D01*
X245850000Y-164600000D01*
X247650000Y-164600000D01*
X247650000Y-166400000D01*
G37*
G36*
X107250000Y-165290000D02*
G01*
X105250000Y-165290000D01*
X105250000Y-163290000D01*
X107250000Y-163290000D01*
X107250000Y-165290000D01*
G37*
G36*
X106445090Y-160769215D02*
G01*
X106541689Y-160788429D01*
X106723678Y-160863811D01*
X106887463Y-160973249D01*
X107026751Y-161112537D01*
X107136189Y-161276322D01*
X107211571Y-161458311D01*
X107250000Y-161651509D01*
X107250000Y-161848491D01*
X107211571Y-162041689D01*
X107136189Y-162223678D01*
X107026751Y-162387463D01*
X106887463Y-162526751D01*
X106723678Y-162636189D01*
X106541689Y-162711571D01*
X106445090Y-162730785D01*
X106348493Y-162750000D01*
X106151507Y-162750000D01*
X106054910Y-162730785D01*
X105958311Y-162711571D01*
X105776322Y-162636189D01*
X105612537Y-162526751D01*
X105473249Y-162387463D01*
X105363811Y-162223678D01*
X105288429Y-162041689D01*
X105250000Y-161848491D01*
X105250000Y-161651509D01*
X105288429Y-161458311D01*
X105363811Y-161276322D01*
X105473249Y-161112537D01*
X105612537Y-160973249D01*
X105776322Y-160863811D01*
X105958311Y-160788429D01*
X106054910Y-160769215D01*
X106151507Y-160750000D01*
X106348493Y-160750000D01*
X106445090Y-160769215D01*
G37*
G36*
X106445090Y-158229214D02*
G01*
X106541689Y-158248429D01*
X106723678Y-158323811D01*
X106887463Y-158433249D01*
X107026751Y-158572537D01*
X107136189Y-158736322D01*
X107211571Y-158918311D01*
X107250000Y-159111509D01*
X107250000Y-159308491D01*
X107211571Y-159501689D01*
X107136189Y-159683678D01*
X107026751Y-159847463D01*
X106887463Y-159986751D01*
X106723678Y-160096189D01*
X106541689Y-160171571D01*
X106445090Y-160190786D01*
X106348493Y-160210000D01*
X106151507Y-160210000D01*
X106054910Y-160190786D01*
X105958311Y-160171571D01*
X105776322Y-160096189D01*
X105612537Y-159986751D01*
X105473249Y-159847463D01*
X105363811Y-159683678D01*
X105288429Y-159501689D01*
X105250000Y-159308491D01*
X105250000Y-159111509D01*
X105288429Y-158918311D01*
X105363811Y-158736322D01*
X105473249Y-158572537D01*
X105612537Y-158433249D01*
X105776322Y-158323811D01*
X105958311Y-158248429D01*
X106054910Y-158229214D01*
X106151507Y-158210000D01*
X106348493Y-158210000D01*
X106445090Y-158229214D01*
G37*
G36*
X312176701Y-157031486D02*
G01*
X312176704Y-157031487D01*
X312176703Y-157031487D01*
X312467884Y-157152098D01*
X312729941Y-157327199D01*
X312952801Y-157550059D01*
X313127902Y-157812116D01*
X313127902Y-157812117D01*
X313248514Y-158103299D01*
X313310000Y-158412412D01*
X313310000Y-158727588D01*
X313248514Y-159036701D01*
X313248513Y-159036703D01*
X313127902Y-159327884D01*
X312952801Y-159589941D01*
X312729941Y-159812801D01*
X312467884Y-159987902D01*
X312261987Y-160073187D01*
X312176701Y-160108514D01*
X311867588Y-160170000D01*
X311552412Y-160170000D01*
X311243299Y-160108514D01*
X311158013Y-160073187D01*
X310952116Y-159987902D01*
X310690059Y-159812801D01*
X310467199Y-159589941D01*
X310292098Y-159327884D01*
X310171487Y-159036703D01*
X310171486Y-159036701D01*
X310110000Y-158727588D01*
X310110000Y-158412412D01*
X310171486Y-158103299D01*
X310292098Y-157812117D01*
X310292098Y-157812116D01*
X310467199Y-157550059D01*
X310690059Y-157327199D01*
X310952116Y-157152098D01*
X311243297Y-157031487D01*
X311243296Y-157031487D01*
X311243299Y-157031486D01*
X311552412Y-156970000D01*
X311867588Y-156970000D01*
X312176701Y-157031486D01*
G37*
G36*
X309900000Y-156400000D02*
G01*
X308100000Y-156400000D01*
X308100000Y-154600000D01*
X309900000Y-154600000D01*
X309900000Y-156400000D01*
G37*
G36*
X309204561Y-152123057D02*
G01*
X309262520Y-152134586D01*
X309426310Y-152202430D01*
X309573717Y-152300924D01*
X309699076Y-152426283D01*
X309797570Y-152573690D01*
X309865414Y-152737480D01*
X309900000Y-152911358D01*
X309900000Y-153088642D01*
X309865414Y-153262520D01*
X309797570Y-153426310D01*
X309699076Y-153573717D01*
X309573717Y-153699076D01*
X309426310Y-153797570D01*
X309262520Y-153865414D01*
X309204561Y-153876943D01*
X309088644Y-153900000D01*
X308911356Y-153900000D01*
X308795439Y-153876943D01*
X308737480Y-153865414D01*
X308573690Y-153797570D01*
X308426283Y-153699076D01*
X308300924Y-153573717D01*
X308202430Y-153426310D01*
X308134586Y-153262520D01*
X308100000Y-153088642D01*
X308100000Y-152911358D01*
X308134586Y-152737480D01*
X308202430Y-152573690D01*
X308300924Y-152426283D01*
X308426283Y-152300924D01*
X308573690Y-152202430D01*
X308737480Y-152134586D01*
X308795439Y-152123057D01*
X308911356Y-152100000D01*
X309088644Y-152100000D01*
X309204561Y-152123057D01*
G37*
G36*
X309204561Y-150123057D02*
G01*
X309262520Y-150134586D01*
X309426310Y-150202430D01*
X309573717Y-150300924D01*
X309699076Y-150426283D01*
X309797570Y-150573690D01*
X309865414Y-150737480D01*
X309900000Y-150911358D01*
X309900000Y-151088642D01*
X309865414Y-151262520D01*
X309797570Y-151426310D01*
X309699076Y-151573717D01*
X309573717Y-151699076D01*
X309426310Y-151797570D01*
X309262520Y-151865414D01*
X309204561Y-151876943D01*
X309088644Y-151900000D01*
X308911356Y-151900000D01*
X308795439Y-151876943D01*
X308737480Y-151865414D01*
X308573690Y-151797570D01*
X308426283Y-151699076D01*
X308300924Y-151573717D01*
X308202430Y-151426310D01*
X308134586Y-151262520D01*
X308100000Y-151088642D01*
X308100000Y-150911358D01*
X308134586Y-150737480D01*
X308202430Y-150573690D01*
X308300924Y-150426283D01*
X308426283Y-150300924D01*
X308573690Y-150202430D01*
X308737480Y-150134586D01*
X308795439Y-150123057D01*
X308911356Y-150100000D01*
X309088644Y-150100000D01*
X309204561Y-150123057D01*
G37*
G36*
X309204561Y-147623057D02*
G01*
X309262520Y-147634586D01*
X309426310Y-147702430D01*
X309573717Y-147800924D01*
X309699076Y-147926283D01*
X309797570Y-148073690D01*
X309865414Y-148237480D01*
X309900000Y-148411358D01*
X309900000Y-148588642D01*
X309865414Y-148762520D01*
X309797570Y-148926310D01*
X309699076Y-149073717D01*
X309573717Y-149199076D01*
X309426310Y-149297570D01*
X309262520Y-149365414D01*
X309204561Y-149376943D01*
X309088644Y-149400000D01*
X308911356Y-149400000D01*
X308795439Y-149376943D01*
X308737480Y-149365414D01*
X308573690Y-149297570D01*
X308426283Y-149199076D01*
X308300924Y-149073717D01*
X308202430Y-148926310D01*
X308134586Y-148762520D01*
X308100000Y-148588642D01*
X308100000Y-148411358D01*
X308134586Y-148237480D01*
X308202430Y-148073690D01*
X308300924Y-147926283D01*
X308426283Y-147800924D01*
X308573690Y-147702430D01*
X308737480Y-147634586D01*
X308795439Y-147623057D01*
X308911356Y-147600000D01*
X309088644Y-147600000D01*
X309204561Y-147623057D01*
G37*
G36*
X312176701Y-143891486D02*
G01*
X312176704Y-143891487D01*
X312176703Y-143891487D01*
X312467884Y-144012098D01*
X312729941Y-144187199D01*
X312952801Y-144410059D01*
X313127902Y-144672116D01*
X313127902Y-144672117D01*
X313248514Y-144963299D01*
X313310000Y-145272412D01*
X313310000Y-145587588D01*
X313248514Y-145896701D01*
X313248513Y-145896703D01*
X313127902Y-146187884D01*
X312952801Y-146449941D01*
X312729941Y-146672801D01*
X312467884Y-146847902D01*
X312261987Y-146933187D01*
X312176701Y-146968514D01*
X311867588Y-147030000D01*
X311552412Y-147030000D01*
X311243299Y-146968514D01*
X311158013Y-146933187D01*
X310952116Y-146847902D01*
X310690059Y-146672801D01*
X310467199Y-146449941D01*
X310292098Y-146187884D01*
X310171487Y-145896703D01*
X310171486Y-145896701D01*
X310110000Y-145587588D01*
X310110000Y-145272412D01*
X310171486Y-144963299D01*
X310292098Y-144672117D01*
X310292098Y-144672116D01*
X310467199Y-144410059D01*
X310690059Y-144187199D01*
X310952116Y-144012098D01*
X311243297Y-143891487D01*
X311243296Y-143891487D01*
X311243299Y-143891486D01*
X311552412Y-143830000D01*
X311867588Y-143830000D01*
X312176701Y-143891486D01*
G37*
G36*
X148454561Y-127123057D02*
G01*
X148512520Y-127134586D01*
X148676310Y-127202430D01*
X148823717Y-127300924D01*
X148949076Y-127426283D01*
X149047570Y-127573690D01*
X149115414Y-127737480D01*
X149150000Y-127911358D01*
X149150000Y-128088642D01*
X149115414Y-128262520D01*
X149047570Y-128426310D01*
X148949076Y-128573717D01*
X148823717Y-128699076D01*
X148676310Y-128797570D01*
X148512520Y-128865414D01*
X148454561Y-128876943D01*
X148338644Y-128900000D01*
X148161356Y-128900000D01*
X148045439Y-128876943D01*
X147987480Y-128865414D01*
X147823690Y-128797570D01*
X147676283Y-128699076D01*
X147550924Y-128573717D01*
X147452430Y-128426310D01*
X147384586Y-128262520D01*
X147350000Y-128088642D01*
X147350000Y-127911358D01*
X147384586Y-127737480D01*
X147452430Y-127573690D01*
X147550924Y-127426283D01*
X147676283Y-127300924D01*
X147823690Y-127202430D01*
X147987480Y-127134586D01*
X148045439Y-127123057D01*
X148161356Y-127100000D01*
X148338644Y-127100000D01*
X148454561Y-127123057D01*
G37*
G36*
X147150000Y-128900000D02*
G01*
X145350000Y-128900000D01*
X145350000Y-127100000D01*
X147150000Y-127100000D01*
X147150000Y-128900000D01*
G37*
G36*
X187083634Y-101855401D02*
G01*
X187134001Y-101870680D01*
X187180427Y-101895495D01*
X187221115Y-101928885D01*
X187254505Y-101969573D01*
X187279320Y-102015999D01*
X187294599Y-102066366D01*
X187300000Y-102121204D01*
X187300000Y-102753796D01*
X187294599Y-102808634D01*
X187279320Y-102859001D01*
X187254505Y-102905427D01*
X187221115Y-102946115D01*
X187180427Y-102979505D01*
X187134001Y-103004320D01*
X187083634Y-103019599D01*
X187028796Y-103025000D01*
X185971204Y-103025000D01*
X185916366Y-103019599D01*
X185865999Y-103004320D01*
X185819573Y-102979505D01*
X185778885Y-102946115D01*
X185745495Y-102905427D01*
X185720680Y-102859001D01*
X185705401Y-102808634D01*
X185700000Y-102753796D01*
X185700000Y-102121204D01*
X185705401Y-102066366D01*
X185720680Y-102015999D01*
X185745495Y-101969573D01*
X185778885Y-101928885D01*
X185819573Y-101895495D01*
X185865999Y-101870680D01*
X185916366Y-101855401D01*
X185971204Y-101850000D01*
X187028796Y-101850000D01*
X187083634Y-101855401D01*
G37*
G36*
X197083634Y-101855401D02*
G01*
X197134001Y-101870680D01*
X197180427Y-101895495D01*
X197221115Y-101928885D01*
X197254505Y-101969573D01*
X197279320Y-102015999D01*
X197294599Y-102066366D01*
X197300000Y-102121204D01*
X197300000Y-102753796D01*
X197294599Y-102808634D01*
X197279320Y-102859001D01*
X197254505Y-102905427D01*
X197221115Y-102946115D01*
X197180427Y-102979505D01*
X197134001Y-103004320D01*
X197083634Y-103019599D01*
X197028796Y-103025000D01*
X195971204Y-103025000D01*
X195916366Y-103019599D01*
X195865999Y-103004320D01*
X195819573Y-102979505D01*
X195778885Y-102946115D01*
X195745495Y-102905427D01*
X195720680Y-102859001D01*
X195705401Y-102808634D01*
X195700000Y-102753796D01*
X195700000Y-102121204D01*
X195705401Y-102066366D01*
X195720680Y-102015999D01*
X195745495Y-101969573D01*
X195778885Y-101928885D01*
X195819573Y-101895495D01*
X195865999Y-101870680D01*
X195916366Y-101855401D01*
X195971204Y-101850000D01*
X197028796Y-101850000D01*
X197083634Y-101855401D01*
G37*
G36*
X283333634Y-101855401D02*
G01*
X283384001Y-101870680D01*
X283430427Y-101895495D01*
X283471115Y-101928885D01*
X283504505Y-101969573D01*
X283529320Y-102015999D01*
X283544599Y-102066366D01*
X283550000Y-102121204D01*
X283550000Y-102753796D01*
X283544599Y-102808634D01*
X283529320Y-102859001D01*
X283504505Y-102905427D01*
X283471115Y-102946115D01*
X283430427Y-102979505D01*
X283384001Y-103004320D01*
X283333634Y-103019599D01*
X283278796Y-103025000D01*
X282221204Y-103025000D01*
X282166366Y-103019599D01*
X282115999Y-103004320D01*
X282069573Y-102979505D01*
X282028885Y-102946115D01*
X281995495Y-102905427D01*
X281970680Y-102859001D01*
X281955401Y-102808634D01*
X281950000Y-102753796D01*
X281950000Y-102121204D01*
X281955401Y-102066366D01*
X281970680Y-102015999D01*
X281995495Y-101969573D01*
X282028885Y-101928885D01*
X282069573Y-101895495D01*
X282115999Y-101870680D01*
X282166366Y-101855401D01*
X282221204Y-101850000D01*
X283278796Y-101850000D01*
X283333634Y-101855401D01*
G37*
G36*
X279333634Y-101855401D02*
G01*
X279384001Y-101870680D01*
X279430427Y-101895495D01*
X279471115Y-101928885D01*
X279504505Y-101969573D01*
X279529320Y-102015999D01*
X279544599Y-102066366D01*
X279550000Y-102121204D01*
X279550000Y-102753796D01*
X279544599Y-102808634D01*
X279529320Y-102859001D01*
X279504505Y-102905427D01*
X279471115Y-102946115D01*
X279430427Y-102979505D01*
X279384001Y-103004320D01*
X279333634Y-103019599D01*
X279278796Y-103025000D01*
X278221204Y-103025000D01*
X278166366Y-103019599D01*
X278115999Y-103004320D01*
X278069573Y-102979505D01*
X278028885Y-102946115D01*
X277995495Y-102905427D01*
X277970680Y-102859001D01*
X277955401Y-102808634D01*
X277950000Y-102753796D01*
X277950000Y-102121204D01*
X277955401Y-102066366D01*
X277970680Y-102015999D01*
X277995495Y-101969573D01*
X278028885Y-101928885D01*
X278069573Y-101895495D01*
X278115999Y-101870680D01*
X278166366Y-101855401D01*
X278221204Y-101850000D01*
X279278796Y-101850000D01*
X279333634Y-101855401D01*
G37*
G36*
X275333634Y-101855401D02*
G01*
X275384001Y-101870680D01*
X275430427Y-101895495D01*
X275471115Y-101928885D01*
X275504505Y-101969573D01*
X275529320Y-102015999D01*
X275544599Y-102066366D01*
X275550000Y-102121204D01*
X275550000Y-102753796D01*
X275544599Y-102808634D01*
X275529320Y-102859001D01*
X275504505Y-102905427D01*
X275471115Y-102946115D01*
X275430427Y-102979505D01*
X275384001Y-103004320D01*
X275333634Y-103019599D01*
X275278796Y-103025000D01*
X274221204Y-103025000D01*
X274166366Y-103019599D01*
X274115999Y-103004320D01*
X274069573Y-102979505D01*
X274028885Y-102946115D01*
X273995495Y-102905427D01*
X273970680Y-102859001D01*
X273955401Y-102808634D01*
X273950000Y-102753796D01*
X273950000Y-102121204D01*
X273955401Y-102066366D01*
X273970680Y-102015999D01*
X273995495Y-101969573D01*
X274028885Y-101928885D01*
X274069573Y-101895495D01*
X274115999Y-101870680D01*
X274166366Y-101855401D01*
X274221204Y-101850000D01*
X275278796Y-101850000D01*
X275333634Y-101855401D01*
G37*
G36*
X195083634Y-101855401D02*
G01*
X195134001Y-101870680D01*
X195180427Y-101895495D01*
X195221115Y-101928885D01*
X195254505Y-101969573D01*
X195279320Y-102015999D01*
X195294599Y-102066366D01*
X195300000Y-102121204D01*
X195300000Y-102753796D01*
X195294599Y-102808634D01*
X195279320Y-102859001D01*
X195254505Y-102905427D01*
X195221115Y-102946115D01*
X195180427Y-102979505D01*
X195134001Y-103004320D01*
X195083634Y-103019599D01*
X195028796Y-103025000D01*
X193971204Y-103025000D01*
X193916366Y-103019599D01*
X193865999Y-103004320D01*
X193819573Y-102979505D01*
X193778885Y-102946115D01*
X193745495Y-102905427D01*
X193720680Y-102859001D01*
X193705401Y-102808634D01*
X193700000Y-102753796D01*
X193700000Y-102121204D01*
X193705401Y-102066366D01*
X193720680Y-102015999D01*
X193745495Y-101969573D01*
X193778885Y-101928885D01*
X193819573Y-101895495D01*
X193865999Y-101870680D01*
X193916366Y-101855401D01*
X193971204Y-101850000D01*
X195028796Y-101850000D01*
X195083634Y-101855401D01*
G37*
G36*
X193083634Y-101855401D02*
G01*
X193134001Y-101870680D01*
X193180427Y-101895495D01*
X193221115Y-101928885D01*
X193254505Y-101969573D01*
X193279320Y-102015999D01*
X193294599Y-102066366D01*
X193300000Y-102121204D01*
X193300000Y-102753796D01*
X193294599Y-102808634D01*
X193279320Y-102859001D01*
X193254505Y-102905427D01*
X193221115Y-102946115D01*
X193180427Y-102979505D01*
X193134001Y-103004320D01*
X193083634Y-103019599D01*
X193028796Y-103025000D01*
X191971204Y-103025000D01*
X191916366Y-103019599D01*
X191865999Y-103004320D01*
X191819573Y-102979505D01*
X191778885Y-102946115D01*
X191745495Y-102905427D01*
X191720680Y-102859001D01*
X191705401Y-102808634D01*
X191700000Y-102753796D01*
X191700000Y-102121204D01*
X191705401Y-102066366D01*
X191720680Y-102015999D01*
X191745495Y-101969573D01*
X191778885Y-101928885D01*
X191819573Y-101895495D01*
X191865999Y-101870680D01*
X191916366Y-101855401D01*
X191971204Y-101850000D01*
X193028796Y-101850000D01*
X193083634Y-101855401D01*
G37*
G36*
X285333634Y-101855401D02*
G01*
X285384001Y-101870680D01*
X285430427Y-101895495D01*
X285471115Y-101928885D01*
X285504505Y-101969573D01*
X285529320Y-102015999D01*
X285544599Y-102066366D01*
X285550000Y-102121204D01*
X285550000Y-102753796D01*
X285544599Y-102808634D01*
X285529320Y-102859001D01*
X285504505Y-102905427D01*
X285471115Y-102946115D01*
X285430427Y-102979505D01*
X285384001Y-103004320D01*
X285333634Y-103019599D01*
X285278796Y-103025000D01*
X284221204Y-103025000D01*
X284166366Y-103019599D01*
X284115999Y-103004320D01*
X284069573Y-102979505D01*
X284028885Y-102946115D01*
X283995495Y-102905427D01*
X283970680Y-102859001D01*
X283955401Y-102808634D01*
X283950000Y-102753796D01*
X283950000Y-102121204D01*
X283955401Y-102066366D01*
X283970680Y-102015999D01*
X283995495Y-101969573D01*
X284028885Y-101928885D01*
X284069573Y-101895495D01*
X284115999Y-101870680D01*
X284166366Y-101855401D01*
X284221204Y-101850000D01*
X285278796Y-101850000D01*
X285333634Y-101855401D01*
G37*
G36*
X281333634Y-101855401D02*
G01*
X281384001Y-101870680D01*
X281430427Y-101895495D01*
X281471115Y-101928885D01*
X281504505Y-101969573D01*
X281529320Y-102015999D01*
X281544599Y-102066366D01*
X281550000Y-102121204D01*
X281550000Y-102753796D01*
X281544599Y-102808634D01*
X281529320Y-102859001D01*
X281504505Y-102905427D01*
X281471115Y-102946115D01*
X281430427Y-102979505D01*
X281384001Y-103004320D01*
X281333634Y-103019599D01*
X281278796Y-103025000D01*
X280221204Y-103025000D01*
X280166366Y-103019599D01*
X280115999Y-103004320D01*
X280069573Y-102979505D01*
X280028885Y-102946115D01*
X279995495Y-102905427D01*
X279970680Y-102859001D01*
X279955401Y-102808634D01*
X279950000Y-102753796D01*
X279950000Y-102121204D01*
X279955401Y-102066366D01*
X279970680Y-102015999D01*
X279995495Y-101969573D01*
X280028885Y-101928885D01*
X280069573Y-101895495D01*
X280115999Y-101870680D01*
X280166366Y-101855401D01*
X280221204Y-101850000D01*
X281278796Y-101850000D01*
X281333634Y-101855401D01*
G37*
G36*
X191083634Y-101855401D02*
G01*
X191134001Y-101870680D01*
X191180427Y-101895495D01*
X191221115Y-101928885D01*
X191254505Y-101969573D01*
X191279320Y-102015999D01*
X191294599Y-102066366D01*
X191300000Y-102121204D01*
X191300000Y-102753796D01*
X191294599Y-102808634D01*
X191279320Y-102859001D01*
X191254505Y-102905427D01*
X191221115Y-102946115D01*
X191180427Y-102979505D01*
X191134001Y-103004320D01*
X191083634Y-103019599D01*
X191028796Y-103025000D01*
X189971204Y-103025000D01*
X189916366Y-103019599D01*
X189865999Y-103004320D01*
X189819573Y-102979505D01*
X189778885Y-102946115D01*
X189745495Y-102905427D01*
X189720680Y-102859001D01*
X189705401Y-102808634D01*
X189700000Y-102753796D01*
X189700000Y-102121204D01*
X189705401Y-102066366D01*
X189720680Y-102015999D01*
X189745495Y-101969573D01*
X189778885Y-101928885D01*
X189819573Y-101895495D01*
X189865999Y-101870680D01*
X189916366Y-101855401D01*
X189971204Y-101850000D01*
X191028796Y-101850000D01*
X191083634Y-101855401D01*
G37*
G36*
X189083634Y-101855401D02*
G01*
X189134001Y-101870680D01*
X189180427Y-101895495D01*
X189221115Y-101928885D01*
X189254505Y-101969573D01*
X189279320Y-102015999D01*
X189294599Y-102066366D01*
X189300000Y-102121204D01*
X189300000Y-102753796D01*
X189294599Y-102808634D01*
X189279320Y-102859001D01*
X189254505Y-102905427D01*
X189221115Y-102946115D01*
X189180427Y-102979505D01*
X189134001Y-103004320D01*
X189083634Y-103019599D01*
X189028796Y-103025000D01*
X187971204Y-103025000D01*
X187916366Y-103019599D01*
X187865999Y-103004320D01*
X187819573Y-102979505D01*
X187778885Y-102946115D01*
X187745495Y-102905427D01*
X187720680Y-102859001D01*
X187705401Y-102808634D01*
X187700000Y-102753796D01*
X187700000Y-102121204D01*
X187705401Y-102066366D01*
X187720680Y-102015999D01*
X187745495Y-101969573D01*
X187778885Y-101928885D01*
X187819573Y-101895495D01*
X187865999Y-101870680D01*
X187916366Y-101855401D01*
X187971204Y-101850000D01*
X189028796Y-101850000D01*
X189083634Y-101855401D01*
G37*
G36*
X277333634Y-101855401D02*
G01*
X277384001Y-101870680D01*
X277430427Y-101895495D01*
X277471115Y-101928885D01*
X277504505Y-101969573D01*
X277529320Y-102015999D01*
X277544599Y-102066366D01*
X277550000Y-102121204D01*
X277550000Y-102753796D01*
X277544599Y-102808634D01*
X277529320Y-102859001D01*
X277504505Y-102905427D01*
X277471115Y-102946115D01*
X277430427Y-102979505D01*
X277384001Y-103004320D01*
X277333634Y-103019599D01*
X277278796Y-103025000D01*
X276221204Y-103025000D01*
X276166366Y-103019599D01*
X276115999Y-103004320D01*
X276069573Y-102979505D01*
X276028885Y-102946115D01*
X275995495Y-102905427D01*
X275970680Y-102859001D01*
X275955401Y-102808634D01*
X275950000Y-102753796D01*
X275950000Y-102121204D01*
X275955401Y-102066366D01*
X275970680Y-102015999D01*
X275995495Y-101969573D01*
X276028885Y-101928885D01*
X276069573Y-101895495D01*
X276115999Y-101870680D01*
X276166366Y-101855401D01*
X276221204Y-101850000D01*
X277278796Y-101850000D01*
X277333634Y-101855401D01*
G37*
G36*
X177083634Y-101855401D02*
G01*
X177134001Y-101870680D01*
X177180427Y-101895495D01*
X177221115Y-101928885D01*
X177254505Y-101969573D01*
X177279320Y-102015999D01*
X177294599Y-102066366D01*
X177300000Y-102121204D01*
X177300000Y-102753796D01*
X177294599Y-102808634D01*
X177279320Y-102859001D01*
X177254505Y-102905427D01*
X177221115Y-102946115D01*
X177180427Y-102979505D01*
X177134001Y-103004320D01*
X177083634Y-103019599D01*
X177028796Y-103025000D01*
X175971204Y-103025000D01*
X175916366Y-103019599D01*
X175865999Y-103004320D01*
X175819573Y-102979505D01*
X175778885Y-102946115D01*
X175745495Y-102905427D01*
X175720680Y-102859001D01*
X175705401Y-102808634D01*
X175700000Y-102753796D01*
X175700000Y-102121204D01*
X175705401Y-102066366D01*
X175720680Y-102015999D01*
X175745495Y-101969573D01*
X175778885Y-101928885D01*
X175819573Y-101895495D01*
X175865999Y-101870680D01*
X175916366Y-101855401D01*
X175971204Y-101850000D01*
X177028796Y-101850000D01*
X177083634Y-101855401D01*
G37*
G36*
X179083634Y-101855401D02*
G01*
X179134001Y-101870680D01*
X179180427Y-101895495D01*
X179221115Y-101928885D01*
X179254505Y-101969573D01*
X179279320Y-102015999D01*
X179294599Y-102066366D01*
X179300000Y-102121204D01*
X179300000Y-102753796D01*
X179294599Y-102808634D01*
X179279320Y-102859001D01*
X179254505Y-102905427D01*
X179221115Y-102946115D01*
X179180427Y-102979505D01*
X179134001Y-103004320D01*
X179083634Y-103019599D01*
X179028796Y-103025000D01*
X177971204Y-103025000D01*
X177916366Y-103019599D01*
X177865999Y-103004320D01*
X177819573Y-102979505D01*
X177778885Y-102946115D01*
X177745495Y-102905427D01*
X177720680Y-102859001D01*
X177705401Y-102808634D01*
X177700000Y-102753796D01*
X177700000Y-102121204D01*
X177705401Y-102066366D01*
X177720680Y-102015999D01*
X177745495Y-101969573D01*
X177778885Y-101928885D01*
X177819573Y-101895495D01*
X177865999Y-101870680D01*
X177916366Y-101855401D01*
X177971204Y-101850000D01*
X179028796Y-101850000D01*
X179083634Y-101855401D01*
G37*
G36*
X187083634Y-99980401D02*
G01*
X187134001Y-99995680D01*
X187180427Y-100020495D01*
X187221115Y-100053885D01*
X187254505Y-100094573D01*
X187279320Y-100140999D01*
X187294599Y-100191366D01*
X187300000Y-100246204D01*
X187300000Y-100878796D01*
X187294599Y-100933634D01*
X187279320Y-100984001D01*
X187254505Y-101030427D01*
X187221115Y-101071115D01*
X187180427Y-101104505D01*
X187134001Y-101129320D01*
X187083634Y-101144599D01*
X187028796Y-101150000D01*
X185971204Y-101150000D01*
X185916366Y-101144599D01*
X185865999Y-101129320D01*
X185819573Y-101104505D01*
X185778885Y-101071115D01*
X185745495Y-101030427D01*
X185720680Y-100984001D01*
X185705401Y-100933634D01*
X185700000Y-100878796D01*
X185700000Y-100246204D01*
X185705401Y-100191366D01*
X185720680Y-100140999D01*
X185745495Y-100094573D01*
X185778885Y-100053885D01*
X185819573Y-100020495D01*
X185865999Y-99995680D01*
X185916366Y-99980401D01*
X185971204Y-99975000D01*
X187028796Y-99975000D01*
X187083634Y-99980401D01*
G37*
G36*
X179083634Y-99980401D02*
G01*
X179134001Y-99995680D01*
X179180427Y-100020495D01*
X179221115Y-100053885D01*
X179254505Y-100094573D01*
X179279320Y-100140999D01*
X179294599Y-100191366D01*
X179300000Y-100246204D01*
X179300000Y-100878796D01*
X179294599Y-100933634D01*
X179279320Y-100984001D01*
X179254505Y-101030427D01*
X179221115Y-101071115D01*
X179180427Y-101104505D01*
X179134001Y-101129320D01*
X179083634Y-101144599D01*
X179028796Y-101150000D01*
X177971204Y-101150000D01*
X177916366Y-101144599D01*
X177865999Y-101129320D01*
X177819573Y-101104505D01*
X177778885Y-101071115D01*
X177745495Y-101030427D01*
X177720680Y-100984001D01*
X177705401Y-100933634D01*
X177700000Y-100878796D01*
X177700000Y-100246204D01*
X177705401Y-100191366D01*
X177720680Y-100140999D01*
X177745495Y-100094573D01*
X177778885Y-100053885D01*
X177819573Y-100020495D01*
X177865999Y-99995680D01*
X177916366Y-99980401D01*
X177971204Y-99975000D01*
X179028796Y-99975000D01*
X179083634Y-99980401D01*
G37*
G36*
X177083634Y-99980401D02*
G01*
X177134001Y-99995680D01*
X177180427Y-100020495D01*
X177221115Y-100053885D01*
X177254505Y-100094573D01*
X177279320Y-100140999D01*
X177294599Y-100191366D01*
X177300000Y-100246204D01*
X177300000Y-100878796D01*
X177294599Y-100933634D01*
X177279320Y-100984001D01*
X177254505Y-101030427D01*
X177221115Y-101071115D01*
X177180427Y-101104505D01*
X177134001Y-101129320D01*
X177083634Y-101144599D01*
X177028796Y-101150000D01*
X175971204Y-101150000D01*
X175916366Y-101144599D01*
X175865999Y-101129320D01*
X175819573Y-101104505D01*
X175778885Y-101071115D01*
X175745495Y-101030427D01*
X175720680Y-100984001D01*
X175705401Y-100933634D01*
X175700000Y-100878796D01*
X175700000Y-100246204D01*
X175705401Y-100191366D01*
X175720680Y-100140999D01*
X175745495Y-100094573D01*
X175778885Y-100053885D01*
X175819573Y-100020495D01*
X175865999Y-99995680D01*
X175916366Y-99980401D01*
X175971204Y-99975000D01*
X177028796Y-99975000D01*
X177083634Y-99980401D01*
G37*
G36*
X189083634Y-99980401D02*
G01*
X189134001Y-99995680D01*
X189180427Y-100020495D01*
X189221115Y-100053885D01*
X189254505Y-100094573D01*
X189279320Y-100140999D01*
X189294599Y-100191366D01*
X189300000Y-100246204D01*
X189300000Y-100878796D01*
X189294599Y-100933634D01*
X189279320Y-100984001D01*
X189254505Y-101030427D01*
X189221115Y-101071115D01*
X189180427Y-101104505D01*
X189134001Y-101129320D01*
X189083634Y-101144599D01*
X189028796Y-101150000D01*
X187971204Y-101150000D01*
X187916366Y-101144599D01*
X187865999Y-101129320D01*
X187819573Y-101104505D01*
X187778885Y-101071115D01*
X187745495Y-101030427D01*
X187720680Y-100984001D01*
X187705401Y-100933634D01*
X187700000Y-100878796D01*
X187700000Y-100246204D01*
X187705401Y-100191366D01*
X187720680Y-100140999D01*
X187745495Y-100094573D01*
X187778885Y-100053885D01*
X187819573Y-100020495D01*
X187865999Y-99995680D01*
X187916366Y-99980401D01*
X187971204Y-99975000D01*
X189028796Y-99975000D01*
X189083634Y-99980401D01*
G37*
G36*
X283333634Y-99980401D02*
G01*
X283384001Y-99995680D01*
X283430427Y-100020495D01*
X283471115Y-100053885D01*
X283504505Y-100094573D01*
X283529320Y-100140999D01*
X283544599Y-100191366D01*
X283550000Y-100246204D01*
X283550000Y-100878796D01*
X283544599Y-100933634D01*
X283529320Y-100984001D01*
X283504505Y-101030427D01*
X283471115Y-101071115D01*
X283430427Y-101104505D01*
X283384001Y-101129320D01*
X283333634Y-101144599D01*
X283278796Y-101150000D01*
X282221204Y-101150000D01*
X282166366Y-101144599D01*
X282115999Y-101129320D01*
X282069573Y-101104505D01*
X282028885Y-101071115D01*
X281995495Y-101030427D01*
X281970680Y-100984001D01*
X281955401Y-100933634D01*
X281950000Y-100878796D01*
X281950000Y-100246204D01*
X281955401Y-100191366D01*
X281970680Y-100140999D01*
X281995495Y-100094573D01*
X282028885Y-100053885D01*
X282069573Y-100020495D01*
X282115999Y-99995680D01*
X282166366Y-99980401D01*
X282221204Y-99975000D01*
X283278796Y-99975000D01*
X283333634Y-99980401D01*
G37*
G36*
X281333634Y-99980401D02*
G01*
X281384001Y-99995680D01*
X281430427Y-100020495D01*
X281471115Y-100053885D01*
X281504505Y-100094573D01*
X281529320Y-100140999D01*
X281544599Y-100191366D01*
X281550000Y-100246204D01*
X281550000Y-100878796D01*
X281544599Y-100933634D01*
X281529320Y-100984001D01*
X281504505Y-101030427D01*
X281471115Y-101071115D01*
X281430427Y-101104505D01*
X281384001Y-101129320D01*
X281333634Y-101144599D01*
X281278796Y-101150000D01*
X280221204Y-101150000D01*
X280166366Y-101144599D01*
X280115999Y-101129320D01*
X280069573Y-101104505D01*
X280028885Y-101071115D01*
X279995495Y-101030427D01*
X279970680Y-100984001D01*
X279955401Y-100933634D01*
X279950000Y-100878796D01*
X279950000Y-100246204D01*
X279955401Y-100191366D01*
X279970680Y-100140999D01*
X279995495Y-100094573D01*
X280028885Y-100053885D01*
X280069573Y-100020495D01*
X280115999Y-99995680D01*
X280166366Y-99980401D01*
X280221204Y-99975000D01*
X281278796Y-99975000D01*
X281333634Y-99980401D01*
G37*
G36*
X279333634Y-99980401D02*
G01*
X279384001Y-99995680D01*
X279430427Y-100020495D01*
X279471115Y-100053885D01*
X279504505Y-100094573D01*
X279529320Y-100140999D01*
X279544599Y-100191366D01*
X279550000Y-100246204D01*
X279550000Y-100878796D01*
X279544599Y-100933634D01*
X279529320Y-100984001D01*
X279504505Y-101030427D01*
X279471115Y-101071115D01*
X279430427Y-101104505D01*
X279384001Y-101129320D01*
X279333634Y-101144599D01*
X279278796Y-101150000D01*
X278221204Y-101150000D01*
X278166366Y-101144599D01*
X278115999Y-101129320D01*
X278069573Y-101104505D01*
X278028885Y-101071115D01*
X277995495Y-101030427D01*
X277970680Y-100984001D01*
X277955401Y-100933634D01*
X277950000Y-100878796D01*
X277950000Y-100246204D01*
X277955401Y-100191366D01*
X277970680Y-100140999D01*
X277995495Y-100094573D01*
X278028885Y-100053885D01*
X278069573Y-100020495D01*
X278115999Y-99995680D01*
X278166366Y-99980401D01*
X278221204Y-99975000D01*
X279278796Y-99975000D01*
X279333634Y-99980401D01*
G37*
G36*
X285333634Y-99980401D02*
G01*
X285384001Y-99995680D01*
X285430427Y-100020495D01*
X285471115Y-100053885D01*
X285504505Y-100094573D01*
X285529320Y-100140999D01*
X285544599Y-100191366D01*
X285550000Y-100246204D01*
X285550000Y-100878796D01*
X285544599Y-100933634D01*
X285529320Y-100984001D01*
X285504505Y-101030427D01*
X285471115Y-101071115D01*
X285430427Y-101104505D01*
X285384001Y-101129320D01*
X285333634Y-101144599D01*
X285278796Y-101150000D01*
X284221204Y-101150000D01*
X284166366Y-101144599D01*
X284115999Y-101129320D01*
X284069573Y-101104505D01*
X284028885Y-101071115D01*
X283995495Y-101030427D01*
X283970680Y-100984001D01*
X283955401Y-100933634D01*
X283950000Y-100878796D01*
X283950000Y-100246204D01*
X283955401Y-100191366D01*
X283970680Y-100140999D01*
X283995495Y-100094573D01*
X284028885Y-100053885D01*
X284069573Y-100020495D01*
X284115999Y-99995680D01*
X284166366Y-99980401D01*
X284221204Y-99975000D01*
X285278796Y-99975000D01*
X285333634Y-99980401D01*
G37*
G36*
X191083634Y-99980401D02*
G01*
X191134001Y-99995680D01*
X191180427Y-100020495D01*
X191221115Y-100053885D01*
X191254505Y-100094573D01*
X191279320Y-100140999D01*
X191294599Y-100191366D01*
X191300000Y-100246204D01*
X191300000Y-100878796D01*
X191294599Y-100933634D01*
X191279320Y-100984001D01*
X191254505Y-101030427D01*
X191221115Y-101071115D01*
X191180427Y-101104505D01*
X191134001Y-101129320D01*
X191083634Y-101144599D01*
X191028796Y-101150000D01*
X189971204Y-101150000D01*
X189916366Y-101144599D01*
X189865999Y-101129320D01*
X189819573Y-101104505D01*
X189778885Y-101071115D01*
X189745495Y-101030427D01*
X189720680Y-100984001D01*
X189705401Y-100933634D01*
X189700000Y-100878796D01*
X189700000Y-100246204D01*
X189705401Y-100191366D01*
X189720680Y-100140999D01*
X189745495Y-100094573D01*
X189778885Y-100053885D01*
X189819573Y-100020495D01*
X189865999Y-99995680D01*
X189916366Y-99980401D01*
X189971204Y-99975000D01*
X191028796Y-99975000D01*
X191083634Y-99980401D01*
G37*
G36*
X193083634Y-99980401D02*
G01*
X193134001Y-99995680D01*
X193180427Y-100020495D01*
X193221115Y-100053885D01*
X193254505Y-100094573D01*
X193279320Y-100140999D01*
X193294599Y-100191366D01*
X193300000Y-100246204D01*
X193300000Y-100878796D01*
X193294599Y-100933634D01*
X193279320Y-100984001D01*
X193254505Y-101030427D01*
X193221115Y-101071115D01*
X193180427Y-101104505D01*
X193134001Y-101129320D01*
X193083634Y-101144599D01*
X193028796Y-101150000D01*
X191971204Y-101150000D01*
X191916366Y-101144599D01*
X191865999Y-101129320D01*
X191819573Y-101104505D01*
X191778885Y-101071115D01*
X191745495Y-101030427D01*
X191720680Y-100984001D01*
X191705401Y-100933634D01*
X191700000Y-100878796D01*
X191700000Y-100246204D01*
X191705401Y-100191366D01*
X191720680Y-100140999D01*
X191745495Y-100094573D01*
X191778885Y-100053885D01*
X191819573Y-100020495D01*
X191865999Y-99995680D01*
X191916366Y-99980401D01*
X191971204Y-99975000D01*
X193028796Y-99975000D01*
X193083634Y-99980401D01*
G37*
G36*
X275333634Y-99980401D02*
G01*
X275384001Y-99995680D01*
X275430427Y-100020495D01*
X275471115Y-100053885D01*
X275504505Y-100094573D01*
X275529320Y-100140999D01*
X275544599Y-100191366D01*
X275550000Y-100246204D01*
X275550000Y-100878796D01*
X275544599Y-100933634D01*
X275529320Y-100984001D01*
X275504505Y-101030427D01*
X275471115Y-101071115D01*
X275430427Y-101104505D01*
X275384001Y-101129320D01*
X275333634Y-101144599D01*
X275278796Y-101150000D01*
X274221204Y-101150000D01*
X274166366Y-101144599D01*
X274115999Y-101129320D01*
X274069573Y-101104505D01*
X274028885Y-101071115D01*
X273995495Y-101030427D01*
X273970680Y-100984001D01*
X273955401Y-100933634D01*
X273950000Y-100878796D01*
X273950000Y-100246204D01*
X273955401Y-100191366D01*
X273970680Y-100140999D01*
X273995495Y-100094573D01*
X274028885Y-100053885D01*
X274069573Y-100020495D01*
X274115999Y-99995680D01*
X274166366Y-99980401D01*
X274221204Y-99975000D01*
X275278796Y-99975000D01*
X275333634Y-99980401D01*
G37*
G36*
X195083634Y-99980401D02*
G01*
X195134001Y-99995680D01*
X195180427Y-100020495D01*
X195221115Y-100053885D01*
X195254505Y-100094573D01*
X195279320Y-100140999D01*
X195294599Y-100191366D01*
X195300000Y-100246204D01*
X195300000Y-100878796D01*
X195294599Y-100933634D01*
X195279320Y-100984001D01*
X195254505Y-101030427D01*
X195221115Y-101071115D01*
X195180427Y-101104505D01*
X195134001Y-101129320D01*
X195083634Y-101144599D01*
X195028796Y-101150000D01*
X193971204Y-101150000D01*
X193916366Y-101144599D01*
X193865999Y-101129320D01*
X193819573Y-101104505D01*
X193778885Y-101071115D01*
X193745495Y-101030427D01*
X193720680Y-100984001D01*
X193705401Y-100933634D01*
X193700000Y-100878796D01*
X193700000Y-100246204D01*
X193705401Y-100191366D01*
X193720680Y-100140999D01*
X193745495Y-100094573D01*
X193778885Y-100053885D01*
X193819573Y-100020495D01*
X193865999Y-99995680D01*
X193916366Y-99980401D01*
X193971204Y-99975000D01*
X195028796Y-99975000D01*
X195083634Y-99980401D01*
G37*
G36*
X197083634Y-99980401D02*
G01*
X197134001Y-99995680D01*
X197180427Y-100020495D01*
X197221115Y-100053885D01*
X197254505Y-100094573D01*
X197279320Y-100140999D01*
X197294599Y-100191366D01*
X197300000Y-100246204D01*
X197300000Y-100878796D01*
X197294599Y-100933634D01*
X197279320Y-100984001D01*
X197254505Y-101030427D01*
X197221115Y-101071115D01*
X197180427Y-101104505D01*
X197134001Y-101129320D01*
X197083634Y-101144599D01*
X197028796Y-101150000D01*
X195971204Y-101150000D01*
X195916366Y-101144599D01*
X195865999Y-101129320D01*
X195819573Y-101104505D01*
X195778885Y-101071115D01*
X195745495Y-101030427D01*
X195720680Y-100984001D01*
X195705401Y-100933634D01*
X195700000Y-100878796D01*
X195700000Y-100246204D01*
X195705401Y-100191366D01*
X195720680Y-100140999D01*
X195745495Y-100094573D01*
X195778885Y-100053885D01*
X195819573Y-100020495D01*
X195865999Y-99995680D01*
X195916366Y-99980401D01*
X195971204Y-99975000D01*
X197028796Y-99975000D01*
X197083634Y-99980401D01*
G37*
G36*
X277333634Y-99980401D02*
G01*
X277384001Y-99995680D01*
X277430427Y-100020495D01*
X277471115Y-100053885D01*
X277504505Y-100094573D01*
X277529320Y-100140999D01*
X277544599Y-100191366D01*
X277550000Y-100246204D01*
X277550000Y-100878796D01*
X277544599Y-100933634D01*
X277529320Y-100984001D01*
X277504505Y-101030427D01*
X277471115Y-101071115D01*
X277430427Y-101104505D01*
X277384001Y-101129320D01*
X277333634Y-101144599D01*
X277278796Y-101150000D01*
X276221204Y-101150000D01*
X276166366Y-101144599D01*
X276115999Y-101129320D01*
X276069573Y-101104505D01*
X276028885Y-101071115D01*
X275995495Y-101030427D01*
X275970680Y-100984001D01*
X275955401Y-100933634D01*
X275950000Y-100878796D01*
X275950000Y-100246204D01*
X275955401Y-100191366D01*
X275970680Y-100140999D01*
X275995495Y-100094573D01*
X276028885Y-100053885D01*
X276069573Y-100020495D01*
X276115999Y-99995680D01*
X276166366Y-99980401D01*
X276221204Y-99975000D01*
X277278796Y-99975000D01*
X277333634Y-99980401D01*
G37*
G36*
X106784400Y-68249600D02*
G01*
X104400000Y-68249600D01*
X104400000Y-61750400D01*
X106784400Y-61750400D01*
X106784400Y-68249600D01*
G37*
G36*
X186553755Y-64929920D02*
G01*
X186599435Y-64943777D01*
X186641535Y-64966281D01*
X186678436Y-64996564D01*
X186708719Y-65033465D01*
X186731223Y-65075565D01*
X186745080Y-65121245D01*
X186750000Y-65171203D01*
X186750000Y-65828797D01*
X186745080Y-65878755D01*
X186731223Y-65924435D01*
X186708719Y-65966535D01*
X186678436Y-66003436D01*
X186641535Y-66033719D01*
X186599435Y-66056223D01*
X186553755Y-66070080D01*
X186503797Y-66075000D01*
X185921203Y-66075000D01*
X185871245Y-66070080D01*
X185825565Y-66056223D01*
X185783465Y-66033719D01*
X185746564Y-66003436D01*
X185716281Y-65966535D01*
X185693777Y-65924435D01*
X185679920Y-65878755D01*
X185675000Y-65828797D01*
X185675000Y-65171203D01*
X185679920Y-65121245D01*
X185693777Y-65075565D01*
X185716281Y-65033465D01*
X185746564Y-64996564D01*
X185783465Y-64966281D01*
X185825565Y-64943777D01*
X185871245Y-64929920D01*
X185921203Y-64925000D01*
X186503797Y-64925000D01*
X186553755Y-64929920D01*
G37*
G36*
X188128755Y-64929920D02*
G01*
X188174435Y-64943777D01*
X188216535Y-64966281D01*
X188253436Y-64996564D01*
X188283719Y-65033465D01*
X188306223Y-65075565D01*
X188320080Y-65121245D01*
X188325000Y-65171203D01*
X188325000Y-65828797D01*
X188320080Y-65878755D01*
X188306223Y-65924435D01*
X188283719Y-65966535D01*
X188253436Y-66003436D01*
X188216535Y-66033719D01*
X188174435Y-66056223D01*
X188128755Y-66070080D01*
X188078797Y-66075000D01*
X187496203Y-66075000D01*
X187446245Y-66070080D01*
X187400565Y-66056223D01*
X187358465Y-66033719D01*
X187321564Y-66003436D01*
X187291281Y-65966535D01*
X187268777Y-65924435D01*
X187254920Y-65878755D01*
X187250000Y-65828797D01*
X187250000Y-65171203D01*
X187254920Y-65121245D01*
X187268777Y-65075565D01*
X187291281Y-65033465D01*
X187321564Y-64996564D01*
X187358465Y-64966281D01*
X187400565Y-64943777D01*
X187446245Y-64929920D01*
X187496203Y-64925000D01*
X188078797Y-64925000D01*
X188128755Y-64929920D01*
G37*
G36*
X285128755Y-64929920D02*
G01*
X285174435Y-64943777D01*
X285216535Y-64966281D01*
X285253436Y-64996564D01*
X285283719Y-65033465D01*
X285306223Y-65075565D01*
X285320080Y-65121245D01*
X285325000Y-65171203D01*
X285325000Y-65828797D01*
X285320080Y-65878755D01*
X285306223Y-65924435D01*
X285283719Y-65966535D01*
X285253436Y-66003436D01*
X285216535Y-66033719D01*
X285174435Y-66056223D01*
X285128755Y-66070080D01*
X285078797Y-66075000D01*
X284496203Y-66075000D01*
X284446245Y-66070080D01*
X284400565Y-66056223D01*
X284358465Y-66033719D01*
X284321564Y-66003436D01*
X284291281Y-65966535D01*
X284268777Y-65924435D01*
X284254920Y-65878755D01*
X284250000Y-65828797D01*
X284250000Y-65171203D01*
X284254920Y-65121245D01*
X284268777Y-65075565D01*
X284291281Y-65033465D01*
X284321564Y-64996564D01*
X284358465Y-64966281D01*
X284400565Y-64943777D01*
X284446245Y-64929920D01*
X284496203Y-64925000D01*
X285078797Y-64925000D01*
X285128755Y-64929920D01*
G37*
G36*
X283553755Y-64929920D02*
G01*
X283599435Y-64943777D01*
X283641535Y-64966281D01*
X283678436Y-64996564D01*
X283708719Y-65033465D01*
X283731223Y-65075565D01*
X283745080Y-65121245D01*
X283750000Y-65171203D01*
X283750000Y-65828797D01*
X283745080Y-65878755D01*
X283731223Y-65924435D01*
X283708719Y-65966535D01*
X283678436Y-66003436D01*
X283641535Y-66033719D01*
X283599435Y-66056223D01*
X283553755Y-66070080D01*
X283503797Y-66075000D01*
X282921203Y-66075000D01*
X282871245Y-66070080D01*
X282825565Y-66056223D01*
X282783465Y-66033719D01*
X282746564Y-66003436D01*
X282716281Y-65966535D01*
X282693777Y-65924435D01*
X282679920Y-65878755D01*
X282675000Y-65828797D01*
X282675000Y-65171203D01*
X282679920Y-65121245D01*
X282693777Y-65075565D01*
X282716281Y-65033465D01*
X282746564Y-64996564D01*
X282783465Y-64966281D01*
X282825565Y-64943777D01*
X282871245Y-64929920D01*
X282921203Y-64925000D01*
X283503797Y-64925000D01*
X283553755Y-64929920D01*
G37*
G36*
X186553755Y-62929920D02*
G01*
X186599435Y-62943777D01*
X186641535Y-62966281D01*
X186678436Y-62996564D01*
X186708719Y-63033465D01*
X186731223Y-63075565D01*
X186745080Y-63121245D01*
X186750000Y-63171203D01*
X186750000Y-63828797D01*
X186745080Y-63878755D01*
X186731223Y-63924435D01*
X186708719Y-63966535D01*
X186678436Y-64003436D01*
X186641535Y-64033719D01*
X186599435Y-64056223D01*
X186553755Y-64070080D01*
X186503797Y-64075000D01*
X185921203Y-64075000D01*
X185871245Y-64070080D01*
X185825565Y-64056223D01*
X185783465Y-64033719D01*
X185746564Y-64003436D01*
X185716281Y-63966535D01*
X185693777Y-63924435D01*
X185679920Y-63878755D01*
X185675000Y-63828797D01*
X185675000Y-63171203D01*
X185679920Y-63121245D01*
X185693777Y-63075565D01*
X185716281Y-63033465D01*
X185746564Y-62996564D01*
X185783465Y-62966281D01*
X185825565Y-62943777D01*
X185871245Y-62929920D01*
X185921203Y-62925000D01*
X186503797Y-62925000D01*
X186553755Y-62929920D01*
G37*
G36*
X188128755Y-62929920D02*
G01*
X188174435Y-62943777D01*
X188216535Y-62966281D01*
X188253436Y-62996564D01*
X188283719Y-63033465D01*
X188306223Y-63075565D01*
X188320080Y-63121245D01*
X188325000Y-63171203D01*
X188325000Y-63828797D01*
X188320080Y-63878755D01*
X188306223Y-63924435D01*
X188283719Y-63966535D01*
X188253436Y-64003436D01*
X188216535Y-64033719D01*
X188174435Y-64056223D01*
X188128755Y-64070080D01*
X188078797Y-64075000D01*
X187496203Y-64075000D01*
X187446245Y-64070080D01*
X187400565Y-64056223D01*
X187358465Y-64033719D01*
X187321564Y-64003436D01*
X187291281Y-63966535D01*
X187268777Y-63924435D01*
X187254920Y-63878755D01*
X187250000Y-63828797D01*
X187250000Y-63171203D01*
X187254920Y-63121245D01*
X187268777Y-63075565D01*
X187291281Y-63033465D01*
X187321564Y-62996564D01*
X187358465Y-62966281D01*
X187400565Y-62943777D01*
X187446245Y-62929920D01*
X187496203Y-62925000D01*
X188078797Y-62925000D01*
X188128755Y-62929920D01*
G37*
G36*
X283553755Y-62929920D02*
G01*
X283599435Y-62943777D01*
X283641535Y-62966281D01*
X283678436Y-62996564D01*
X283708719Y-63033465D01*
X283731223Y-63075565D01*
X283745080Y-63121245D01*
X283750000Y-63171203D01*
X283750000Y-63828797D01*
X283745080Y-63878755D01*
X283731223Y-63924435D01*
X283708719Y-63966535D01*
X283678436Y-64003436D01*
X283641535Y-64033719D01*
X283599435Y-64056223D01*
X283553755Y-64070080D01*
X283503797Y-64075000D01*
X282921203Y-64075000D01*
X282871245Y-64070080D01*
X282825565Y-64056223D01*
X282783465Y-64033719D01*
X282746564Y-64003436D01*
X282716281Y-63966535D01*
X282693777Y-63924435D01*
X282679920Y-63878755D01*
X282675000Y-63828797D01*
X282675000Y-63171203D01*
X282679920Y-63121245D01*
X282693777Y-63075565D01*
X282716281Y-63033465D01*
X282746564Y-62996564D01*
X282783465Y-62966281D01*
X282825565Y-62943777D01*
X282871245Y-62929920D01*
X282921203Y-62925000D01*
X283503797Y-62925000D01*
X283553755Y-62929920D01*
G37*
G36*
X285128755Y-62929920D02*
G01*
X285174435Y-62943777D01*
X285216535Y-62966281D01*
X285253436Y-62996564D01*
X285283719Y-63033465D01*
X285306223Y-63075565D01*
X285320080Y-63121245D01*
X285325000Y-63171203D01*
X285325000Y-63828797D01*
X285320080Y-63878755D01*
X285306223Y-63924435D01*
X285283719Y-63966535D01*
X285253436Y-64003436D01*
X285216535Y-64033719D01*
X285174435Y-64056223D01*
X285128755Y-64070080D01*
X285078797Y-64075000D01*
X284496203Y-64075000D01*
X284446245Y-64070080D01*
X284400565Y-64056223D01*
X284358465Y-64033719D01*
X284321564Y-64003436D01*
X284291281Y-63966535D01*
X284268777Y-63924435D01*
X284254920Y-63878755D01*
X284250000Y-63828797D01*
X284250000Y-63171203D01*
X284254920Y-63121245D01*
X284268777Y-63075565D01*
X284291281Y-63033465D01*
X284321564Y-62996564D01*
X284358465Y-62966281D01*
X284400565Y-62943777D01*
X284446245Y-62929920D01*
X284496203Y-62925000D01*
X285078797Y-62925000D01*
X285128755Y-62929920D01*
G37*
G36*
X284583634Y-60917901D02*
G01*
X284634001Y-60933180D01*
X284680427Y-60957995D01*
X284721115Y-60991385D01*
X284754505Y-61032073D01*
X284779320Y-61078499D01*
X284794599Y-61128866D01*
X284800000Y-61183704D01*
X284800000Y-61816296D01*
X284794599Y-61871134D01*
X284779320Y-61921501D01*
X284754505Y-61967927D01*
X284721115Y-62008615D01*
X284680427Y-62042005D01*
X284634001Y-62066820D01*
X284583634Y-62082099D01*
X284528796Y-62087500D01*
X283471204Y-62087500D01*
X283416366Y-62082099D01*
X283365999Y-62066820D01*
X283319573Y-62042005D01*
X283278885Y-62008615D01*
X283245495Y-61967927D01*
X283220680Y-61921501D01*
X283205401Y-61871134D01*
X283200000Y-61816296D01*
X283200000Y-61183704D01*
X283205401Y-61128866D01*
X283220680Y-61078499D01*
X283245495Y-61032073D01*
X283278885Y-60991385D01*
X283319573Y-60957995D01*
X283365999Y-60933180D01*
X283416366Y-60917901D01*
X283471204Y-60912500D01*
X284528796Y-60912500D01*
X284583634Y-60917901D01*
G37*
G36*
X187583634Y-60855401D02*
G01*
X187634001Y-60870680D01*
X187680427Y-60895495D01*
X187721115Y-60928885D01*
X187754505Y-60969573D01*
X187779320Y-61015999D01*
X187794599Y-61066366D01*
X187800000Y-61121204D01*
X187800000Y-61753796D01*
X187794599Y-61808634D01*
X187779320Y-61859001D01*
X187754505Y-61905427D01*
X187721115Y-61946115D01*
X187680427Y-61979505D01*
X187634001Y-62004320D01*
X187583634Y-62019599D01*
X187528796Y-62025000D01*
X186471204Y-62025000D01*
X186416366Y-62019599D01*
X186365999Y-62004320D01*
X186319573Y-61979505D01*
X186278885Y-61946115D01*
X186245495Y-61905427D01*
X186220680Y-61859001D01*
X186205401Y-61808634D01*
X186200000Y-61753796D01*
X186200000Y-61121204D01*
X186205401Y-61066366D01*
X186220680Y-61015999D01*
X186245495Y-60969573D01*
X186278885Y-60928885D01*
X186319573Y-60895495D01*
X186365999Y-60870680D01*
X186416366Y-60855401D01*
X186471204Y-60850000D01*
X187528796Y-60850000D01*
X187583634Y-60855401D01*
G37*
G36*
X284583634Y-59042901D02*
G01*
X284634001Y-59058180D01*
X284680427Y-59082995D01*
X284721115Y-59116385D01*
X284754505Y-59157073D01*
X284779320Y-59203499D01*
X284794599Y-59253866D01*
X284800000Y-59308704D01*
X284800000Y-59941296D01*
X284794599Y-59996134D01*
X284779320Y-60046501D01*
X284754505Y-60092927D01*
X284721115Y-60133615D01*
X284680427Y-60167005D01*
X284634001Y-60191820D01*
X284583634Y-60207099D01*
X284528796Y-60212500D01*
X283471204Y-60212500D01*
X283416366Y-60207099D01*
X283365999Y-60191820D01*
X283319573Y-60167005D01*
X283278885Y-60133615D01*
X283245495Y-60092927D01*
X283220680Y-60046501D01*
X283205401Y-59996134D01*
X283200000Y-59941296D01*
X283200000Y-59308704D01*
X283205401Y-59253866D01*
X283220680Y-59203499D01*
X283245495Y-59157073D01*
X283278885Y-59116385D01*
X283319573Y-59082995D01*
X283365999Y-59058180D01*
X283416366Y-59042901D01*
X283471204Y-59037500D01*
X284528796Y-59037500D01*
X284583634Y-59042901D01*
G37*
G36*
X187583634Y-58980401D02*
G01*
X187634001Y-58995680D01*
X187680427Y-59020495D01*
X187721115Y-59053885D01*
X187754505Y-59094573D01*
X187779320Y-59140999D01*
X187794599Y-59191366D01*
X187800000Y-59246204D01*
X187800000Y-59878796D01*
X187794599Y-59933634D01*
X187779320Y-59984001D01*
X187754505Y-60030427D01*
X187721115Y-60071115D01*
X187680427Y-60104505D01*
X187634001Y-60129320D01*
X187583634Y-60144599D01*
X187528796Y-60150000D01*
X186471204Y-60150000D01*
X186416366Y-60144599D01*
X186365999Y-60129320D01*
X186319573Y-60104505D01*
X186278885Y-60071115D01*
X186245495Y-60030427D01*
X186220680Y-59984001D01*
X186205401Y-59933634D01*
X186200000Y-59878796D01*
X186200000Y-59246204D01*
X186205401Y-59191366D01*
X186220680Y-59140999D01*
X186245495Y-59094573D01*
X186278885Y-59053885D01*
X186319573Y-59020495D01*
X186365999Y-58995680D01*
X186416366Y-58980401D01*
X186471204Y-58975000D01*
X187528796Y-58975000D01*
X187583634Y-58980401D01*
G37*
G36*
X188128755Y-56929920D02*
G01*
X188174435Y-56943777D01*
X188216535Y-56966281D01*
X188253436Y-56996564D01*
X188283719Y-57033465D01*
X188306223Y-57075565D01*
X188320080Y-57121245D01*
X188325000Y-57171203D01*
X188325000Y-57828797D01*
X188320080Y-57878755D01*
X188306223Y-57924435D01*
X188283719Y-57966535D01*
X188253436Y-58003436D01*
X188216535Y-58033719D01*
X188174435Y-58056223D01*
X188128755Y-58070080D01*
X188078797Y-58075000D01*
X187496203Y-58075000D01*
X187446245Y-58070080D01*
X187400565Y-58056223D01*
X187358465Y-58033719D01*
X187321564Y-58003436D01*
X187291281Y-57966535D01*
X187268777Y-57924435D01*
X187254920Y-57878755D01*
X187250000Y-57828797D01*
X187250000Y-57171203D01*
X187254920Y-57121245D01*
X187268777Y-57075565D01*
X187291281Y-57033465D01*
X187321564Y-56996564D01*
X187358465Y-56966281D01*
X187400565Y-56943777D01*
X187446245Y-56929920D01*
X187496203Y-56925000D01*
X188078797Y-56925000D01*
X188128755Y-56929920D01*
G37*
G36*
X285128755Y-56929920D02*
G01*
X285174435Y-56943777D01*
X285216535Y-56966281D01*
X285253436Y-56996564D01*
X285283719Y-57033465D01*
X285306223Y-57075565D01*
X285320080Y-57121245D01*
X285325000Y-57171203D01*
X285325000Y-57828797D01*
X285320080Y-57878755D01*
X285306223Y-57924435D01*
X285283719Y-57966535D01*
X285253436Y-58003436D01*
X285216535Y-58033719D01*
X285174435Y-58056223D01*
X285128755Y-58070080D01*
X285078797Y-58075000D01*
X284496203Y-58075000D01*
X284446245Y-58070080D01*
X284400565Y-58056223D01*
X284358465Y-58033719D01*
X284321564Y-58003436D01*
X284291281Y-57966535D01*
X284268777Y-57924435D01*
X284254920Y-57878755D01*
X284250000Y-57828797D01*
X284250000Y-57171203D01*
X284254920Y-57121245D01*
X284268777Y-57075565D01*
X284291281Y-57033465D01*
X284321564Y-56996564D01*
X284358465Y-56966281D01*
X284400565Y-56943777D01*
X284446245Y-56929920D01*
X284496203Y-56925000D01*
X285078797Y-56925000D01*
X285128755Y-56929920D01*
G37*
G36*
X283553755Y-56929920D02*
G01*
X283599435Y-56943777D01*
X283641535Y-56966281D01*
X283678436Y-56996564D01*
X283708719Y-57033465D01*
X283731223Y-57075565D01*
X283745080Y-57121245D01*
X283750000Y-57171203D01*
X283750000Y-57828797D01*
X283745080Y-57878755D01*
X283731223Y-57924435D01*
X283708719Y-57966535D01*
X283678436Y-58003436D01*
X283641535Y-58033719D01*
X283599435Y-58056223D01*
X283553755Y-58070080D01*
X283503797Y-58075000D01*
X282921203Y-58075000D01*
X282871245Y-58070080D01*
X282825565Y-58056223D01*
X282783465Y-58033719D01*
X282746564Y-58003436D01*
X282716281Y-57966535D01*
X282693777Y-57924435D01*
X282679920Y-57878755D01*
X282675000Y-57828797D01*
X282675000Y-57171203D01*
X282679920Y-57121245D01*
X282693777Y-57075565D01*
X282716281Y-57033465D01*
X282746564Y-56996564D01*
X282783465Y-56966281D01*
X282825565Y-56943777D01*
X282871245Y-56929920D01*
X282921203Y-56925000D01*
X283503797Y-56925000D01*
X283553755Y-56929920D01*
G37*
G36*
X186553755Y-56929920D02*
G01*
X186599435Y-56943777D01*
X186641535Y-56966281D01*
X186678436Y-56996564D01*
X186708719Y-57033465D01*
X186731223Y-57075565D01*
X186745080Y-57121245D01*
X186750000Y-57171203D01*
X186750000Y-57828797D01*
X186745080Y-57878755D01*
X186731223Y-57924435D01*
X186708719Y-57966535D01*
X186678436Y-58003436D01*
X186641535Y-58033719D01*
X186599435Y-58056223D01*
X186553755Y-58070080D01*
X186503797Y-58075000D01*
X185921203Y-58075000D01*
X185871245Y-58070080D01*
X185825565Y-58056223D01*
X185783465Y-58033719D01*
X185746564Y-58003436D01*
X185716281Y-57966535D01*
X185693777Y-57924435D01*
X185679920Y-57878755D01*
X185675000Y-57828797D01*
X185675000Y-57171203D01*
X185679920Y-57121245D01*
X185693777Y-57075565D01*
X185716281Y-57033465D01*
X185746564Y-56996564D01*
X185783465Y-56966281D01*
X185825565Y-56943777D01*
X185871245Y-56929920D01*
X185921203Y-56925000D01*
X186503797Y-56925000D01*
X186553755Y-56929920D01*
G37*
G36*
X275378755Y-48504920D02*
G01*
X275424435Y-48518777D01*
X275466535Y-48541281D01*
X275503436Y-48571564D01*
X275533719Y-48608465D01*
X275556223Y-48650565D01*
X275570080Y-48696245D01*
X275575000Y-48746203D01*
X275575000Y-49328797D01*
X275570080Y-49378755D01*
X275556223Y-49424435D01*
X275533719Y-49466535D01*
X275503436Y-49503436D01*
X275466535Y-49533719D01*
X275424435Y-49556223D01*
X275378755Y-49570080D01*
X275328797Y-49575000D01*
X274671203Y-49575000D01*
X274621245Y-49570080D01*
X274575565Y-49556223D01*
X274533465Y-49533719D01*
X274496564Y-49503436D01*
X274466281Y-49466535D01*
X274443777Y-49424435D01*
X274429920Y-49378755D01*
X274425000Y-49328797D01*
X274425000Y-48746203D01*
X274429920Y-48696245D01*
X274443777Y-48650565D01*
X274466281Y-48608465D01*
X274496564Y-48571564D01*
X274533465Y-48541281D01*
X274575565Y-48518777D01*
X274621245Y-48504920D01*
X274671203Y-48500000D01*
X275328797Y-48500000D01*
X275378755Y-48504920D01*
G37*
G36*
X281378755Y-48504920D02*
G01*
X281424435Y-48518777D01*
X281466535Y-48541281D01*
X281503436Y-48571564D01*
X281533719Y-48608465D01*
X281556223Y-48650565D01*
X281570080Y-48696245D01*
X281575000Y-48746203D01*
X281575000Y-49328797D01*
X281570080Y-49378755D01*
X281556223Y-49424435D01*
X281533719Y-49466535D01*
X281503436Y-49503436D01*
X281466535Y-49533719D01*
X281424435Y-49556223D01*
X281378755Y-49570080D01*
X281328797Y-49575000D01*
X280671203Y-49575000D01*
X280621245Y-49570080D01*
X280575565Y-49556223D01*
X280533465Y-49533719D01*
X280496564Y-49503436D01*
X280466281Y-49466535D01*
X280443777Y-49424435D01*
X280429920Y-49378755D01*
X280425000Y-49328797D01*
X280425000Y-48746203D01*
X280429920Y-48696245D01*
X280443777Y-48650565D01*
X280466281Y-48608465D01*
X280496564Y-48571564D01*
X280533465Y-48541281D01*
X280575565Y-48518777D01*
X280621245Y-48504920D01*
X280671203Y-48500000D01*
X281328797Y-48500000D01*
X281378755Y-48504920D01*
G37*
G36*
X279308634Y-47455401D02*
G01*
X279359001Y-47470680D01*
X279405427Y-47495495D01*
X279446115Y-47528885D01*
X279479505Y-47569573D01*
X279504320Y-47615999D01*
X279519599Y-47666366D01*
X279525000Y-47721204D01*
X279525000Y-48778796D01*
X279519599Y-48833634D01*
X279504320Y-48884001D01*
X279479505Y-48930427D01*
X279446115Y-48971115D01*
X279405427Y-49004505D01*
X279359001Y-49029320D01*
X279308634Y-49044599D01*
X279253796Y-49050000D01*
X278621204Y-49050000D01*
X278566366Y-49044599D01*
X278515999Y-49029320D01*
X278469573Y-49004505D01*
X278428885Y-48971115D01*
X278395495Y-48930427D01*
X278370680Y-48884001D01*
X278355401Y-48833634D01*
X278350000Y-48778796D01*
X278350000Y-47721204D01*
X278355401Y-47666366D01*
X278370680Y-47615999D01*
X278395495Y-47569573D01*
X278428885Y-47528885D01*
X278469573Y-47495495D01*
X278515999Y-47470680D01*
X278566366Y-47455401D01*
X278621204Y-47450000D01*
X279253796Y-47450000D01*
X279308634Y-47455401D01*
G37*
G36*
X277433634Y-47455401D02*
G01*
X277484001Y-47470680D01*
X277530427Y-47495495D01*
X277571115Y-47528885D01*
X277604505Y-47569573D01*
X277629320Y-47615999D01*
X277644599Y-47666366D01*
X277650000Y-47721204D01*
X277650000Y-48778796D01*
X277644599Y-48833634D01*
X277629320Y-48884001D01*
X277604505Y-48930427D01*
X277571115Y-48971115D01*
X277530427Y-49004505D01*
X277484001Y-49029320D01*
X277433634Y-49044599D01*
X277378796Y-49050000D01*
X276746204Y-49050000D01*
X276691366Y-49044599D01*
X276640999Y-49029320D01*
X276594573Y-49004505D01*
X276553885Y-48971115D01*
X276520495Y-48930427D01*
X276495680Y-48884001D01*
X276480401Y-48833634D01*
X276475000Y-48778796D01*
X276475000Y-47721204D01*
X276480401Y-47666366D01*
X276495680Y-47615999D01*
X276520495Y-47569573D01*
X276553885Y-47528885D01*
X276594573Y-47495495D01*
X276640999Y-47470680D01*
X276691366Y-47455401D01*
X276746204Y-47450000D01*
X277378796Y-47450000D01*
X277433634Y-47455401D01*
G37*
G36*
X275378755Y-46929920D02*
G01*
X275424435Y-46943777D01*
X275466535Y-46966281D01*
X275503436Y-46996564D01*
X275533719Y-47033465D01*
X275556223Y-47075565D01*
X275570080Y-47121245D01*
X275575000Y-47171203D01*
X275575000Y-47753797D01*
X275570080Y-47803755D01*
X275556223Y-47849435D01*
X275533719Y-47891535D01*
X275503436Y-47928436D01*
X275466535Y-47958719D01*
X275424435Y-47981223D01*
X275378755Y-47995080D01*
X275328797Y-48000000D01*
X274671203Y-48000000D01*
X274621245Y-47995080D01*
X274575565Y-47981223D01*
X274533465Y-47958719D01*
X274496564Y-47928436D01*
X274466281Y-47891535D01*
X274443777Y-47849435D01*
X274429920Y-47803755D01*
X274425000Y-47753797D01*
X274425000Y-47171203D01*
X274429920Y-47121245D01*
X274443777Y-47075565D01*
X274466281Y-47033465D01*
X274496564Y-46996564D01*
X274533465Y-46966281D01*
X274575565Y-46943777D01*
X274621245Y-46929920D01*
X274671203Y-46925000D01*
X275328797Y-46925000D01*
X275378755Y-46929920D01*
G37*
G36*
X281378755Y-46929920D02*
G01*
X281424435Y-46943777D01*
X281466535Y-46966281D01*
X281503436Y-46996564D01*
X281533719Y-47033465D01*
X281556223Y-47075565D01*
X281570080Y-47121245D01*
X281575000Y-47171203D01*
X281575000Y-47753797D01*
X281570080Y-47803755D01*
X281556223Y-47849435D01*
X281533719Y-47891535D01*
X281503436Y-47928436D01*
X281466535Y-47958719D01*
X281424435Y-47981223D01*
X281378755Y-47995080D01*
X281328797Y-48000000D01*
X280671203Y-48000000D01*
X280621245Y-47995080D01*
X280575565Y-47981223D01*
X280533465Y-47958719D01*
X280496564Y-47928436D01*
X280466281Y-47891535D01*
X280443777Y-47849435D01*
X280429920Y-47803755D01*
X280425000Y-47753797D01*
X280425000Y-47171203D01*
X280429920Y-47121245D01*
X280443777Y-47075565D01*
X280466281Y-47033465D01*
X280496564Y-46996564D01*
X280533465Y-46966281D01*
X280575565Y-46943777D01*
X280621245Y-46929920D01*
X280671203Y-46925000D01*
X281328797Y-46925000D01*
X281378755Y-46929920D01*
G37*
M02*
