G04 #@! TF.GenerationSoftware,KiCad,Pcbnew,(5.1.6)-1*
G04 #@! TF.CreationDate,2020-07-16T00:26:13+02:00*
G04 #@! TF.ProjectId,Hauptplatine,48617570-7470-46c6-9174-696e652e6b69,0*
G04 #@! TF.SameCoordinates,Original*
G04 #@! TF.FileFunction,Copper,L4,Bot*
G04 #@! TF.FilePolarity,Positive*
%FSLAX46Y46*%
G04 Gerber Fmt 4.6, Leading zero omitted, Abs format (unit mm)*
G04 Created by KiCad (PCBNEW (5.1.6)-1) date 2020-07-16 00:26:13*
%MOMM*%
%LPD*%
G01*
G04 APERTURE LIST*
G04 #@! TA.AperFunction,ComponentPad*
%ADD10R,1.600000X1.600000*%
G04 #@! TD*
G04 #@! TA.AperFunction,ComponentPad*
%ADD11C,1.600000*%
G04 #@! TD*
G04 #@! TA.AperFunction,ViaPad*
%ADD12C,0.600000*%
G04 #@! TD*
G04 #@! TA.AperFunction,ViaPad*
%ADD13C,0.500000*%
G04 #@! TD*
G04 #@! TA.AperFunction,ComponentPad*
%ADD14R,1.700000X1.700000*%
G04 #@! TD*
G04 #@! TA.AperFunction,ComponentPad*
%ADD15O,1.700000X1.700000*%
G04 #@! TD*
G04 #@! TA.AperFunction,ComponentPad*
%ADD16O,4.000000X1.800000*%
G04 #@! TD*
G04 #@! TA.AperFunction,ComponentPad*
%ADD17O,1.800000X4.000000*%
G04 #@! TD*
G04 #@! TA.AperFunction,ComponentPad*
%ADD18R,1.800000X4.400000*%
G04 #@! TD*
G04 #@! TA.AperFunction,ComponentPad*
%ADD19C,3.000000*%
G04 #@! TD*
G04 #@! TA.AperFunction,ComponentPad*
%ADD20R,1.727200X1.727200*%
G04 #@! TD*
G04 #@! TA.AperFunction,ComponentPad*
%ADD21O,1.727200X1.727200*%
G04 #@! TD*
G04 #@! TA.AperFunction,SMDPad,CuDef*
%ADD22R,2.184400X6.299200*%
G04 #@! TD*
G04 #@! TA.AperFunction,ComponentPad*
%ADD23C,2.800000*%
G04 #@! TD*
G04 #@! TA.AperFunction,ComponentPad*
%ADD24C,2.500000*%
G04 #@! TD*
G04 #@! TA.AperFunction,ComponentPad*
%ADD25R,1.800000X1.800000*%
G04 #@! TD*
G04 #@! TA.AperFunction,ComponentPad*
%ADD26C,1.800000*%
G04 #@! TD*
G04 #@! TA.AperFunction,ComponentPad*
%ADD27R,2.000000X2.000000*%
G04 #@! TD*
G04 #@! TA.AperFunction,ComponentPad*
%ADD28C,2.000000*%
G04 #@! TD*
G04 #@! TA.AperFunction,ViaPad*
%ADD29C,0.800000*%
G04 #@! TD*
G04 #@! TA.AperFunction,ViaPad*
%ADD30C,1.200000*%
G04 #@! TD*
G04 #@! TA.AperFunction,ViaPad*
%ADD31C,0.900000*%
G04 #@! TD*
G04 #@! TA.AperFunction,Conductor*
%ADD32C,0.500000*%
G04 #@! TD*
G04 #@! TA.AperFunction,Conductor*
%ADD33C,0.250000*%
G04 #@! TD*
G04 #@! TA.AperFunction,Conductor*
%ADD34C,0.350000*%
G04 #@! TD*
G04 #@! TA.AperFunction,Conductor*
%ADD35C,0.200000*%
G04 #@! TD*
G04 #@! TA.AperFunction,Conductor*
%ADD36C,0.100000*%
G04 #@! TD*
G04 APERTURE END LIST*
G04 #@! TA.AperFunction,SMDPad,CuDef*
G36*
G01*
X277550000Y-47793750D02*
X277550000Y-48706250D01*
G75*
G02*
X277306250Y-48950000I-243750J0D01*
G01*
X276818750Y-48950000D01*
G75*
G02*
X276575000Y-48706250I0J243750D01*
G01*
X276575000Y-47793750D01*
G75*
G02*
X276818750Y-47550000I243750J0D01*
G01*
X277306250Y-47550000D01*
G75*
G02*
X277550000Y-47793750I0J-243750D01*
G01*
G37*
G04 #@! TD.AperFunction*
G04 #@! TA.AperFunction,SMDPad,CuDef*
G36*
G01*
X279425000Y-47793750D02*
X279425000Y-48706250D01*
G75*
G02*
X279181250Y-48950000I-243750J0D01*
G01*
X278693750Y-48950000D01*
G75*
G02*
X278450000Y-48706250I0J243750D01*
G01*
X278450000Y-47793750D01*
G75*
G02*
X278693750Y-47550000I243750J0D01*
G01*
X279181250Y-47550000D01*
G75*
G02*
X279425000Y-47793750I0J-243750D01*
G01*
G37*
G04 #@! TD.AperFunction*
G04 #@! TA.AperFunction,SMDPad,CuDef*
G36*
G01*
X176956250Y-101050000D02*
X176043750Y-101050000D01*
G75*
G02*
X175800000Y-100806250I0J243750D01*
G01*
X175800000Y-100318750D01*
G75*
G02*
X176043750Y-100075000I243750J0D01*
G01*
X176956250Y-100075000D01*
G75*
G02*
X177200000Y-100318750I0J-243750D01*
G01*
X177200000Y-100806250D01*
G75*
G02*
X176956250Y-101050000I-243750J0D01*
G01*
G37*
G04 #@! TD.AperFunction*
G04 #@! TA.AperFunction,SMDPad,CuDef*
G36*
G01*
X176956250Y-102925000D02*
X176043750Y-102925000D01*
G75*
G02*
X175800000Y-102681250I0J243750D01*
G01*
X175800000Y-102193750D01*
G75*
G02*
X176043750Y-101950000I243750J0D01*
G01*
X176956250Y-101950000D01*
G75*
G02*
X177200000Y-102193750I0J-243750D01*
G01*
X177200000Y-102681250D01*
G75*
G02*
X176956250Y-102925000I-243750J0D01*
G01*
G37*
G04 #@! TD.AperFunction*
G04 #@! TA.AperFunction,SMDPad,CuDef*
G36*
G01*
X275256250Y-47900000D02*
X274743750Y-47900000D01*
G75*
G02*
X274525000Y-47681250I0J218750D01*
G01*
X274525000Y-47243750D01*
G75*
G02*
X274743750Y-47025000I218750J0D01*
G01*
X275256250Y-47025000D01*
G75*
G02*
X275475000Y-47243750I0J-218750D01*
G01*
X275475000Y-47681250D01*
G75*
G02*
X275256250Y-47900000I-218750J0D01*
G01*
G37*
G04 #@! TD.AperFunction*
G04 #@! TA.AperFunction,SMDPad,CuDef*
G36*
G01*
X275256250Y-49475000D02*
X274743750Y-49475000D01*
G75*
G02*
X274525000Y-49256250I0J218750D01*
G01*
X274525000Y-48818750D01*
G75*
G02*
X274743750Y-48600000I218750J0D01*
G01*
X275256250Y-48600000D01*
G75*
G02*
X275475000Y-48818750I0J-218750D01*
G01*
X275475000Y-49256250D01*
G75*
G02*
X275256250Y-49475000I-218750J0D01*
G01*
G37*
G04 #@! TD.AperFunction*
G04 #@! TA.AperFunction,SMDPad,CuDef*
G36*
G01*
X281256250Y-47900000D02*
X280743750Y-47900000D01*
G75*
G02*
X280525000Y-47681250I0J218750D01*
G01*
X280525000Y-47243750D01*
G75*
G02*
X280743750Y-47025000I218750J0D01*
G01*
X281256250Y-47025000D01*
G75*
G02*
X281475000Y-47243750I0J-218750D01*
G01*
X281475000Y-47681250D01*
G75*
G02*
X281256250Y-47900000I-218750J0D01*
G01*
G37*
G04 #@! TD.AperFunction*
G04 #@! TA.AperFunction,SMDPad,CuDef*
G36*
G01*
X281256250Y-49475000D02*
X280743750Y-49475000D01*
G75*
G02*
X280525000Y-49256250I0J218750D01*
G01*
X280525000Y-48818750D01*
G75*
G02*
X280743750Y-48600000I218750J0D01*
G01*
X281256250Y-48600000D01*
G75*
G02*
X281475000Y-48818750I0J-218750D01*
G01*
X281475000Y-49256250D01*
G75*
G02*
X281256250Y-49475000I-218750J0D01*
G01*
G37*
G04 #@! TD.AperFunction*
G04 #@! TA.AperFunction,SMDPad,CuDef*
G36*
G01*
X178043750Y-101950000D02*
X178956250Y-101950000D01*
G75*
G02*
X179200000Y-102193750I0J-243750D01*
G01*
X179200000Y-102681250D01*
G75*
G02*
X178956250Y-102925000I-243750J0D01*
G01*
X178043750Y-102925000D01*
G75*
G02*
X177800000Y-102681250I0J243750D01*
G01*
X177800000Y-102193750D01*
G75*
G02*
X178043750Y-101950000I243750J0D01*
G01*
G37*
G04 #@! TD.AperFunction*
G04 #@! TA.AperFunction,SMDPad,CuDef*
G36*
G01*
X178043750Y-100075000D02*
X178956250Y-100075000D01*
G75*
G02*
X179200000Y-100318750I0J-243750D01*
G01*
X179200000Y-100806250D01*
G75*
G02*
X178956250Y-101050000I-243750J0D01*
G01*
X178043750Y-101050000D01*
G75*
G02*
X177800000Y-100806250I0J243750D01*
G01*
X177800000Y-100318750D01*
G75*
G02*
X178043750Y-100075000I243750J0D01*
G01*
G37*
G04 #@! TD.AperFunction*
D10*
X190750000Y-180500000D03*
D11*
X193250000Y-180500000D03*
D12*
X117500000Y-52250000D03*
X117500000Y-53000000D03*
X117500000Y-53750000D03*
X116750000Y-52250000D03*
X116750000Y-53000000D03*
X116750000Y-53750000D03*
X116000000Y-52250000D03*
X116000000Y-53000000D03*
X116000000Y-53750000D03*
G04 #@! TA.AperFunction,Conductor*
G36*
G01*
X115950000Y-51950000D02*
X117550000Y-51950000D01*
G75*
G02*
X117800000Y-52200000I0J-250000D01*
G01*
X117800000Y-53800000D01*
G75*
G02*
X117550000Y-54050000I-250000J0D01*
G01*
X115950000Y-54050000D01*
G75*
G02*
X115700000Y-53800000I0J250000D01*
G01*
X115700000Y-52200000D01*
G75*
G02*
X115950000Y-51950000I250000J0D01*
G01*
G37*
G04 #@! TD.AperFunction*
D13*
X117800000Y-66800000D03*
X116750000Y-66800000D03*
X115700000Y-66800000D03*
X117800000Y-65750000D03*
X116750000Y-65750000D03*
X115700000Y-65750000D03*
X117800000Y-64700000D03*
X116750000Y-64700000D03*
X115700000Y-64700000D03*
G04 #@! TA.AperFunction,Conductor*
G36*
G01*
X118050000Y-64700000D02*
X118050000Y-66800000D01*
G75*
G02*
X117800000Y-67050000I-250000J0D01*
G01*
X115700000Y-67050000D01*
G75*
G02*
X115450000Y-66800000I0J250000D01*
G01*
X115450000Y-64700000D01*
G75*
G02*
X115700000Y-64450000I250000J0D01*
G01*
X117800000Y-64450000D01*
G75*
G02*
X118050000Y-64700000I0J-250000D01*
G01*
G37*
G04 #@! TD.AperFunction*
G04 #@! TA.AperFunction,Conductor*
G36*
G01*
X192073223Y-59732411D02*
X190517589Y-58176777D01*
G75*
G02*
X190517589Y-57823223I176777J176777D01*
G01*
X192073223Y-56267589D01*
G75*
G02*
X192426777Y-56267589I176777J-176777D01*
G01*
X193982411Y-57823223D01*
G75*
G02*
X193982411Y-58176777I-176777J-176777D01*
G01*
X192426777Y-59732411D01*
G75*
G02*
X192073223Y-59732411I-176777J176777D01*
G01*
G37*
G04 #@! TD.AperFunction*
X193805635Y-58000000D03*
X193027817Y-58777817D03*
X192250000Y-59555635D03*
X193027817Y-57222183D03*
X192250000Y-58000000D03*
X191472183Y-58777817D03*
X192250000Y-56444365D03*
X191472183Y-57222183D03*
X190694365Y-58000000D03*
G04 #@! TA.AperFunction,Conductor*
G36*
G01*
X277017589Y-58323223D02*
X278573223Y-56767589D01*
G75*
G02*
X278926777Y-56767589I176777J-176777D01*
G01*
X280482411Y-58323223D01*
G75*
G02*
X280482411Y-58676777I-176777J-176777D01*
G01*
X278926777Y-60232411D01*
G75*
G02*
X278573223Y-60232411I-176777J176777D01*
G01*
X277017589Y-58676777D01*
G75*
G02*
X277017589Y-58323223I176777J176777D01*
G01*
G37*
G04 #@! TD.AperFunction*
X278750000Y-60055635D03*
X277972183Y-59277817D03*
X277194365Y-58500000D03*
X279527817Y-59277817D03*
X278750000Y-58500000D03*
X277972183Y-57722183D03*
X280305635Y-58500000D03*
X279527817Y-57722183D03*
X278750000Y-56944365D03*
X271750000Y-121500000D03*
X271750000Y-120500000D03*
X271750000Y-119500000D03*
X272750000Y-121500000D03*
X272750000Y-120500000D03*
X272750000Y-119500000D03*
X273750000Y-121500000D03*
X273750000Y-120500000D03*
X273750000Y-119500000D03*
G04 #@! TA.AperFunction,Conductor*
G36*
G01*
X273750000Y-121750000D02*
X271750000Y-121750000D01*
G75*
G02*
X271500000Y-121500000I0J250000D01*
G01*
X271500000Y-119500000D01*
G75*
G02*
X271750000Y-119250000I250000J0D01*
G01*
X273750000Y-119250000D01*
G75*
G02*
X274000000Y-119500000I0J-250000D01*
G01*
X274000000Y-121500000D01*
G75*
G02*
X273750000Y-121750000I-250000J0D01*
G01*
G37*
G04 #@! TD.AperFunction*
D12*
X284075000Y-120075000D03*
X284925000Y-120075000D03*
X284075000Y-120925000D03*
X284925000Y-120925000D03*
G04 #@! TA.AperFunction,Conductor*
G36*
G01*
X283775000Y-120975000D02*
X283775000Y-120025000D01*
G75*
G02*
X284025000Y-119775000I250000J0D01*
G01*
X284975000Y-119775000D01*
G75*
G02*
X285225000Y-120025000I0J-250000D01*
G01*
X285225000Y-120975000D01*
G75*
G02*
X284975000Y-121225000I-250000J0D01*
G01*
X284025000Y-121225000D01*
G75*
G02*
X283775000Y-120975000I0J250000D01*
G01*
G37*
G04 #@! TD.AperFunction*
D14*
X180710000Y-166500000D03*
D15*
X183250000Y-166500000D03*
X185790000Y-166500000D03*
D16*
X311500000Y-175200000D03*
D17*
X314300000Y-180000000D03*
D18*
X308500000Y-180000000D03*
D19*
X311710000Y-145430000D03*
X311710000Y-158570000D03*
D10*
X309000000Y-155500000D03*
D11*
X309000000Y-153000000D03*
X309000000Y-151000000D03*
X309000000Y-148500000D03*
D20*
X182000000Y-175460000D03*
D21*
X184540000Y-175460000D03*
X182000000Y-178000000D03*
X184540000Y-178000000D03*
X182000000Y-180540000D03*
X184540000Y-180540000D03*
D22*
X105592200Y-65000000D03*
D23*
X109790000Y-182290000D03*
X104710000Y-182290000D03*
X109790000Y-177210000D03*
X104710000Y-177210000D03*
D24*
X107250000Y-179750000D03*
G04 #@! TA.AperFunction,SMDPad,CuDef*
G36*
G01*
X186043750Y-100075000D02*
X186956250Y-100075000D01*
G75*
G02*
X187200000Y-100318750I0J-243750D01*
G01*
X187200000Y-100806250D01*
G75*
G02*
X186956250Y-101050000I-243750J0D01*
G01*
X186043750Y-101050000D01*
G75*
G02*
X185800000Y-100806250I0J243750D01*
G01*
X185800000Y-100318750D01*
G75*
G02*
X186043750Y-100075000I243750J0D01*
G01*
G37*
G04 #@! TD.AperFunction*
G04 #@! TA.AperFunction,SMDPad,CuDef*
G36*
G01*
X186043750Y-101950000D02*
X186956250Y-101950000D01*
G75*
G02*
X187200000Y-102193750I0J-243750D01*
G01*
X187200000Y-102681250D01*
G75*
G02*
X186956250Y-102925000I-243750J0D01*
G01*
X186043750Y-102925000D01*
G75*
G02*
X185800000Y-102681250I0J243750D01*
G01*
X185800000Y-102193750D01*
G75*
G02*
X186043750Y-101950000I243750J0D01*
G01*
G37*
G04 #@! TD.AperFunction*
G04 #@! TA.AperFunction,SMDPad,CuDef*
G36*
G01*
X277206250Y-102925000D02*
X276293750Y-102925000D01*
G75*
G02*
X276050000Y-102681250I0J243750D01*
G01*
X276050000Y-102193750D01*
G75*
G02*
X276293750Y-101950000I243750J0D01*
G01*
X277206250Y-101950000D01*
G75*
G02*
X277450000Y-102193750I0J-243750D01*
G01*
X277450000Y-102681250D01*
G75*
G02*
X277206250Y-102925000I-243750J0D01*
G01*
G37*
G04 #@! TD.AperFunction*
G04 #@! TA.AperFunction,SMDPad,CuDef*
G36*
G01*
X277206250Y-101050000D02*
X276293750Y-101050000D01*
G75*
G02*
X276050000Y-100806250I0J243750D01*
G01*
X276050000Y-100318750D01*
G75*
G02*
X276293750Y-100075000I243750J0D01*
G01*
X277206250Y-100075000D01*
G75*
G02*
X277450000Y-100318750I0J-243750D01*
G01*
X277450000Y-100806250D01*
G75*
G02*
X277206250Y-101050000I-243750J0D01*
G01*
G37*
G04 #@! TD.AperFunction*
G04 #@! TA.AperFunction,SMDPad,CuDef*
G36*
G01*
X190043750Y-100075000D02*
X190956250Y-100075000D01*
G75*
G02*
X191200000Y-100318750I0J-243750D01*
G01*
X191200000Y-100806250D01*
G75*
G02*
X190956250Y-101050000I-243750J0D01*
G01*
X190043750Y-101050000D01*
G75*
G02*
X189800000Y-100806250I0J243750D01*
G01*
X189800000Y-100318750D01*
G75*
G02*
X190043750Y-100075000I243750J0D01*
G01*
G37*
G04 #@! TD.AperFunction*
G04 #@! TA.AperFunction,SMDPad,CuDef*
G36*
G01*
X190043750Y-101950000D02*
X190956250Y-101950000D01*
G75*
G02*
X191200000Y-102193750I0J-243750D01*
G01*
X191200000Y-102681250D01*
G75*
G02*
X190956250Y-102925000I-243750J0D01*
G01*
X190043750Y-102925000D01*
G75*
G02*
X189800000Y-102681250I0J243750D01*
G01*
X189800000Y-102193750D01*
G75*
G02*
X190043750Y-101950000I243750J0D01*
G01*
G37*
G04 #@! TD.AperFunction*
G04 #@! TA.AperFunction,SMDPad,CuDef*
G36*
G01*
X281206250Y-102925000D02*
X280293750Y-102925000D01*
G75*
G02*
X280050000Y-102681250I0J243750D01*
G01*
X280050000Y-102193750D01*
G75*
G02*
X280293750Y-101950000I243750J0D01*
G01*
X281206250Y-101950000D01*
G75*
G02*
X281450000Y-102193750I0J-243750D01*
G01*
X281450000Y-102681250D01*
G75*
G02*
X281206250Y-102925000I-243750J0D01*
G01*
G37*
G04 #@! TD.AperFunction*
G04 #@! TA.AperFunction,SMDPad,CuDef*
G36*
G01*
X281206250Y-101050000D02*
X280293750Y-101050000D01*
G75*
G02*
X280050000Y-100806250I0J243750D01*
G01*
X280050000Y-100318750D01*
G75*
G02*
X280293750Y-100075000I243750J0D01*
G01*
X281206250Y-100075000D01*
G75*
G02*
X281450000Y-100318750I0J-243750D01*
G01*
X281450000Y-100806250D01*
G75*
G02*
X281206250Y-101050000I-243750J0D01*
G01*
G37*
G04 #@! TD.AperFunction*
G04 #@! TA.AperFunction,SMDPad,CuDef*
G36*
G01*
X194043750Y-100075000D02*
X194956250Y-100075000D01*
G75*
G02*
X195200000Y-100318750I0J-243750D01*
G01*
X195200000Y-100806250D01*
G75*
G02*
X194956250Y-101050000I-243750J0D01*
G01*
X194043750Y-101050000D01*
G75*
G02*
X193800000Y-100806250I0J243750D01*
G01*
X193800000Y-100318750D01*
G75*
G02*
X194043750Y-100075000I243750J0D01*
G01*
G37*
G04 #@! TD.AperFunction*
G04 #@! TA.AperFunction,SMDPad,CuDef*
G36*
G01*
X194043750Y-101950000D02*
X194956250Y-101950000D01*
G75*
G02*
X195200000Y-102193750I0J-243750D01*
G01*
X195200000Y-102681250D01*
G75*
G02*
X194956250Y-102925000I-243750J0D01*
G01*
X194043750Y-102925000D01*
G75*
G02*
X193800000Y-102681250I0J243750D01*
G01*
X193800000Y-102193750D01*
G75*
G02*
X194043750Y-101950000I243750J0D01*
G01*
G37*
G04 #@! TD.AperFunction*
G04 #@! TA.AperFunction,SMDPad,CuDef*
G36*
G01*
X285206250Y-102925000D02*
X284293750Y-102925000D01*
G75*
G02*
X284050000Y-102681250I0J243750D01*
G01*
X284050000Y-102193750D01*
G75*
G02*
X284293750Y-101950000I243750J0D01*
G01*
X285206250Y-101950000D01*
G75*
G02*
X285450000Y-102193750I0J-243750D01*
G01*
X285450000Y-102681250D01*
G75*
G02*
X285206250Y-102925000I-243750J0D01*
G01*
G37*
G04 #@! TD.AperFunction*
G04 #@! TA.AperFunction,SMDPad,CuDef*
G36*
G01*
X285206250Y-101050000D02*
X284293750Y-101050000D01*
G75*
G02*
X284050000Y-100806250I0J243750D01*
G01*
X284050000Y-100318750D01*
G75*
G02*
X284293750Y-100075000I243750J0D01*
G01*
X285206250Y-100075000D01*
G75*
G02*
X285450000Y-100318750I0J-243750D01*
G01*
X285450000Y-100806250D01*
G75*
G02*
X285206250Y-101050000I-243750J0D01*
G01*
G37*
G04 #@! TD.AperFunction*
G04 #@! TA.AperFunction,SMDPad,CuDef*
G36*
G01*
X186543750Y-60950000D02*
X187456250Y-60950000D01*
G75*
G02*
X187700000Y-61193750I0J-243750D01*
G01*
X187700000Y-61681250D01*
G75*
G02*
X187456250Y-61925000I-243750J0D01*
G01*
X186543750Y-61925000D01*
G75*
G02*
X186300000Y-61681250I0J243750D01*
G01*
X186300000Y-61193750D01*
G75*
G02*
X186543750Y-60950000I243750J0D01*
G01*
G37*
G04 #@! TD.AperFunction*
G04 #@! TA.AperFunction,SMDPad,CuDef*
G36*
G01*
X186543750Y-59075000D02*
X187456250Y-59075000D01*
G75*
G02*
X187700000Y-59318750I0J-243750D01*
G01*
X187700000Y-59806250D01*
G75*
G02*
X187456250Y-60050000I-243750J0D01*
G01*
X186543750Y-60050000D01*
G75*
G02*
X186300000Y-59806250I0J243750D01*
G01*
X186300000Y-59318750D01*
G75*
G02*
X186543750Y-59075000I243750J0D01*
G01*
G37*
G04 #@! TD.AperFunction*
G04 #@! TA.AperFunction,SMDPad,CuDef*
G36*
G01*
X283543750Y-61012500D02*
X284456250Y-61012500D01*
G75*
G02*
X284700000Y-61256250I0J-243750D01*
G01*
X284700000Y-61743750D01*
G75*
G02*
X284456250Y-61987500I-243750J0D01*
G01*
X283543750Y-61987500D01*
G75*
G02*
X283300000Y-61743750I0J243750D01*
G01*
X283300000Y-61256250D01*
G75*
G02*
X283543750Y-61012500I243750J0D01*
G01*
G37*
G04 #@! TD.AperFunction*
G04 #@! TA.AperFunction,SMDPad,CuDef*
G36*
G01*
X283543750Y-59137500D02*
X284456250Y-59137500D01*
G75*
G02*
X284700000Y-59381250I0J-243750D01*
G01*
X284700000Y-59868750D01*
G75*
G02*
X284456250Y-60112500I-243750J0D01*
G01*
X283543750Y-60112500D01*
G75*
G02*
X283300000Y-59868750I0J243750D01*
G01*
X283300000Y-59381250D01*
G75*
G02*
X283543750Y-59137500I243750J0D01*
G01*
G37*
G04 #@! TD.AperFunction*
D25*
X106250000Y-164290000D03*
D26*
X106250000Y-161750000D03*
X106250000Y-159210000D03*
D10*
X228750000Y-171500000D03*
D11*
X230750000Y-171500000D03*
D10*
X246750000Y-165500000D03*
D11*
X248750000Y-165500000D03*
D10*
X287250000Y-180000000D03*
D11*
X289750000Y-180000000D03*
D27*
X293500000Y-174500000D03*
D28*
X298500000Y-174500000D03*
D10*
X209250000Y-171500000D03*
D11*
X211250000Y-171500000D03*
D10*
X218750000Y-171500000D03*
D11*
X221250000Y-171500000D03*
D10*
X246850000Y-171500000D03*
D11*
X248850000Y-171500000D03*
D10*
X279750000Y-180000000D03*
D11*
X282250000Y-180000000D03*
D27*
X293500000Y-185500000D03*
D28*
X298500000Y-185500000D03*
G04 #@! TA.AperFunction,SMDPad,CuDef*
G36*
G01*
X188043750Y-100075000D02*
X188956250Y-100075000D01*
G75*
G02*
X189200000Y-100318750I0J-243750D01*
G01*
X189200000Y-100806250D01*
G75*
G02*
X188956250Y-101050000I-243750J0D01*
G01*
X188043750Y-101050000D01*
G75*
G02*
X187800000Y-100806250I0J243750D01*
G01*
X187800000Y-100318750D01*
G75*
G02*
X188043750Y-100075000I243750J0D01*
G01*
G37*
G04 #@! TD.AperFunction*
G04 #@! TA.AperFunction,SMDPad,CuDef*
G36*
G01*
X188043750Y-101950000D02*
X188956250Y-101950000D01*
G75*
G02*
X189200000Y-102193750I0J-243750D01*
G01*
X189200000Y-102681250D01*
G75*
G02*
X188956250Y-102925000I-243750J0D01*
G01*
X188043750Y-102925000D01*
G75*
G02*
X187800000Y-102681250I0J243750D01*
G01*
X187800000Y-102193750D01*
G75*
G02*
X188043750Y-101950000I243750J0D01*
G01*
G37*
G04 #@! TD.AperFunction*
G04 #@! TA.AperFunction,SMDPad,CuDef*
G36*
G01*
X192043750Y-100075000D02*
X192956250Y-100075000D01*
G75*
G02*
X193200000Y-100318750I0J-243750D01*
G01*
X193200000Y-100806250D01*
G75*
G02*
X192956250Y-101050000I-243750J0D01*
G01*
X192043750Y-101050000D01*
G75*
G02*
X191800000Y-100806250I0J243750D01*
G01*
X191800000Y-100318750D01*
G75*
G02*
X192043750Y-100075000I243750J0D01*
G01*
G37*
G04 #@! TD.AperFunction*
G04 #@! TA.AperFunction,SMDPad,CuDef*
G36*
G01*
X192043750Y-101950000D02*
X192956250Y-101950000D01*
G75*
G02*
X193200000Y-102193750I0J-243750D01*
G01*
X193200000Y-102681250D01*
G75*
G02*
X192956250Y-102925000I-243750J0D01*
G01*
X192043750Y-102925000D01*
G75*
G02*
X191800000Y-102681250I0J243750D01*
G01*
X191800000Y-102193750D01*
G75*
G02*
X192043750Y-101950000I243750J0D01*
G01*
G37*
G04 #@! TD.AperFunction*
G04 #@! TA.AperFunction,SMDPad,CuDef*
G36*
G01*
X196043750Y-100075000D02*
X196956250Y-100075000D01*
G75*
G02*
X197200000Y-100318750I0J-243750D01*
G01*
X197200000Y-100806250D01*
G75*
G02*
X196956250Y-101050000I-243750J0D01*
G01*
X196043750Y-101050000D01*
G75*
G02*
X195800000Y-100806250I0J243750D01*
G01*
X195800000Y-100318750D01*
G75*
G02*
X196043750Y-100075000I243750J0D01*
G01*
G37*
G04 #@! TD.AperFunction*
G04 #@! TA.AperFunction,SMDPad,CuDef*
G36*
G01*
X196043750Y-101950000D02*
X196956250Y-101950000D01*
G75*
G02*
X197200000Y-102193750I0J-243750D01*
G01*
X197200000Y-102681250D01*
G75*
G02*
X196956250Y-102925000I-243750J0D01*
G01*
X196043750Y-102925000D01*
G75*
G02*
X195800000Y-102681250I0J243750D01*
G01*
X195800000Y-102193750D01*
G75*
G02*
X196043750Y-101950000I243750J0D01*
G01*
G37*
G04 #@! TD.AperFunction*
G04 #@! TA.AperFunction,SMDPad,CuDef*
G36*
G01*
X282293750Y-100075000D02*
X283206250Y-100075000D01*
G75*
G02*
X283450000Y-100318750I0J-243750D01*
G01*
X283450000Y-100806250D01*
G75*
G02*
X283206250Y-101050000I-243750J0D01*
G01*
X282293750Y-101050000D01*
G75*
G02*
X282050000Y-100806250I0J243750D01*
G01*
X282050000Y-100318750D01*
G75*
G02*
X282293750Y-100075000I243750J0D01*
G01*
G37*
G04 #@! TD.AperFunction*
G04 #@! TA.AperFunction,SMDPad,CuDef*
G36*
G01*
X282293750Y-101950000D02*
X283206250Y-101950000D01*
G75*
G02*
X283450000Y-102193750I0J-243750D01*
G01*
X283450000Y-102681250D01*
G75*
G02*
X283206250Y-102925000I-243750J0D01*
G01*
X282293750Y-102925000D01*
G75*
G02*
X282050000Y-102681250I0J243750D01*
G01*
X282050000Y-102193750D01*
G75*
G02*
X282293750Y-101950000I243750J0D01*
G01*
G37*
G04 #@! TD.AperFunction*
G04 #@! TA.AperFunction,SMDPad,CuDef*
G36*
G01*
X278293750Y-100075000D02*
X279206250Y-100075000D01*
G75*
G02*
X279450000Y-100318750I0J-243750D01*
G01*
X279450000Y-100806250D01*
G75*
G02*
X279206250Y-101050000I-243750J0D01*
G01*
X278293750Y-101050000D01*
G75*
G02*
X278050000Y-100806250I0J243750D01*
G01*
X278050000Y-100318750D01*
G75*
G02*
X278293750Y-100075000I243750J0D01*
G01*
G37*
G04 #@! TD.AperFunction*
G04 #@! TA.AperFunction,SMDPad,CuDef*
G36*
G01*
X278293750Y-101950000D02*
X279206250Y-101950000D01*
G75*
G02*
X279450000Y-102193750I0J-243750D01*
G01*
X279450000Y-102681250D01*
G75*
G02*
X279206250Y-102925000I-243750J0D01*
G01*
X278293750Y-102925000D01*
G75*
G02*
X278050000Y-102681250I0J243750D01*
G01*
X278050000Y-102193750D01*
G75*
G02*
X278293750Y-101950000I243750J0D01*
G01*
G37*
G04 #@! TD.AperFunction*
G04 #@! TA.AperFunction,SMDPad,CuDef*
G36*
G01*
X274293750Y-100075000D02*
X275206250Y-100075000D01*
G75*
G02*
X275450000Y-100318750I0J-243750D01*
G01*
X275450000Y-100806250D01*
G75*
G02*
X275206250Y-101050000I-243750J0D01*
G01*
X274293750Y-101050000D01*
G75*
G02*
X274050000Y-100806250I0J243750D01*
G01*
X274050000Y-100318750D01*
G75*
G02*
X274293750Y-100075000I243750J0D01*
G01*
G37*
G04 #@! TD.AperFunction*
G04 #@! TA.AperFunction,SMDPad,CuDef*
G36*
G01*
X274293750Y-101950000D02*
X275206250Y-101950000D01*
G75*
G02*
X275450000Y-102193750I0J-243750D01*
G01*
X275450000Y-102681250D01*
G75*
G02*
X275206250Y-102925000I-243750J0D01*
G01*
X274293750Y-102925000D01*
G75*
G02*
X274050000Y-102681250I0J243750D01*
G01*
X274050000Y-102193750D01*
G75*
G02*
X274293750Y-101950000I243750J0D01*
G01*
G37*
G04 #@! TD.AperFunction*
G04 #@! TA.AperFunction,SMDPad,CuDef*
G36*
G01*
X186650000Y-65243750D02*
X186650000Y-65756250D01*
G75*
G02*
X186431250Y-65975000I-218750J0D01*
G01*
X185993750Y-65975000D01*
G75*
G02*
X185775000Y-65756250I0J218750D01*
G01*
X185775000Y-65243750D01*
G75*
G02*
X185993750Y-65025000I218750J0D01*
G01*
X186431250Y-65025000D01*
G75*
G02*
X186650000Y-65243750I0J-218750D01*
G01*
G37*
G04 #@! TD.AperFunction*
G04 #@! TA.AperFunction,SMDPad,CuDef*
G36*
G01*
X188225000Y-65243750D02*
X188225000Y-65756250D01*
G75*
G02*
X188006250Y-65975000I-218750J0D01*
G01*
X187568750Y-65975000D01*
G75*
G02*
X187350000Y-65756250I0J218750D01*
G01*
X187350000Y-65243750D01*
G75*
G02*
X187568750Y-65025000I218750J0D01*
G01*
X188006250Y-65025000D01*
G75*
G02*
X188225000Y-65243750I0J-218750D01*
G01*
G37*
G04 #@! TD.AperFunction*
G04 #@! TA.AperFunction,SMDPad,CuDef*
G36*
G01*
X186650000Y-63243750D02*
X186650000Y-63756250D01*
G75*
G02*
X186431250Y-63975000I-218750J0D01*
G01*
X185993750Y-63975000D01*
G75*
G02*
X185775000Y-63756250I0J218750D01*
G01*
X185775000Y-63243750D01*
G75*
G02*
X185993750Y-63025000I218750J0D01*
G01*
X186431250Y-63025000D01*
G75*
G02*
X186650000Y-63243750I0J-218750D01*
G01*
G37*
G04 #@! TD.AperFunction*
G04 #@! TA.AperFunction,SMDPad,CuDef*
G36*
G01*
X188225000Y-63243750D02*
X188225000Y-63756250D01*
G75*
G02*
X188006250Y-63975000I-218750J0D01*
G01*
X187568750Y-63975000D01*
G75*
G02*
X187350000Y-63756250I0J218750D01*
G01*
X187350000Y-63243750D01*
G75*
G02*
X187568750Y-63025000I218750J0D01*
G01*
X188006250Y-63025000D01*
G75*
G02*
X188225000Y-63243750I0J-218750D01*
G01*
G37*
G04 #@! TD.AperFunction*
G04 #@! TA.AperFunction,SMDPad,CuDef*
G36*
G01*
X186650000Y-57243750D02*
X186650000Y-57756250D01*
G75*
G02*
X186431250Y-57975000I-218750J0D01*
G01*
X185993750Y-57975000D01*
G75*
G02*
X185775000Y-57756250I0J218750D01*
G01*
X185775000Y-57243750D01*
G75*
G02*
X185993750Y-57025000I218750J0D01*
G01*
X186431250Y-57025000D01*
G75*
G02*
X186650000Y-57243750I0J-218750D01*
G01*
G37*
G04 #@! TD.AperFunction*
G04 #@! TA.AperFunction,SMDPad,CuDef*
G36*
G01*
X188225000Y-57243750D02*
X188225000Y-57756250D01*
G75*
G02*
X188006250Y-57975000I-218750J0D01*
G01*
X187568750Y-57975000D01*
G75*
G02*
X187350000Y-57756250I0J218750D01*
G01*
X187350000Y-57243750D01*
G75*
G02*
X187568750Y-57025000I218750J0D01*
G01*
X188006250Y-57025000D01*
G75*
G02*
X188225000Y-57243750I0J-218750D01*
G01*
G37*
G04 #@! TD.AperFunction*
G04 #@! TA.AperFunction,SMDPad,CuDef*
G36*
G01*
X284350000Y-65756250D02*
X284350000Y-65243750D01*
G75*
G02*
X284568750Y-65025000I218750J0D01*
G01*
X285006250Y-65025000D01*
G75*
G02*
X285225000Y-65243750I0J-218750D01*
G01*
X285225000Y-65756250D01*
G75*
G02*
X285006250Y-65975000I-218750J0D01*
G01*
X284568750Y-65975000D01*
G75*
G02*
X284350000Y-65756250I0J218750D01*
G01*
G37*
G04 #@! TD.AperFunction*
G04 #@! TA.AperFunction,SMDPad,CuDef*
G36*
G01*
X282775000Y-65756250D02*
X282775000Y-65243750D01*
G75*
G02*
X282993750Y-65025000I218750J0D01*
G01*
X283431250Y-65025000D01*
G75*
G02*
X283650000Y-65243750I0J-218750D01*
G01*
X283650000Y-65756250D01*
G75*
G02*
X283431250Y-65975000I-218750J0D01*
G01*
X282993750Y-65975000D01*
G75*
G02*
X282775000Y-65756250I0J218750D01*
G01*
G37*
G04 #@! TD.AperFunction*
G04 #@! TA.AperFunction,SMDPad,CuDef*
G36*
G01*
X284350000Y-63756250D02*
X284350000Y-63243750D01*
G75*
G02*
X284568750Y-63025000I218750J0D01*
G01*
X285006250Y-63025000D01*
G75*
G02*
X285225000Y-63243750I0J-218750D01*
G01*
X285225000Y-63756250D01*
G75*
G02*
X285006250Y-63975000I-218750J0D01*
G01*
X284568750Y-63975000D01*
G75*
G02*
X284350000Y-63756250I0J218750D01*
G01*
G37*
G04 #@! TD.AperFunction*
G04 #@! TA.AperFunction,SMDPad,CuDef*
G36*
G01*
X282775000Y-63756250D02*
X282775000Y-63243750D01*
G75*
G02*
X282993750Y-63025000I218750J0D01*
G01*
X283431250Y-63025000D01*
G75*
G02*
X283650000Y-63243750I0J-218750D01*
G01*
X283650000Y-63756250D01*
G75*
G02*
X283431250Y-63975000I-218750J0D01*
G01*
X282993750Y-63975000D01*
G75*
G02*
X282775000Y-63756250I0J218750D01*
G01*
G37*
G04 #@! TD.AperFunction*
G04 #@! TA.AperFunction,SMDPad,CuDef*
G36*
G01*
X284350000Y-57756250D02*
X284350000Y-57243750D01*
G75*
G02*
X284568750Y-57025000I218750J0D01*
G01*
X285006250Y-57025000D01*
G75*
G02*
X285225000Y-57243750I0J-218750D01*
G01*
X285225000Y-57756250D01*
G75*
G02*
X285006250Y-57975000I-218750J0D01*
G01*
X284568750Y-57975000D01*
G75*
G02*
X284350000Y-57756250I0J218750D01*
G01*
G37*
G04 #@! TD.AperFunction*
G04 #@! TA.AperFunction,SMDPad,CuDef*
G36*
G01*
X282775000Y-57756250D02*
X282775000Y-57243750D01*
G75*
G02*
X282993750Y-57025000I218750J0D01*
G01*
X283431250Y-57025000D01*
G75*
G02*
X283650000Y-57243750I0J-218750D01*
G01*
X283650000Y-57756250D01*
G75*
G02*
X283431250Y-57975000I-218750J0D01*
G01*
X282993750Y-57975000D01*
G75*
G02*
X282775000Y-57756250I0J218750D01*
G01*
G37*
G04 #@! TD.AperFunction*
D10*
X146250000Y-128000000D03*
D11*
X148250000Y-128000000D03*
D29*
X261287500Y-115250000D03*
X168250000Y-190812500D03*
X144187500Y-171500000D03*
X110500000Y-87937500D03*
X140062500Y-137250000D03*
X136562500Y-165200000D03*
X122750000Y-174500000D03*
X283750000Y-159312500D03*
X216787500Y-129250000D03*
X187787500Y-56250000D03*
X255250000Y-140000000D03*
X108537500Y-55000000D03*
X121250000Y-68750000D03*
X153750000Y-140812500D03*
X310250000Y-47500000D03*
X310250000Y-101500000D03*
X146250000Y-49750000D03*
X153750000Y-102500000D03*
X164500000Y-99250000D03*
X171812500Y-91500000D03*
X283212500Y-56250000D03*
X173312500Y-140250000D03*
X170750000Y-123250000D03*
X109250000Y-134437500D03*
X136687500Y-145500000D03*
X213250000Y-141062500D03*
X123500000Y-112687500D03*
X268787500Y-130000000D03*
X121250000Y-125687500D03*
X258750000Y-131500000D03*
X295000000Y-129500000D03*
X295000000Y-115000000D03*
D12*
X238750000Y-173750000D03*
X238750000Y-172750000D03*
X238750000Y-171750000D03*
X238750000Y-170750000D03*
X238750000Y-169750000D03*
X238750000Y-168750000D03*
X238750000Y-167750000D03*
X238750000Y-166750000D03*
X237750000Y-173750000D03*
X237750000Y-171750000D03*
X237750000Y-172750000D03*
X237750000Y-170750000D03*
X237750000Y-167750000D03*
X237750000Y-168750000D03*
X237750000Y-169750000D03*
X236750000Y-172750000D03*
X236750000Y-171750000D03*
X236750000Y-168750000D03*
X236750000Y-173750000D03*
X236750000Y-167750000D03*
X236750000Y-170750000D03*
X236750000Y-169750000D03*
X235750000Y-168750000D03*
X235750000Y-169750000D03*
X234750000Y-168750000D03*
X234750000Y-169750000D03*
X239750000Y-171750000D03*
X239750000Y-173750000D03*
X239750000Y-167750000D03*
X239750000Y-170750000D03*
X239750000Y-168750000D03*
X239750000Y-169750000D03*
X239750000Y-172750000D03*
X240750000Y-167750000D03*
X240750000Y-168750000D03*
X240750000Y-173750000D03*
X240750000Y-169750000D03*
X240750000Y-170750000D03*
X240750000Y-172750000D03*
X240750000Y-171750000D03*
X239750000Y-165750000D03*
X237750000Y-165750000D03*
X242750000Y-165750000D03*
X234750000Y-165750000D03*
X242750000Y-171750000D03*
X242750000Y-170750000D03*
X242750000Y-168750000D03*
X242750000Y-166750000D03*
X242750000Y-169750000D03*
X242750000Y-167750000D03*
X242750000Y-172750000D03*
X241750000Y-170750000D03*
X241750000Y-171750000D03*
X241750000Y-173750000D03*
X241750000Y-172750000D03*
X241750000Y-166750000D03*
X241750000Y-168750000D03*
X241750000Y-169750000D03*
X241750000Y-167750000D03*
X240750000Y-166750000D03*
X239750000Y-166750000D03*
X234750000Y-172750000D03*
X234750000Y-170750000D03*
X234750000Y-167750000D03*
X234750000Y-166750000D03*
X234750000Y-171750000D03*
X235750000Y-167750000D03*
X235750000Y-171750000D03*
X235750000Y-166750000D03*
X235750000Y-172750000D03*
X235750000Y-170750000D03*
X235750000Y-173750000D03*
X236750000Y-166750000D03*
X237750000Y-166750000D03*
D29*
X218000000Y-137250000D03*
D12*
X292750000Y-69537500D03*
X150865000Y-92885000D03*
X166635000Y-92885000D03*
X276750000Y-68250000D03*
X276750000Y-70750000D03*
X277500000Y-68000014D03*
X277500000Y-71500000D03*
X278250000Y-67750000D03*
X278250000Y-72325010D03*
X279000000Y-67500000D03*
X278999990Y-73000000D03*
X279750000Y-67250000D03*
X279750000Y-73750000D03*
X280500000Y-67000000D03*
X279000000Y-74500000D03*
X200750000Y-109500000D03*
X197250000Y-109500000D03*
X154000000Y-180750000D03*
X194500000Y-108750000D03*
X200250000Y-108750000D03*
X154000000Y-181500000D03*
X154000000Y-182250000D03*
X281750000Y-57250000D03*
X278750000Y-54250000D03*
X113750000Y-57500000D03*
X108537500Y-48500000D03*
X121500000Y-179750000D03*
X116790000Y-123750000D03*
X130000000Y-144000000D03*
X158250000Y-184250000D03*
X154400000Y-188200000D03*
X154400000Y-184250000D03*
X159750000Y-180500000D03*
X162250000Y-171750000D03*
X125500000Y-144000000D03*
X113750000Y-94155000D03*
X153600000Y-184250000D03*
X153600000Y-189750000D03*
X204500000Y-144000000D03*
X155950000Y-174150000D03*
X151000000Y-174000000D03*
X123250000Y-144000000D03*
X127250000Y-177250000D03*
X127750000Y-144000000D03*
X129000000Y-181000000D03*
X113750000Y-92885000D03*
X127750000Y-172000000D03*
X202250000Y-144000000D03*
X156250000Y-176250000D03*
X204500000Y-140000000D03*
X220250000Y-120250000D03*
X206750000Y-144000000D03*
X156250000Y-179000000D03*
X202250000Y-140000000D03*
X217500000Y-119750000D03*
X200000000Y-144000000D03*
X156250000Y-178250000D03*
X206750000Y-140000000D03*
X218250000Y-125250000D03*
X217500000Y-119000000D03*
X200000000Y-140000000D03*
X197750000Y-144000000D03*
X156250000Y-179750000D03*
X247750000Y-140000000D03*
X270500000Y-124250000D03*
X197750000Y-140000000D03*
X218250000Y-117250000D03*
X243250000Y-144000000D03*
X159750000Y-181250000D03*
X245500000Y-144000000D03*
X158000000Y-170750000D03*
X147250000Y-182310000D03*
X147250000Y-174500000D03*
X241000000Y-144000000D03*
X159000000Y-181250000D03*
X152500000Y-167750000D03*
X250000000Y-144000000D03*
X158000000Y-171500000D03*
X148000000Y-174500000D03*
X148000000Y-179250000D03*
X158000000Y-173000000D03*
X300750000Y-144250000D03*
X296750000Y-144250000D03*
X159000000Y-173000000D03*
X171500000Y-179500000D03*
X163750000Y-174250000D03*
X171500000Y-178500000D03*
X165000008Y-175500000D03*
X152200000Y-158500000D03*
X160500000Y-180500000D03*
X163250000Y-171750000D03*
X156750000Y-85500000D03*
X112750000Y-57500000D03*
X117250000Y-89250000D03*
X298702500Y-155500000D03*
X291000000Y-152000000D03*
X111750000Y-128750000D03*
X167000000Y-181500000D03*
X118060000Y-123750000D03*
X166500000Y-180500000D03*
X144250000Y-175960000D03*
X139250000Y-179770000D03*
X159800000Y-184400000D03*
X135250000Y-101500000D03*
X160600000Y-184400000D03*
X133000000Y-101500000D03*
X161400000Y-184400000D03*
X130750000Y-101500000D03*
X162200000Y-184400000D03*
X128500000Y-101500000D03*
X163000000Y-182900000D03*
X137500000Y-101500000D03*
X296400000Y-153600000D03*
X158750000Y-179250000D03*
X113750000Y-91615000D03*
X165000000Y-178500000D03*
X192250000Y-51000000D03*
D29*
X294000000Y-161500000D03*
X295500000Y-161500000D03*
X159500000Y-95000000D03*
X208500000Y-181250000D03*
D30*
X314000000Y-163000000D03*
D29*
X156500000Y-195250000D03*
X115500000Y-83750000D03*
D12*
X159500000Y-125250000D03*
X222050000Y-120050000D03*
X282750000Y-118000000D03*
X168900000Y-139900000D03*
D29*
X163250000Y-145500000D03*
X222750000Y-145500000D03*
X224250000Y-145500000D03*
X263500000Y-145500000D03*
X287250000Y-127250000D03*
D12*
X126200000Y-54100000D03*
D31*
X104500000Y-199000000D03*
X106000000Y-200500000D03*
X107500000Y-199000000D03*
X103000000Y-200500000D03*
X101500000Y-198500000D03*
X103000000Y-197000000D03*
X101500000Y-195500000D03*
X317000000Y-197500000D03*
X318500000Y-196000000D03*
X317000000Y-194500000D03*
X317000000Y-191500000D03*
X317000000Y-188500000D03*
X317000000Y-185500000D03*
X317000000Y-182500000D03*
X317000000Y-179500000D03*
X317000000Y-176500000D03*
X317000000Y-173500000D03*
X317000000Y-170500000D03*
X317000000Y-167500000D03*
X317000000Y-164500000D03*
X317000000Y-161500000D03*
X317000000Y-158500000D03*
X317000000Y-155500000D03*
X317000000Y-152500000D03*
X317000000Y-149500000D03*
X317000000Y-146500000D03*
X317000000Y-143500000D03*
X317000000Y-140500000D03*
X317000000Y-137500000D03*
X317000000Y-134500000D03*
X317000000Y-131500000D03*
X317000000Y-128500000D03*
X317000000Y-125500000D03*
X317000000Y-122500000D03*
X317000000Y-119500000D03*
X317000000Y-116500000D03*
X317000000Y-113500000D03*
X317000000Y-110500000D03*
X317000000Y-107500000D03*
X317000000Y-104500000D03*
X317000000Y-101500000D03*
X317000000Y-98500000D03*
X317000000Y-95500000D03*
X317000000Y-92500000D03*
X317000000Y-89500000D03*
X317000000Y-86500000D03*
X317000000Y-83500000D03*
X317000000Y-80500000D03*
X317000000Y-77500000D03*
X317000000Y-74500000D03*
X317000000Y-71500000D03*
X317000000Y-68500000D03*
X317000000Y-65500000D03*
X317000000Y-62500000D03*
X317000000Y-59500000D03*
X317000000Y-56500000D03*
X317000000Y-53500000D03*
X317000000Y-50500000D03*
X317000000Y-47500000D03*
X317000000Y-44500000D03*
X318500000Y-193000000D03*
X318500000Y-190000000D03*
X318500000Y-187000000D03*
X318500000Y-184000000D03*
X318500000Y-181000000D03*
X318500000Y-178000000D03*
X318500000Y-175000000D03*
X318500000Y-172000000D03*
X318500000Y-169000000D03*
X318500000Y-166000000D03*
X318500000Y-163000000D03*
X318500000Y-160000000D03*
X318500000Y-157000000D03*
X318500000Y-154000000D03*
X318500000Y-151000000D03*
X318500000Y-148000000D03*
X318500000Y-145000000D03*
X318500000Y-142000000D03*
X318500000Y-139000000D03*
X318500000Y-136000000D03*
X318500000Y-133000000D03*
X318500000Y-130000000D03*
X318500000Y-127000000D03*
X318500000Y-124000000D03*
X318500000Y-121000000D03*
X318500000Y-118000000D03*
X318500000Y-115000000D03*
X318500000Y-112000000D03*
X318500000Y-109000000D03*
X318500000Y-106000000D03*
X318500000Y-103000000D03*
X318500000Y-100000000D03*
X318500000Y-97000000D03*
X318500000Y-94000000D03*
X318500000Y-91000000D03*
X318500000Y-88000000D03*
X318500000Y-85000000D03*
X318500000Y-82000000D03*
X318500000Y-79000000D03*
X318500000Y-76000000D03*
X318500000Y-73000000D03*
X318500000Y-70000000D03*
X318500000Y-67000000D03*
X318500000Y-64000000D03*
X318500000Y-61000000D03*
X318500000Y-58000000D03*
X318500000Y-55000000D03*
X318500000Y-52000000D03*
X318500000Y-49000000D03*
X318500000Y-46000000D03*
X318500000Y-43000000D03*
X314000000Y-44500000D03*
X311000000Y-44500000D03*
X308000000Y-44500000D03*
X305000000Y-44500000D03*
X302000000Y-44500000D03*
X299000000Y-44500000D03*
X296000000Y-44500000D03*
X293000000Y-44500000D03*
X290000000Y-44500000D03*
X287000000Y-44500000D03*
X284000000Y-44500000D03*
X281000000Y-44500000D03*
X278000000Y-44500000D03*
X275000000Y-44500000D03*
X272000000Y-44500000D03*
X269000000Y-44500000D03*
X266000000Y-44500000D03*
X263000000Y-44500000D03*
X260000000Y-44500000D03*
X257000000Y-44500000D03*
X254000000Y-44500000D03*
X251000000Y-44500000D03*
X248000000Y-44500000D03*
X245000000Y-44500000D03*
X242000000Y-44500000D03*
X239000000Y-44500000D03*
X236000000Y-44500000D03*
X233000000Y-44500000D03*
X230000000Y-44500000D03*
X227000000Y-44500000D03*
X224000000Y-44500000D03*
X221000000Y-44500000D03*
X218000000Y-44500000D03*
X215000000Y-44500000D03*
X212000000Y-44500000D03*
X209000000Y-44500000D03*
X206000000Y-44500000D03*
X203000000Y-44500000D03*
X200000000Y-44500000D03*
X197000000Y-44500000D03*
X194000000Y-44500000D03*
X191000000Y-44500000D03*
X188000000Y-44500000D03*
X185000000Y-44500000D03*
X182000000Y-44500000D03*
X179000000Y-44500000D03*
X176000000Y-44500000D03*
X173000000Y-44500000D03*
X170000000Y-44500000D03*
X167000000Y-44500000D03*
X164000000Y-44500000D03*
X161000000Y-44500000D03*
X158000000Y-44500000D03*
X155000000Y-44500000D03*
X152000000Y-44500000D03*
X149000000Y-44500000D03*
X146000000Y-44500000D03*
X143000000Y-44500000D03*
X140000000Y-44500000D03*
X137000000Y-44500000D03*
X134000000Y-44500000D03*
X131000000Y-44500000D03*
X128000000Y-44500000D03*
X125000000Y-44500000D03*
X122000000Y-44500000D03*
X119000000Y-44500000D03*
X116000000Y-44500000D03*
X113000000Y-44500000D03*
X110000000Y-44500000D03*
X107000000Y-44500000D03*
X315500000Y-43000000D03*
X312500000Y-43000000D03*
X309500000Y-43000000D03*
X306500000Y-43000000D03*
X303500000Y-43000000D03*
X300500000Y-43000000D03*
X297500000Y-43000000D03*
X294500000Y-43000000D03*
X291500000Y-43000000D03*
X288500000Y-43000000D03*
X285500000Y-43000000D03*
X282500000Y-43000000D03*
X279500000Y-43000000D03*
X276500000Y-43000000D03*
X273500000Y-43000000D03*
X270500000Y-43000000D03*
X267500000Y-43000000D03*
X264500000Y-43000000D03*
X261500000Y-43000000D03*
X258500000Y-43000000D03*
X255500000Y-43000000D03*
X252500000Y-43000000D03*
X249500000Y-43000000D03*
X246500000Y-43000000D03*
X243500000Y-43000000D03*
X240500000Y-43000000D03*
X237500000Y-43000000D03*
X234500000Y-43000000D03*
X231500000Y-43000000D03*
X228500000Y-43000000D03*
X225500000Y-43000000D03*
X222500000Y-43000000D03*
X219500000Y-43000000D03*
X216500000Y-43000000D03*
X213500000Y-43000000D03*
X210500000Y-43000000D03*
X207500000Y-43000000D03*
X204500000Y-43000000D03*
X201500000Y-43000000D03*
X198500000Y-43000000D03*
X195500000Y-43000000D03*
X192500000Y-43000000D03*
X189500000Y-43000000D03*
X186500000Y-43000000D03*
X183500000Y-43000000D03*
X180500000Y-43000000D03*
X177500000Y-43000000D03*
X174500000Y-43000000D03*
X171500000Y-43000000D03*
X168500000Y-43000000D03*
X165500000Y-43000000D03*
X162500000Y-43000000D03*
X159500000Y-43000000D03*
X156500000Y-43000000D03*
X153500000Y-43000000D03*
X150500000Y-43000000D03*
X147500000Y-43000000D03*
X144500000Y-43000000D03*
X141500000Y-43000000D03*
X138500000Y-43000000D03*
X135500000Y-43000000D03*
X132500000Y-43000000D03*
X129500000Y-43000000D03*
X126500000Y-43000000D03*
X123500000Y-43000000D03*
X120500000Y-43000000D03*
X117500000Y-43000000D03*
X114500000Y-43000000D03*
X111500000Y-43000000D03*
X108500000Y-43000000D03*
X105500000Y-43000000D03*
X103000000Y-194000000D03*
X103000000Y-191000000D03*
X103000000Y-188000000D03*
X103000000Y-185000000D03*
X103000000Y-182000000D03*
X103000000Y-179000000D03*
X103000000Y-176000000D03*
X103000000Y-173000000D03*
X103000000Y-170000000D03*
X103000000Y-167000000D03*
X103000000Y-164000000D03*
X103000000Y-161000000D03*
X103000000Y-158000000D03*
X103000000Y-155000000D03*
X103000000Y-152000000D03*
X103000000Y-149000000D03*
X103000000Y-146000000D03*
X103000000Y-143000000D03*
X103000000Y-140000000D03*
X103000000Y-137000000D03*
X103000000Y-134000000D03*
X103000000Y-131000000D03*
X103000000Y-128000000D03*
X103000000Y-125000000D03*
X103000000Y-122000000D03*
X103000000Y-119000000D03*
X103000000Y-116000000D03*
X103000000Y-113000000D03*
X103000000Y-110000000D03*
X103000000Y-107000000D03*
X103000000Y-104000000D03*
X103000000Y-101000000D03*
X103000000Y-98000000D03*
X103000000Y-95000000D03*
X103000000Y-92000000D03*
X103000000Y-89000000D03*
X103000000Y-86000000D03*
X103000000Y-83000000D03*
X103000000Y-80000000D03*
X103000000Y-74000000D03*
X101500000Y-192500000D03*
X101500000Y-189500000D03*
X101500000Y-186500000D03*
X101500000Y-183500000D03*
X101500000Y-180500000D03*
X101500000Y-177500000D03*
X101500000Y-174500000D03*
X101500000Y-171500000D03*
X101500000Y-168500000D03*
X101500000Y-165500000D03*
X101500000Y-162500000D03*
X101500000Y-159500000D03*
X101500000Y-156500000D03*
X101500000Y-153500000D03*
X101500000Y-150500000D03*
X101500000Y-147500000D03*
X101500000Y-144500000D03*
X101500000Y-141500000D03*
X101500000Y-138500000D03*
X101500000Y-135500000D03*
X101500000Y-132500000D03*
X101500000Y-129500000D03*
X101500000Y-126500000D03*
X101500000Y-123500000D03*
X101500000Y-120500000D03*
X101500000Y-117500000D03*
X101500000Y-114500000D03*
X101500000Y-111500000D03*
X101500000Y-108500000D03*
X101500000Y-105500000D03*
X101500000Y-102500000D03*
X101500000Y-99500000D03*
X101500000Y-96500000D03*
X101500000Y-93500000D03*
X101500000Y-90500000D03*
X101500000Y-87500000D03*
X101500000Y-84500000D03*
X101500000Y-81500000D03*
X101500000Y-78500000D03*
X101500000Y-75500000D03*
X101500000Y-72500000D03*
X103000000Y-53000000D03*
X103000000Y-50000000D03*
X103000000Y-47000000D03*
X101500000Y-48500000D03*
X101500000Y-45500000D03*
X101500000Y-51500000D03*
X102500000Y-43000000D03*
X101500000Y-54500000D03*
X104000000Y-44500000D03*
X103000000Y-56000000D03*
X101500000Y-57500000D03*
X109000000Y-200500000D03*
X112000000Y-200500000D03*
X115000000Y-200500000D03*
X118000000Y-200500000D03*
X121000000Y-200500000D03*
X124000000Y-200500000D03*
X127000000Y-200500000D03*
X130000000Y-200500000D03*
X133000000Y-200500000D03*
X136000000Y-200500000D03*
X139000000Y-200500000D03*
X142000000Y-200500000D03*
X145000000Y-200500000D03*
X148000000Y-200500000D03*
X151000000Y-200500000D03*
X154000000Y-200500000D03*
X157000000Y-200500000D03*
X160000000Y-200500000D03*
X163000000Y-200500000D03*
X166000000Y-200500000D03*
X169000000Y-200500000D03*
X172000000Y-200500000D03*
X175000000Y-200500000D03*
X178000000Y-200500000D03*
X181000000Y-200500000D03*
X184000000Y-200500000D03*
X187000000Y-200500000D03*
X190000000Y-200500000D03*
X193000000Y-200500000D03*
X196000000Y-200500000D03*
X199000000Y-200500000D03*
X202000000Y-200500000D03*
X205000000Y-200500000D03*
X208000000Y-200500000D03*
X211000000Y-200500000D03*
X214000000Y-200500000D03*
X217000000Y-200500000D03*
X220000000Y-200500000D03*
X223000000Y-200500000D03*
X226000000Y-200500000D03*
X229000000Y-200500000D03*
X232000000Y-200500000D03*
X235000000Y-200500000D03*
X238000000Y-200500000D03*
X241000000Y-200500000D03*
X244000000Y-200500000D03*
X247000000Y-200500000D03*
X250000000Y-200500000D03*
X253000000Y-200500000D03*
X256000000Y-200500000D03*
X259000000Y-200500000D03*
X262000000Y-200500000D03*
X265000000Y-200500000D03*
X268000000Y-200500000D03*
X271000000Y-200500000D03*
X274000000Y-200500000D03*
X277000000Y-200500000D03*
X280000000Y-200500000D03*
X283000000Y-200500000D03*
X286000000Y-200500000D03*
X289000000Y-200500000D03*
X292000000Y-200500000D03*
X295000000Y-200500000D03*
X298000000Y-200500000D03*
X301000000Y-200500000D03*
X304000000Y-200500000D03*
X307000000Y-200500000D03*
X310000000Y-200500000D03*
X313000000Y-200500000D03*
X316000000Y-200500000D03*
X318500000Y-199000000D03*
X110500000Y-199000000D03*
X113500000Y-199000000D03*
X116500000Y-199000000D03*
X119500000Y-199000000D03*
X122500000Y-199000000D03*
X125500000Y-199000000D03*
X128500000Y-199000000D03*
X131500000Y-199000000D03*
X134500000Y-199000000D03*
X137500000Y-199000000D03*
X140500000Y-199000000D03*
X143500000Y-199000000D03*
X146500000Y-199000000D03*
X149500000Y-199000000D03*
X152500000Y-199000000D03*
X155500000Y-199000000D03*
X158500000Y-199000000D03*
X161500000Y-199000000D03*
X164500000Y-199000000D03*
X167500000Y-199000000D03*
X170500000Y-199000000D03*
X173500000Y-199000000D03*
X176500000Y-199000000D03*
X179500000Y-199000000D03*
X182500000Y-199000000D03*
X185500000Y-199000000D03*
X188500000Y-199000000D03*
X191500000Y-199000000D03*
X194500000Y-199000000D03*
X197500000Y-199000000D03*
X200500000Y-199000000D03*
X203500000Y-199000000D03*
X206500000Y-199000000D03*
X209500000Y-199000000D03*
X212500000Y-199000000D03*
X215500000Y-199000000D03*
X218500000Y-199000000D03*
X221500000Y-199000000D03*
X224500000Y-199000000D03*
X227500000Y-199000000D03*
X230500000Y-199000000D03*
X233500000Y-199000000D03*
X236500000Y-199000000D03*
X239500000Y-199000000D03*
X242500000Y-199000000D03*
X245500000Y-199000000D03*
X248500000Y-199000000D03*
X251500000Y-199000000D03*
X254500000Y-199000000D03*
X257500000Y-199000000D03*
X260500000Y-199000000D03*
X263500000Y-199000000D03*
X266500000Y-199000000D03*
X269500000Y-199000000D03*
X272500000Y-199000000D03*
X275500000Y-199000000D03*
X278500000Y-199000000D03*
X281500000Y-199000000D03*
X284500000Y-199000000D03*
X287500000Y-199000000D03*
X290500000Y-199000000D03*
X293500000Y-199000000D03*
X296500000Y-199000000D03*
X299500000Y-199000000D03*
X302500000Y-199000000D03*
X305500000Y-199000000D03*
X308500000Y-199000000D03*
X311500000Y-199000000D03*
X314500000Y-199000000D03*
X105000000Y-151250000D03*
X106500000Y-152750000D03*
X108000000Y-151250000D03*
X130500000Y-152750000D03*
X109500000Y-152750000D03*
X121500000Y-152750000D03*
X127500000Y-152750000D03*
X169500000Y-152750000D03*
X142500000Y-152750000D03*
X202500000Y-152750000D03*
X166500000Y-152750000D03*
X208500000Y-152750000D03*
X193500000Y-152750000D03*
X112500000Y-152750000D03*
X178500000Y-152750000D03*
X196500000Y-152750000D03*
X157500000Y-152750000D03*
X205500000Y-152750000D03*
X214500000Y-152750000D03*
X217500000Y-152750000D03*
X238500000Y-152750000D03*
X241500000Y-152750000D03*
X175500000Y-152750000D03*
X184500000Y-152750000D03*
X151500000Y-152750000D03*
X220500000Y-152750000D03*
X124500000Y-152750000D03*
X247500000Y-152750000D03*
X187500000Y-152750000D03*
X118500000Y-152750000D03*
X211500000Y-152750000D03*
X250500000Y-152750000D03*
X154500000Y-152750000D03*
X136500000Y-152750000D03*
X181500000Y-152750000D03*
X232500000Y-152750000D03*
X259500000Y-152750000D03*
X262500000Y-152750000D03*
X265500000Y-152750000D03*
X268500000Y-152750000D03*
X139500000Y-152750000D03*
X148500000Y-152750000D03*
X172500000Y-152750000D03*
X190500000Y-152750000D03*
X199500000Y-152750000D03*
X163500000Y-152750000D03*
X223500000Y-152750000D03*
X115500000Y-152750000D03*
X160500000Y-152750000D03*
X235500000Y-152750000D03*
X226500000Y-152750000D03*
X244500000Y-152750000D03*
X133500000Y-152750000D03*
X229500000Y-152750000D03*
X253500000Y-152750000D03*
X256500000Y-152750000D03*
X145500000Y-152750000D03*
X147000000Y-151250000D03*
X150000000Y-151250000D03*
X153000000Y-151250000D03*
X111000000Y-151250000D03*
X114000000Y-151250000D03*
X123000000Y-151250000D03*
X126000000Y-151250000D03*
X129000000Y-151250000D03*
X138000000Y-151250000D03*
X117000000Y-151250000D03*
X135000000Y-151250000D03*
X141000000Y-151250000D03*
X120000000Y-151250000D03*
X132000000Y-151250000D03*
X144000000Y-151250000D03*
X171000000Y-151250000D03*
X174000000Y-151250000D03*
X156000000Y-151250000D03*
X162000000Y-151250000D03*
X159000000Y-151250000D03*
X165000000Y-151250000D03*
X168000000Y-151250000D03*
X255000000Y-151250000D03*
X258000000Y-151250000D03*
X246000000Y-151250000D03*
X204000000Y-151250000D03*
X264000000Y-151250000D03*
X267000000Y-151250000D03*
X180000000Y-151250000D03*
X192000000Y-151250000D03*
X252000000Y-151250000D03*
X261000000Y-151250000D03*
X270000000Y-151250000D03*
X186000000Y-151250000D03*
X213000000Y-151250000D03*
X216000000Y-151250000D03*
X228000000Y-151250000D03*
X234000000Y-151250000D03*
X231000000Y-151250000D03*
X198000000Y-151250000D03*
X207000000Y-151250000D03*
X195000000Y-151250000D03*
X183000000Y-151250000D03*
X189000000Y-151250000D03*
X222000000Y-151250000D03*
X240000000Y-151250000D03*
X249000000Y-151250000D03*
X201000000Y-151250000D03*
X177000000Y-151250000D03*
X225000000Y-151250000D03*
X219000000Y-151250000D03*
X237000000Y-151250000D03*
X210000000Y-151250000D03*
X243000000Y-151250000D03*
X271500000Y-152750000D03*
X277500000Y-152750000D03*
X280500000Y-152750000D03*
X274500000Y-152750000D03*
X276000000Y-151250000D03*
X282000000Y-151250000D03*
X273000000Y-151250000D03*
X279000000Y-151250000D03*
X283250000Y-149750000D03*
X281750000Y-148250000D03*
X283250000Y-146750000D03*
X281750000Y-145250000D03*
X283250000Y-143750000D03*
X281750000Y-142250000D03*
X283250000Y-140750000D03*
X281750000Y-139250000D03*
X283250000Y-137750000D03*
X284750000Y-139250000D03*
X287750000Y-139250000D03*
X286250000Y-137750000D03*
X290750000Y-139250000D03*
X292250000Y-137750000D03*
X293750000Y-139250000D03*
X289250000Y-137750000D03*
X296750000Y-139250000D03*
X304250000Y-137750000D03*
X301250000Y-137750000D03*
X298250000Y-137750000D03*
X299750000Y-139250000D03*
X302750000Y-139250000D03*
X305750000Y-139250000D03*
X295250000Y-137750000D03*
X313250000Y-137750000D03*
X311750000Y-139250000D03*
X310250000Y-137750000D03*
X307250000Y-137750000D03*
X308750000Y-139250000D03*
X314750000Y-139250000D03*
X289000000Y-106750000D03*
X286000000Y-106750000D03*
X287500000Y-105250000D03*
X296500000Y-105250000D03*
X292000000Y-106750000D03*
X290500000Y-105250000D03*
X307500000Y-106750000D03*
X309000000Y-105250000D03*
X295000000Y-106750000D03*
X293500000Y-105250000D03*
X299500000Y-105250000D03*
X306000000Y-105250000D03*
X315000000Y-105250000D03*
X313500000Y-106750000D03*
X310500000Y-106750000D03*
X312000000Y-105250000D03*
X103000000Y-77000000D03*
X176500000Y-78750000D03*
X170500000Y-78750000D03*
X146500000Y-78750000D03*
X107500000Y-78750000D03*
X125500000Y-78750000D03*
X122500000Y-78750000D03*
X140500000Y-78750000D03*
X164500000Y-78750000D03*
X128500000Y-78750000D03*
X149500000Y-78750000D03*
X104500000Y-78750000D03*
X137500000Y-78750000D03*
X119500000Y-78750000D03*
X116500000Y-78750000D03*
X151000000Y-77250000D03*
X133000000Y-77250000D03*
X139000000Y-77250000D03*
X124000000Y-77250000D03*
X152500000Y-78750000D03*
X121000000Y-77250000D03*
X136000000Y-77250000D03*
X160000000Y-77250000D03*
X127000000Y-77250000D03*
X155500000Y-78750000D03*
X134500000Y-78750000D03*
X109000000Y-77250000D03*
X173500000Y-78750000D03*
X118000000Y-77250000D03*
X167500000Y-78750000D03*
X106000000Y-77250000D03*
X143500000Y-78750000D03*
X110500000Y-78750000D03*
X161500000Y-78750000D03*
X130000000Y-77250000D03*
X166000000Y-77250000D03*
X157000000Y-77250000D03*
X175000000Y-77250000D03*
X113500000Y-78750000D03*
X172000000Y-77250000D03*
X163000000Y-77250000D03*
X158500000Y-78750000D03*
X148000000Y-77250000D03*
X145000000Y-77250000D03*
X131500000Y-78750000D03*
X178000000Y-77250000D03*
X169000000Y-77250000D03*
X154000000Y-77250000D03*
X112000000Y-77250000D03*
X142000000Y-77250000D03*
X115000000Y-77250000D03*
X179500000Y-78750000D03*
X183500000Y-46250000D03*
X181750000Y-79750000D03*
X181750000Y-76750000D03*
X183250000Y-78250000D03*
X183250000Y-72250000D03*
X181750000Y-70750000D03*
X181750000Y-73750000D03*
X183250000Y-75250000D03*
X183250000Y-54250000D03*
X183250000Y-69250000D03*
X181750000Y-64750000D03*
X181750000Y-58750000D03*
X183250000Y-63250000D03*
X183250000Y-66250000D03*
X181750000Y-52750000D03*
X183250000Y-57250000D03*
X181750000Y-61750000D03*
X181750000Y-67750000D03*
X181750000Y-55750000D03*
X183250000Y-60250000D03*
D29*
X137000000Y-48000000D03*
X143500000Y-48000000D03*
D12*
X129350000Y-62500000D03*
X130350000Y-62500000D03*
X128350000Y-62500000D03*
X129350000Y-66500000D03*
X128350000Y-66500000D03*
X129350000Y-65500000D03*
X128350000Y-65500000D03*
X128350000Y-64500000D03*
X129350000Y-64500000D03*
X129350000Y-63500000D03*
X128350000Y-63500000D03*
X127350000Y-62500000D03*
X128350000Y-61500000D03*
X129350000Y-61500000D03*
X127350000Y-61500000D03*
X128350000Y-60500000D03*
X127350000Y-60500000D03*
X129350000Y-60500000D03*
X129350000Y-59500000D03*
X128350000Y-59500000D03*
X127350000Y-59500000D03*
X128350000Y-58500000D03*
X129350000Y-58500000D03*
X127350000Y-58500000D03*
X126350000Y-58500000D03*
X125350000Y-58500000D03*
X138500000Y-66750000D03*
X137500000Y-66750000D03*
X137500000Y-67750000D03*
X138500000Y-67750000D03*
X137500000Y-68750000D03*
X138500000Y-68750000D03*
X137500000Y-69750000D03*
X138500000Y-69750000D03*
X138500000Y-70750000D03*
X137500000Y-71750000D03*
X138500000Y-71750000D03*
X137500000Y-70750000D03*
X138500000Y-72750000D03*
X137500000Y-72750000D03*
X140500000Y-72750000D03*
X139500000Y-72750000D03*
X140500000Y-71750000D03*
X140500000Y-70750000D03*
X139500000Y-71750000D03*
X139500000Y-70750000D03*
X142500000Y-70750000D03*
X141500000Y-70750000D03*
X142500000Y-71750000D03*
X141500000Y-72750000D03*
X142500000Y-72750000D03*
X141500000Y-71750000D03*
X143500000Y-72750000D03*
X143500000Y-66750000D03*
X143500000Y-67750000D03*
X143500000Y-69750000D03*
X143500000Y-71750000D03*
X143500000Y-68750000D03*
X143500000Y-70750000D03*
X142500000Y-67750000D03*
X142500000Y-66750000D03*
X142500000Y-69750000D03*
X142500000Y-68750000D03*
X118700000Y-67700000D03*
X114000000Y-65750000D03*
X114800000Y-67700000D03*
D29*
X113750000Y-59500000D03*
X116000000Y-59000000D03*
X116750000Y-59500000D03*
X117500000Y-59000000D03*
X118250000Y-59500000D03*
X119750000Y-59500000D03*
X115250000Y-72250000D03*
X121250000Y-72250000D03*
X119750000Y-49500000D03*
X113250000Y-49500000D03*
X106000000Y-49500000D03*
X106000000Y-54000000D03*
X110250000Y-53500000D03*
D12*
X126200000Y-53300000D03*
X126200000Y-52500000D03*
X125400000Y-52500000D03*
X127000000Y-52500000D03*
X125400000Y-54900000D03*
X126200000Y-54900000D03*
X127000000Y-54900000D03*
D29*
X198000000Y-76250000D03*
X204500000Y-76250000D03*
X211000000Y-76250000D03*
X217500000Y-76250000D03*
X224000000Y-76250000D03*
X198000000Y-83250000D03*
X204500000Y-83250000D03*
X211000000Y-83250000D03*
X217500000Y-83250000D03*
X224000000Y-83250000D03*
X198500000Y-91500000D03*
X207000000Y-91500000D03*
X215500000Y-91500000D03*
X224000000Y-91500000D03*
X198500000Y-99500000D03*
X207000000Y-99500000D03*
X215500000Y-99500000D03*
X224000000Y-99500000D03*
X238500000Y-81000000D03*
X245000000Y-81000000D03*
X251500000Y-81000000D03*
X258000000Y-81000000D03*
X264500000Y-81000000D03*
X238500000Y-88000000D03*
X245000000Y-88000000D03*
X251500000Y-88000000D03*
X258000000Y-88000000D03*
X264500000Y-88000000D03*
X238500000Y-95500000D03*
X247000000Y-95500000D03*
X255500000Y-95500000D03*
X264000000Y-95500000D03*
X238500000Y-103000000D03*
X247000000Y-103000000D03*
X255500000Y-103000000D03*
X264000000Y-103000000D03*
X141500000Y-54500000D03*
X141500000Y-53000000D03*
D31*
X287750000Y-47250000D03*
X287750000Y-84250000D03*
X287750000Y-87250000D03*
X287750000Y-81250000D03*
X287750000Y-78250000D03*
X287750000Y-102250000D03*
X287750000Y-57250000D03*
X289250000Y-46250000D03*
X287750000Y-72250000D03*
X287750000Y-99250000D03*
X287750000Y-93250000D03*
X287750000Y-75250000D03*
X287750000Y-69250000D03*
X287750000Y-90250000D03*
X287750000Y-60250000D03*
X287750000Y-96250000D03*
X287750000Y-66250000D03*
X287750000Y-63250000D03*
X289250000Y-61750000D03*
X289250000Y-94750000D03*
X289250000Y-103750000D03*
X289250000Y-88750000D03*
X289250000Y-67750000D03*
X289250000Y-97750000D03*
X289250000Y-70750000D03*
X289250000Y-76750000D03*
X289250000Y-100750000D03*
X289250000Y-91750000D03*
X289250000Y-64750000D03*
X289250000Y-85750000D03*
X289250000Y-58750000D03*
X289250000Y-79750000D03*
X289250000Y-82750000D03*
X289250000Y-73750000D03*
X289250000Y-55750000D03*
X287750000Y-54250000D03*
D29*
X310750000Y-92000000D03*
X310750000Y-97500000D03*
X310750000Y-86500000D03*
X310750000Y-62500000D03*
X310750000Y-57000000D03*
D12*
X293750000Y-79000000D03*
X295000000Y-79000000D03*
X296250000Y-79000000D03*
X296250000Y-80000000D03*
X295000000Y-80000000D03*
X293750000Y-80000000D03*
X295000000Y-81000000D03*
X296250000Y-81000000D03*
X293750000Y-81000000D03*
X305750000Y-69500000D03*
X307750000Y-71500000D03*
X306750000Y-69500000D03*
X306750000Y-71500000D03*
X308750000Y-70500000D03*
X305750000Y-70500000D03*
X307750000Y-70500000D03*
X308750000Y-71500000D03*
X305750000Y-71500000D03*
X307750000Y-69500000D03*
X306750000Y-70500000D03*
X308750000Y-69500000D03*
X309750000Y-70500000D03*
X309750000Y-69500000D03*
X308750000Y-68500000D03*
X309750000Y-68500000D03*
X307750000Y-68500000D03*
X305750000Y-68500000D03*
X306750000Y-68500000D03*
X309750000Y-71500000D03*
X310750000Y-68500000D03*
X310750000Y-69500000D03*
X310750000Y-70500000D03*
X307750000Y-79500000D03*
X306750000Y-80500000D03*
X305750000Y-80500000D03*
X306750000Y-79500000D03*
X309750000Y-79500000D03*
X305750000Y-79500000D03*
X308750000Y-78500000D03*
X307750000Y-77500000D03*
X305750000Y-77500000D03*
X307750000Y-80500000D03*
X309750000Y-80500000D03*
X308750000Y-79500000D03*
X307750000Y-78500000D03*
X308750000Y-80500000D03*
X308750000Y-77500000D03*
X306750000Y-78500000D03*
X305750000Y-78500000D03*
X309750000Y-78500000D03*
X306750000Y-77500000D03*
X310750000Y-78500000D03*
X310750000Y-79500000D03*
X310750000Y-80500000D03*
X309750000Y-77500000D03*
X304750000Y-69000000D03*
X304750000Y-71000000D03*
X304750000Y-78000000D03*
X304750000Y-80000000D03*
X294000000Y-67000000D03*
X118250000Y-51050000D03*
X118250000Y-54950000D03*
X114800000Y-54500000D03*
X297150000Y-120500000D03*
X297150000Y-121500000D03*
X297150000Y-122500000D03*
X297150000Y-119500000D03*
X297150000Y-118500000D03*
X300150000Y-120500000D03*
X300150000Y-119500000D03*
X300150000Y-118500000D03*
D29*
X279537500Y-123250000D03*
X279537500Y-126750000D03*
X282250000Y-126250000D03*
X283750000Y-126250000D03*
X285250000Y-126250000D03*
X286750000Y-126250000D03*
X288250000Y-126250000D03*
X282750000Y-133000000D03*
X287750000Y-133000000D03*
X287250000Y-128750000D03*
D12*
X122000000Y-50600000D03*
X122800000Y-50600000D03*
X123600000Y-50600000D03*
X123600000Y-51400000D03*
X122800000Y-51400000D03*
X122000000Y-51400000D03*
X123600000Y-49800000D03*
X122800000Y-49800000D03*
X122000000Y-49800000D03*
D29*
X261250000Y-144000000D03*
X255250000Y-144000000D03*
X265000000Y-145500000D03*
X220500000Y-144000000D03*
X214500000Y-144000000D03*
X155000000Y-143750000D03*
X161000000Y-143750000D03*
X164750000Y-145500000D03*
D12*
X169600000Y-139900000D03*
X169600000Y-139200000D03*
X168900000Y-139200000D03*
X166800000Y-139200000D03*
X168200000Y-139200000D03*
X170300000Y-139200000D03*
X171000000Y-139200000D03*
X168900000Y-141300000D03*
X169600000Y-141300000D03*
X169600000Y-140600000D03*
X168900000Y-140600000D03*
X170300000Y-139900000D03*
X171000000Y-139900000D03*
X166800000Y-139900000D03*
X168200000Y-139900000D03*
X166800000Y-143600000D03*
X168200000Y-143600000D03*
X169600000Y-142000000D03*
X168900000Y-142000000D03*
X171700000Y-139200000D03*
X171700000Y-139900000D03*
X167500000Y-139200000D03*
X167500000Y-139900000D03*
X168900000Y-142700000D03*
X169600000Y-142700000D03*
X169600000Y-143400000D03*
X168900000Y-143400000D03*
X167500000Y-143600000D03*
X167500000Y-138500000D03*
X171700000Y-138500000D03*
X168900000Y-138500000D03*
X169600000Y-138500000D03*
X170300000Y-138500000D03*
X171000000Y-138500000D03*
X166800000Y-138500000D03*
X168200000Y-138500000D03*
X176250000Y-141500000D03*
X176250000Y-143500000D03*
X176250000Y-145500000D03*
X235750000Y-141500000D03*
X235750000Y-143500000D03*
X235750000Y-145500000D03*
X276500000Y-141500000D03*
X276500000Y-143500000D03*
X276500000Y-145500000D03*
X169600000Y-144100000D03*
X168900000Y-144100000D03*
X167500000Y-144300000D03*
X166800000Y-144300000D03*
X168200000Y-144300000D03*
X170300000Y-144100000D03*
X229800000Y-144100000D03*
X228400000Y-142000000D03*
X229100000Y-142000000D03*
X229100000Y-142700000D03*
X228400000Y-142700000D03*
X229100000Y-143400000D03*
X228400000Y-143400000D03*
X227000000Y-143600000D03*
X230500000Y-138500000D03*
X228400000Y-138500000D03*
X226300000Y-138500000D03*
X227000000Y-138500000D03*
X229100000Y-138500000D03*
X227700000Y-138500000D03*
X227000000Y-139200000D03*
X231200000Y-139200000D03*
X231200000Y-139900000D03*
X229800000Y-138500000D03*
X231200000Y-138500000D03*
X227000000Y-139900000D03*
X228400000Y-139200000D03*
X228400000Y-139900000D03*
X229100000Y-139200000D03*
X229100000Y-139900000D03*
X229800000Y-139200000D03*
X230500000Y-139200000D03*
X226300000Y-139200000D03*
X227700000Y-139200000D03*
X228400000Y-144100000D03*
X227000000Y-144300000D03*
X229100000Y-144100000D03*
X226300000Y-144300000D03*
X227700000Y-144300000D03*
X229100000Y-141300000D03*
X229800000Y-139900000D03*
X228400000Y-140600000D03*
X226300000Y-139900000D03*
X227700000Y-139900000D03*
X229100000Y-140600000D03*
X228400000Y-141300000D03*
X230500000Y-139900000D03*
X226300000Y-143600000D03*
X227700000Y-143600000D03*
X269150000Y-139200000D03*
X267750000Y-138500000D03*
X269150000Y-139900000D03*
X269150000Y-138500000D03*
X270550000Y-139200000D03*
X269150000Y-143400000D03*
X269150000Y-141300000D03*
X268450000Y-144300000D03*
X267050000Y-144300000D03*
X267750000Y-139900000D03*
X270550000Y-144100000D03*
X269850000Y-141300000D03*
X267050000Y-138500000D03*
X268450000Y-139200000D03*
X267750000Y-144300000D03*
X269150000Y-142700000D03*
X269150000Y-144100000D03*
X270550000Y-139900000D03*
X269150000Y-140600000D03*
X269850000Y-139200000D03*
X269850000Y-139900000D03*
X269850000Y-142700000D03*
X269850000Y-144100000D03*
X267750000Y-143600000D03*
X268450000Y-139900000D03*
X271250000Y-139200000D03*
X269850000Y-140600000D03*
X271950000Y-138500000D03*
X269150000Y-142000000D03*
X269850000Y-142000000D03*
X269850000Y-143400000D03*
X270550000Y-138500000D03*
X269850000Y-138500000D03*
X267050000Y-143600000D03*
X268450000Y-138500000D03*
X267050000Y-139200000D03*
X271950000Y-139900000D03*
X271250000Y-138500000D03*
X267050000Y-139900000D03*
X271250000Y-139900000D03*
X267750000Y-139200000D03*
X268450000Y-143600000D03*
X271950000Y-139200000D03*
D29*
X279537500Y-114250000D03*
X279537500Y-117750000D03*
D12*
X282750000Y-117300000D03*
X283450000Y-117300000D03*
X283450000Y-118000000D03*
X284150000Y-118000000D03*
X284150000Y-117300000D03*
X284850000Y-118000000D03*
X284850000Y-117300000D03*
X285550000Y-117300000D03*
X285550000Y-118000000D03*
X286250000Y-117300000D03*
X286250000Y-118000000D03*
D29*
X272500000Y-127250000D03*
X274250000Y-127750000D03*
D12*
X272750000Y-114000000D03*
X274250000Y-114000000D03*
D29*
X269800000Y-113750000D03*
X268000000Y-111500000D03*
X275250000Y-110500000D03*
X271000000Y-110000000D03*
X265750000Y-116500000D03*
X265750000Y-118250000D03*
X265750000Y-120000000D03*
X262250000Y-115750000D03*
X262250000Y-117500000D03*
X262250000Y-119250000D03*
X258750000Y-116250000D03*
X266250000Y-123000000D03*
X266250000Y-124500000D03*
X266250000Y-129000000D03*
D12*
X276250000Y-114000000D03*
D29*
X244250000Y-128500000D03*
X256250000Y-128500000D03*
X250250000Y-114000000D03*
X242250000Y-114000000D03*
X258750000Y-135000000D03*
X264250000Y-135000000D03*
X271000000Y-135000000D03*
X261250000Y-125250000D03*
D12*
X226250000Y-119500000D03*
X226250000Y-122000000D03*
X225500000Y-118250000D03*
X224500000Y-118250000D03*
X223300000Y-118250000D03*
X222250000Y-118250000D03*
X221000000Y-118250000D03*
X220250000Y-118500000D03*
X220250000Y-121000000D03*
X221500000Y-124250000D03*
X222500000Y-124250000D03*
X223500000Y-124250000D03*
X225500000Y-124250000D03*
X220250000Y-123000000D03*
X220250000Y-124000000D03*
X226250000Y-123250000D03*
D29*
X114500000Y-59000000D03*
X115250000Y-59500008D03*
D12*
X222850000Y-120050000D03*
X223650000Y-120050000D03*
X224450000Y-120050000D03*
X222050000Y-120850000D03*
X222850000Y-120850000D03*
X223650000Y-120850000D03*
X224450000Y-120850000D03*
X222050000Y-121650000D03*
X222050000Y-122450000D03*
X222850000Y-121650000D03*
X223650000Y-121650000D03*
X224450000Y-121650000D03*
X222850000Y-122450000D03*
X223650000Y-122450000D03*
X224450000Y-122450000D03*
D29*
X219000000Y-130250000D03*
X220500000Y-130250000D03*
X222500000Y-130250000D03*
X224000000Y-130250000D03*
X225500000Y-133500000D03*
X227000000Y-133500000D03*
X229500000Y-126500000D03*
X231000000Y-126500000D03*
X230212500Y-120250000D03*
X220000000Y-112250000D03*
X221500000Y-112250000D03*
X225000000Y-112250000D03*
X227500008Y-112250000D03*
X214250000Y-121500000D03*
X229500000Y-114250000D03*
D12*
X237300000Y-122500000D03*
X237300000Y-121600000D03*
X238200000Y-121600000D03*
X239100000Y-121600000D03*
X237300000Y-120700000D03*
X237300000Y-119700000D03*
X237300000Y-123400000D03*
X238200000Y-123400000D03*
X239100000Y-123400000D03*
D31*
X190750000Y-112750000D03*
X189250000Y-123250000D03*
X189250000Y-120250000D03*
X189250000Y-117250000D03*
X190750000Y-118750000D03*
X190750000Y-115750000D03*
X189250000Y-114250000D03*
X189250000Y-108250000D03*
X189250000Y-111250000D03*
X190750000Y-109750000D03*
X190750000Y-121750000D03*
X189250000Y-148250000D03*
X190750000Y-149750000D03*
X190750000Y-146750000D03*
X189250000Y-142250000D03*
X190750000Y-140750000D03*
X190750000Y-143750000D03*
X189250000Y-139250000D03*
X189250000Y-145250000D03*
X190750000Y-137750000D03*
X190750000Y-131750000D03*
X190750000Y-134750000D03*
X189250000Y-133250000D03*
X189250000Y-136250000D03*
X189250000Y-130250000D03*
D29*
X166250000Y-119250000D03*
X168500000Y-119250000D03*
X170750000Y-119250000D03*
X173000000Y-132250000D03*
D12*
X160500000Y-125250000D03*
X161500000Y-125250000D03*
X162500000Y-125250000D03*
X163500000Y-125250000D03*
X158500000Y-125250000D03*
X157500000Y-125250000D03*
X156500000Y-125250000D03*
X155500000Y-125250000D03*
X159500000Y-124250000D03*
X161500000Y-124250000D03*
X156500000Y-124250000D03*
X160500000Y-124250000D03*
X162500000Y-124250000D03*
X158500000Y-124250000D03*
X157500000Y-124250000D03*
X163500000Y-124250000D03*
X155500000Y-124250000D03*
X159500000Y-123250000D03*
X160500000Y-123250000D03*
X158500000Y-123250000D03*
X158500000Y-122250000D03*
X160500000Y-122250000D03*
X159500000Y-122250000D03*
X159500000Y-121250000D03*
X158500000Y-121250000D03*
X159500000Y-120250000D03*
X158500000Y-120250000D03*
X160500000Y-121250000D03*
X160500000Y-120250000D03*
X158500000Y-118250000D03*
X160500000Y-118250000D03*
X159500000Y-119250000D03*
X159500000Y-118250000D03*
X158500000Y-119250000D03*
X160500000Y-119250000D03*
X160500000Y-126250000D03*
X159500000Y-127250000D03*
X159500000Y-126250000D03*
X158500000Y-126250000D03*
X158500000Y-127250000D03*
X160500000Y-127250000D03*
X159500000Y-129250000D03*
X160500000Y-129250000D03*
X160500000Y-128250000D03*
X159500000Y-128250000D03*
X158500000Y-129250000D03*
X158500000Y-128250000D03*
X160500000Y-130250000D03*
X158500000Y-131250000D03*
X158500000Y-130250000D03*
X159500000Y-130250000D03*
X160500000Y-131250000D03*
X159500000Y-131250000D03*
X155500000Y-130250000D03*
X155500000Y-131250000D03*
X157500000Y-131250000D03*
X156500000Y-130250000D03*
X156500000Y-131250000D03*
X157500000Y-130250000D03*
X157500000Y-129250000D03*
X156500000Y-129250000D03*
X155500000Y-129250000D03*
X162500000Y-131250000D03*
X162500000Y-129250000D03*
X161500000Y-129250000D03*
X161500000Y-130250000D03*
X161500000Y-131250000D03*
X162500000Y-130250000D03*
X163500000Y-130250000D03*
X163500000Y-131250000D03*
X163500000Y-129250000D03*
X161500000Y-120250000D03*
X163500000Y-118250000D03*
X162500000Y-119250000D03*
X162500000Y-118250000D03*
X163500000Y-120250000D03*
X162500000Y-120250000D03*
X161500000Y-118250000D03*
X161500000Y-119250000D03*
X163500000Y-119250000D03*
X155500000Y-120250000D03*
X156500000Y-118250000D03*
X157500000Y-118250000D03*
X156500000Y-120250000D03*
X155500000Y-118250000D03*
X157500000Y-120250000D03*
X156500000Y-119250000D03*
X157500000Y-119250000D03*
X155500000Y-119250000D03*
X157500000Y-128250000D03*
X157500000Y-127250000D03*
X157500000Y-126250000D03*
D29*
X150500000Y-125250000D03*
X142250000Y-125250000D03*
X126850000Y-116750000D03*
X128850000Y-116750000D03*
X130850000Y-116750000D03*
X134850000Y-116750000D03*
X136850000Y-116750000D03*
X132850000Y-113250000D03*
X124850000Y-109750000D03*
X143000000Y-136000000D03*
X133750000Y-132250000D03*
X133750000Y-138250000D03*
X133750000Y-144250000D03*
D12*
X132225000Y-126500000D03*
X135475000Y-123000000D03*
X134825000Y-123000000D03*
D29*
X141500000Y-127750000D03*
X141500000Y-130000000D03*
X118750000Y-140845500D03*
X110400000Y-131500000D03*
X112650000Y-131500000D03*
X120500000Y-184500000D03*
X110440000Y-120750000D03*
X115520000Y-128750000D03*
X116790000Y-128750000D03*
X120000000Y-122750000D03*
X129000000Y-92750000D03*
X123250000Y-96000000D03*
X120250000Y-89750000D03*
X111750000Y-85000000D03*
X114000000Y-83750000D03*
X141250000Y-172750000D03*
X139250000Y-182310000D03*
D12*
X146000000Y-157550000D03*
X146000000Y-161550000D03*
X146000000Y-165550000D03*
D29*
X159750000Y-169250000D03*
X157250000Y-187750000D03*
X160500000Y-193750000D03*
X167000000Y-193750000D03*
X158000000Y-195250000D03*
X135500000Y-190250000D03*
X135500000Y-194250000D03*
D31*
X277000000Y-106750000D03*
X283000000Y-106750000D03*
X280000000Y-106750000D03*
X121000000Y-106750000D03*
X205000000Y-106750000D03*
X175000000Y-106750000D03*
X148000000Y-106750000D03*
X133000000Y-106750000D03*
X139000000Y-106750000D03*
X211000000Y-106750000D03*
X112000000Y-106750000D03*
X106000000Y-106750000D03*
X187000000Y-106750000D03*
X232000000Y-106750000D03*
X253000000Y-106750000D03*
X145000000Y-106750000D03*
X199000000Y-106750000D03*
X241000000Y-106750000D03*
X166000000Y-106750000D03*
X247000000Y-106750000D03*
X220000000Y-106750000D03*
X172000000Y-106750000D03*
X223000000Y-106750000D03*
X265000000Y-106750000D03*
X184000000Y-106750000D03*
X160000000Y-106750000D03*
X154000000Y-106750000D03*
X271000000Y-106750000D03*
X268000000Y-106750000D03*
X217000000Y-106750000D03*
X127000000Y-106750000D03*
X235000000Y-106750000D03*
X262000000Y-106750000D03*
X124000000Y-106750000D03*
X109000000Y-106750000D03*
X214000000Y-106750000D03*
X178000000Y-106750000D03*
X208000000Y-106750000D03*
X142000000Y-106750000D03*
X136000000Y-106750000D03*
X130000000Y-106750000D03*
X202000000Y-106750000D03*
X256000000Y-106750000D03*
X181000000Y-106750000D03*
X115000000Y-106750000D03*
X229000000Y-106750000D03*
X244000000Y-106750000D03*
X193000000Y-106750000D03*
X190000000Y-106750000D03*
X274000000Y-106750000D03*
X151000000Y-106750000D03*
X238000000Y-106750000D03*
X226000000Y-106750000D03*
X157000000Y-106750000D03*
X169000000Y-106750000D03*
X250000000Y-106750000D03*
X163000000Y-106750000D03*
X118000000Y-106750000D03*
X259000000Y-106750000D03*
X196000000Y-106750000D03*
X185500000Y-105250000D03*
X149500000Y-105250000D03*
X263500000Y-105250000D03*
X161500000Y-105250000D03*
X248500000Y-105250000D03*
X215500000Y-105250000D03*
X212500000Y-105250000D03*
X197500000Y-105250000D03*
X140500000Y-105250000D03*
X173500000Y-105250000D03*
X125500000Y-105250000D03*
X116500000Y-105250000D03*
X107500000Y-105250000D03*
X104500000Y-105250000D03*
X194500000Y-105250000D03*
X218500000Y-105250000D03*
X155500000Y-105250000D03*
X260500000Y-105250000D03*
X206500000Y-105250000D03*
X278500000Y-105250000D03*
X245500000Y-105250000D03*
X200500000Y-105250000D03*
X188500000Y-105250000D03*
X182500000Y-105250000D03*
X170500000Y-105250000D03*
X236500000Y-105250000D03*
X179500000Y-105250000D03*
X152500000Y-105250000D03*
X230500000Y-105250000D03*
X227500000Y-105250000D03*
X224500000Y-105250000D03*
X167500000Y-105250000D03*
X137500000Y-105250000D03*
X131500000Y-105250000D03*
X122500000Y-105250000D03*
X119500000Y-105250000D03*
X266500000Y-105250000D03*
X203500000Y-105250000D03*
X113500000Y-105250000D03*
X158500000Y-105250000D03*
X257500000Y-105250000D03*
X164500000Y-105250000D03*
X221500000Y-105250000D03*
X269500000Y-105250000D03*
X143500000Y-105250000D03*
X239500000Y-105250000D03*
X281500000Y-105250000D03*
X176500000Y-105250000D03*
X233500000Y-105250000D03*
X275500000Y-105250000D03*
X134500000Y-105250000D03*
X110500000Y-105250000D03*
X128500000Y-105250000D03*
X146500000Y-105250000D03*
X272500000Y-105250000D03*
X254500000Y-105250000D03*
X251500000Y-105250000D03*
X242500000Y-105250000D03*
X209500000Y-105250000D03*
X191500000Y-105250000D03*
X284500000Y-105250000D03*
X298000000Y-106750000D03*
X181750000Y-97750000D03*
X181750000Y-88750000D03*
X183250000Y-93250000D03*
X181750000Y-94750000D03*
X181750000Y-82750000D03*
X181750000Y-91750000D03*
X183250000Y-90250000D03*
X183250000Y-87250000D03*
X183250000Y-81250000D03*
X183250000Y-96250000D03*
X181750000Y-85750000D03*
X183250000Y-84250000D03*
X183250000Y-99250000D03*
X181750000Y-100750000D03*
X183250000Y-102250000D03*
X181750000Y-103750000D03*
D29*
X298750000Y-144250000D03*
X302250000Y-149000000D03*
X302250000Y-155000000D03*
X303312500Y-160250000D03*
X301437500Y-160250000D03*
X306250000Y-175000000D03*
X300250000Y-196250000D03*
X306250000Y-195500000D03*
X275250000Y-196000000D03*
X275250000Y-163750000D03*
X291750000Y-163750000D03*
X300250000Y-163750000D03*
X291750000Y-196250000D03*
D12*
X297432500Y-150300000D03*
X296800000Y-150300000D03*
X298067500Y-153700000D03*
D30*
X312000000Y-163000000D03*
X312000000Y-195000000D03*
X314000000Y-195000000D03*
D29*
X210000000Y-181250000D03*
X211500000Y-181250000D03*
X208500000Y-182750000D03*
X210000000Y-182750000D03*
X211500000Y-182750000D03*
X208500000Y-184250000D03*
X210000000Y-184250000D03*
X211500000Y-184250000D03*
X208500000Y-185750000D03*
X210000000Y-185750000D03*
X211500000Y-185750000D03*
X211500000Y-187250000D03*
X210000000Y-187250000D03*
X208500000Y-187250000D03*
X208500000Y-188750000D03*
X211500000Y-188750000D03*
X210000000Y-188750000D03*
X211500000Y-190250000D03*
X208500000Y-190250000D03*
X210000000Y-190250000D03*
X208500000Y-191750000D03*
X211500000Y-191750000D03*
X210000000Y-191750000D03*
X210000000Y-193250000D03*
X208500000Y-193250000D03*
X211500000Y-193250000D03*
X231500000Y-185750000D03*
X228500000Y-181250000D03*
X228500000Y-184250000D03*
X230000000Y-181250000D03*
X231500000Y-181250000D03*
X228500000Y-182750000D03*
X230000000Y-182750000D03*
X230000000Y-185750000D03*
X228500000Y-185750000D03*
X231500000Y-182750000D03*
X230000000Y-184250000D03*
X231500000Y-184250000D03*
X228500000Y-187250000D03*
X228500000Y-190250000D03*
X231500000Y-190250000D03*
X230000000Y-191750000D03*
X231500000Y-193250000D03*
X231500000Y-187250000D03*
X230000000Y-187250000D03*
X228500000Y-191750000D03*
X231500000Y-188750000D03*
X228500000Y-188750000D03*
X230000000Y-193250000D03*
X231500000Y-191750000D03*
X230000000Y-188750000D03*
X230000000Y-190250000D03*
X228500000Y-193250000D03*
X214750000Y-185750000D03*
X216250000Y-188750000D03*
X214750000Y-190250000D03*
X217750000Y-190250000D03*
X217750000Y-193250000D03*
X217750000Y-191750000D03*
X214750000Y-193250000D03*
X217750000Y-188750000D03*
X216250000Y-191750000D03*
X216250000Y-185750000D03*
X214750000Y-191750000D03*
X217750000Y-185750000D03*
X216250000Y-193250000D03*
X216250000Y-187250000D03*
X214750000Y-184250000D03*
X217750000Y-184250000D03*
X214750000Y-187250000D03*
X216250000Y-190250000D03*
X214750000Y-188750000D03*
X216250000Y-184250000D03*
X217750000Y-187250000D03*
X219250000Y-190250000D03*
X220750000Y-187250000D03*
X220750000Y-188750000D03*
X219250000Y-184250000D03*
X222250000Y-188750000D03*
X219250000Y-193250000D03*
X222250000Y-185750000D03*
X219250000Y-185750000D03*
X222250000Y-190250000D03*
X219250000Y-188750000D03*
X222250000Y-184250000D03*
X220750000Y-191750000D03*
X220750000Y-190250000D03*
X222250000Y-191750000D03*
X222250000Y-187250000D03*
X219250000Y-191750000D03*
X220750000Y-184250000D03*
X222250000Y-193250000D03*
X220750000Y-193250000D03*
X220750000Y-185750000D03*
X219250000Y-187250000D03*
X223750000Y-184250000D03*
X225250000Y-191750000D03*
X225250000Y-184250000D03*
X223750000Y-188750000D03*
X225250000Y-190250000D03*
X223750000Y-191750000D03*
X225250000Y-193250000D03*
X223750000Y-190250000D03*
X223750000Y-185750000D03*
X225250000Y-185750000D03*
X223750000Y-193250000D03*
X225250000Y-187250000D03*
X225250000Y-188750000D03*
X223750000Y-187250000D03*
X214750000Y-182750000D03*
X214750000Y-181250000D03*
X225250000Y-182750000D03*
X225250000Y-181250000D03*
X249000000Y-185750000D03*
X246000000Y-181250000D03*
X246000000Y-184250000D03*
X247500000Y-181250000D03*
X249000000Y-181250000D03*
X246000000Y-182750000D03*
X247500000Y-182750000D03*
X247500000Y-185750000D03*
X246000000Y-185750000D03*
X249000000Y-182750000D03*
X247500000Y-184250000D03*
X249000000Y-184250000D03*
X246000000Y-187250000D03*
X246000000Y-190250000D03*
X249000000Y-190250000D03*
X247500000Y-191750000D03*
X249000000Y-193250000D03*
X249000000Y-187250000D03*
X247500000Y-187250000D03*
X246000000Y-191750000D03*
X249000000Y-188750000D03*
X246000000Y-188750000D03*
X252250000Y-182750000D03*
X247500000Y-193250000D03*
X249000000Y-191750000D03*
X247500000Y-188750000D03*
X247500000Y-190250000D03*
X246000000Y-193250000D03*
X252250000Y-181250000D03*
X266000000Y-182750000D03*
X252250000Y-190250000D03*
X262750000Y-182750000D03*
X266000000Y-185750000D03*
X253750000Y-187250000D03*
X267500000Y-188750000D03*
X253750000Y-188750000D03*
X252250000Y-184250000D03*
X266000000Y-190250000D03*
X255250000Y-188750000D03*
X269000000Y-182750000D03*
X269000000Y-190250000D03*
X269000000Y-193250000D03*
X269000000Y-191750000D03*
X266000000Y-193250000D03*
X252250000Y-193250000D03*
X269000000Y-188750000D03*
X267500000Y-191750000D03*
X255250000Y-185750000D03*
X267500000Y-185750000D03*
X266000000Y-191750000D03*
X252250000Y-185750000D03*
X269000000Y-185750000D03*
X267500000Y-182750000D03*
X267500000Y-193250000D03*
X255250000Y-190250000D03*
X267500000Y-187250000D03*
X266000000Y-184250000D03*
X252250000Y-188750000D03*
X255250000Y-184250000D03*
X253750000Y-191750000D03*
X253750000Y-190250000D03*
X269000000Y-184250000D03*
X266000000Y-187250000D03*
X255250000Y-191750000D03*
X269000000Y-181250000D03*
X255250000Y-187250000D03*
X267500000Y-190250000D03*
X252250000Y-191750000D03*
X253750000Y-184250000D03*
X266000000Y-188750000D03*
X267500000Y-181250000D03*
X255250000Y-193250000D03*
X253750000Y-193250000D03*
X266000000Y-181250000D03*
X267500000Y-184250000D03*
X269000000Y-187250000D03*
X253750000Y-185750000D03*
X252250000Y-187250000D03*
X261250000Y-193250000D03*
X256750000Y-184250000D03*
X258250000Y-191750000D03*
X262750000Y-185750000D03*
X258250000Y-184250000D03*
X262750000Y-191750000D03*
X256750000Y-188750000D03*
X258250000Y-190250000D03*
X256750000Y-191750000D03*
X261250000Y-188750000D03*
X258250000Y-193250000D03*
X261250000Y-190250000D03*
X262750000Y-181250000D03*
X259750000Y-193250000D03*
X259750000Y-185750000D03*
X259750000Y-190250000D03*
X259750000Y-187250000D03*
X262750000Y-193250000D03*
X256750000Y-190250000D03*
X259750000Y-188750000D03*
X259750000Y-184250000D03*
X256750000Y-185750000D03*
X258250000Y-185750000D03*
X256750000Y-193250000D03*
X261250000Y-185750000D03*
X261250000Y-187250000D03*
X259750000Y-191750000D03*
X258250000Y-187250000D03*
X262750000Y-184250000D03*
X262750000Y-190250000D03*
X261250000Y-184250000D03*
X258250000Y-188750000D03*
X262750000Y-187250000D03*
X261250000Y-191750000D03*
X262750000Y-188750000D03*
X256750000Y-187250000D03*
X214000000Y-174250000D03*
X234000000Y-174250000D03*
X243500000Y-174250000D03*
X251500000Y-174250000D03*
X252250000Y-169750000D03*
X252250000Y-163750000D03*
X252250000Y-162250000D03*
X252250000Y-160750000D03*
X253750000Y-166750000D03*
X262750000Y-162250000D03*
X253750000Y-168250000D03*
X255250000Y-168250000D03*
X252250000Y-172750000D03*
X258250000Y-163750000D03*
X252250000Y-165250000D03*
X262750000Y-160750000D03*
X253750000Y-163750000D03*
X255250000Y-165250000D03*
X253750000Y-172750000D03*
X262750000Y-165250000D03*
X262750000Y-172750000D03*
X255250000Y-166750000D03*
X259750000Y-165250000D03*
X253750000Y-165250000D03*
X259750000Y-163750000D03*
X258250000Y-165250000D03*
X261250000Y-169750000D03*
X256750000Y-165250000D03*
X256750000Y-172750000D03*
X261250000Y-165250000D03*
X255250000Y-171250000D03*
X262750000Y-171250000D03*
X259750000Y-172750000D03*
X259750000Y-169750000D03*
X259750000Y-166750000D03*
X256750000Y-169750000D03*
X259750000Y-171250000D03*
X256750000Y-168250000D03*
X253750000Y-171250000D03*
X256750000Y-171250000D03*
X258250000Y-166750000D03*
X262750000Y-163750000D03*
X252250000Y-171250000D03*
X253750000Y-169750000D03*
X258250000Y-169750000D03*
X261250000Y-168250000D03*
X255250000Y-172750000D03*
X261250000Y-172750000D03*
X259750000Y-168250000D03*
X255250000Y-169750000D03*
X252250000Y-166750000D03*
X255250000Y-163750000D03*
X261250000Y-166750000D03*
X262750000Y-169750000D03*
X261250000Y-163750000D03*
X258250000Y-172750000D03*
X256750000Y-163750000D03*
X258250000Y-171250000D03*
X252250000Y-168250000D03*
X256750000Y-166750000D03*
X258250000Y-168250000D03*
X262750000Y-168250000D03*
X262750000Y-166750000D03*
X261250000Y-171250000D03*
X264250000Y-162250000D03*
X264250000Y-172750000D03*
X264250000Y-160750000D03*
X264250000Y-163750000D03*
X264250000Y-171250000D03*
X264250000Y-165250000D03*
X264250000Y-169750000D03*
X264250000Y-168250000D03*
X264250000Y-166750000D03*
X250750000Y-169750000D03*
X250750000Y-171250000D03*
X250750000Y-166750000D03*
X250750000Y-168250000D03*
X250750000Y-165250000D03*
X250750000Y-172750000D03*
X250750000Y-163750000D03*
X250750000Y-162250000D03*
X250750000Y-160750000D03*
X241437500Y-158500000D03*
X244937500Y-158500000D03*
X244937500Y-163000000D03*
X237937500Y-160500000D03*
X285750000Y-57500000D03*
X285750000Y-63500000D03*
X285750000Y-65500000D03*
X185250000Y-57500000D03*
X185250000Y-63500000D03*
X185250000Y-65500000D03*
X188500000Y-103500000D03*
X192500000Y-103500000D03*
X196500000Y-103500000D03*
X274750000Y-103500000D03*
X278750000Y-103500000D03*
X282750000Y-103500000D03*
X189750000Y-172500000D03*
X133750000Y-130300000D03*
D12*
X119700000Y-65750000D03*
D29*
X116750000Y-72250000D03*
X152750000Y-125250000D03*
D12*
X159250000Y-175250000D03*
X165000026Y-179250000D03*
D29*
X115750000Y-94155000D03*
X115750000Y-91615000D03*
D12*
X157500000Y-181500000D03*
X106250000Y-63250000D03*
X105250000Y-59250000D03*
X106250000Y-58250000D03*
X108250000Y-62250000D03*
X107250000Y-62250000D03*
X107250000Y-58250000D03*
X107250000Y-59250000D03*
X107250000Y-63250000D03*
X105250000Y-62250000D03*
X108250000Y-58250000D03*
X107250000Y-60250000D03*
X108250000Y-63250000D03*
X105250000Y-58250000D03*
X108250000Y-60250000D03*
X105250000Y-63250000D03*
X106250000Y-62250000D03*
X106250000Y-59250000D03*
X105250000Y-60250000D03*
X108250000Y-59250000D03*
X106250000Y-60250000D03*
X109250000Y-59250000D03*
X109250000Y-60250000D03*
X109250000Y-63250000D03*
X109250000Y-58250000D03*
X109250000Y-62250000D03*
X109250000Y-61250000D03*
X106250000Y-61250000D03*
X108250000Y-61250000D03*
X107250000Y-61250000D03*
X105250000Y-61250000D03*
X109250000Y-57250000D03*
X105250000Y-57250000D03*
X108250000Y-57250000D03*
X107250000Y-57250000D03*
X106250000Y-57250000D03*
X104250000Y-57250000D03*
X109250000Y-56250000D03*
X105250000Y-56250000D03*
X104250000Y-56250000D03*
X108250000Y-56250000D03*
X107250000Y-56250000D03*
X106250000Y-56250000D03*
X107200000Y-73800000D03*
X105200000Y-73800000D03*
X106200000Y-73800000D03*
X108200000Y-73800000D03*
X104200000Y-73800000D03*
X109200000Y-73800000D03*
X109200000Y-71800000D03*
X109200000Y-69800000D03*
X109200000Y-66800000D03*
X109200000Y-67800000D03*
X109200000Y-70800000D03*
X109200000Y-68800000D03*
X108200000Y-68800000D03*
X107200000Y-68800000D03*
X106200000Y-68800000D03*
X105200000Y-68800000D03*
X109200000Y-72800000D03*
X105200000Y-72800000D03*
X104200000Y-72800000D03*
X108200000Y-72800000D03*
X107200000Y-72800000D03*
X106200000Y-72800000D03*
X106200000Y-69800000D03*
X108200000Y-70800000D03*
X105200000Y-69800000D03*
X106200000Y-70800000D03*
X106200000Y-67800000D03*
X105200000Y-66800000D03*
X108200000Y-69800000D03*
X105200000Y-71800000D03*
X108200000Y-66800000D03*
X107200000Y-69800000D03*
X108200000Y-71800000D03*
X105200000Y-67800000D03*
X107200000Y-66800000D03*
X107200000Y-70800000D03*
X107200000Y-71800000D03*
X107200000Y-67800000D03*
X108200000Y-67800000D03*
X106200000Y-71800000D03*
X105200000Y-70800000D03*
X106200000Y-66800000D03*
X297150000Y-117500000D03*
X298150000Y-117500000D03*
X300150000Y-117500000D03*
X315250000Y-144000000D03*
X315250000Y-145000000D03*
X315250000Y-146000000D03*
X315250000Y-147000000D03*
X315250000Y-148000000D03*
X315250000Y-149000000D03*
X315250000Y-150000000D03*
X315250000Y-151000000D03*
X315250000Y-152000000D03*
X315250000Y-153000000D03*
X315250000Y-154000000D03*
X315250000Y-155000000D03*
X315250000Y-156000000D03*
X315250000Y-157000000D03*
X315250000Y-158000000D03*
X315250000Y-159000000D03*
X315250000Y-160000000D03*
X314250000Y-144000000D03*
X314250000Y-157000000D03*
X314250000Y-146000000D03*
X314250000Y-159000000D03*
X314250000Y-145000000D03*
X314250000Y-160000000D03*
X314250000Y-151000000D03*
X314250000Y-153000000D03*
X314250000Y-155000000D03*
X314250000Y-149000000D03*
X314250000Y-154000000D03*
X314250000Y-158000000D03*
X314250000Y-156000000D03*
X314250000Y-152000000D03*
X314250000Y-150000000D03*
X314250000Y-147000000D03*
X314250000Y-148000000D03*
X313250000Y-157000000D03*
X313250000Y-147000000D03*
X313250000Y-151000000D03*
X313250000Y-156000000D03*
X313250000Y-150000000D03*
X313250000Y-148000000D03*
X313250000Y-154000000D03*
X313250000Y-152000000D03*
X313250000Y-153000000D03*
X313250000Y-155000000D03*
X313250000Y-149000000D03*
X312250000Y-154000000D03*
X312250000Y-150000000D03*
X312250000Y-153000000D03*
X312250000Y-151000000D03*
X312250000Y-148000000D03*
X312250000Y-149000000D03*
X312250000Y-156000000D03*
X312250000Y-152000000D03*
X312250000Y-155000000D03*
X311250000Y-156000000D03*
X311250000Y-152000000D03*
X311250000Y-153000000D03*
X311250000Y-150000000D03*
X311250000Y-149000000D03*
X311250000Y-154000000D03*
X311250000Y-155000000D03*
X311250000Y-148000000D03*
X311250000Y-151000000D03*
X310250000Y-148000000D03*
X310250000Y-149000000D03*
X310250000Y-147000000D03*
X309250000Y-146000000D03*
X308250000Y-146000000D03*
X308250000Y-145000000D03*
X308250000Y-144000000D03*
X309250000Y-144000000D03*
X309250000Y-145000000D03*
X308250000Y-147000000D03*
X309250000Y-147000000D03*
X309250000Y-158000000D03*
X309250000Y-159000000D03*
X309250000Y-160000000D03*
X310250000Y-160000000D03*
X308250000Y-160000000D03*
X308250000Y-159000000D03*
X308250000Y-158000000D03*
X313250000Y-160000000D03*
X313250000Y-144000000D03*
X310250000Y-144000000D03*
X310250000Y-157000000D03*
D29*
X122750000Y-179000000D03*
X140000000Y-56500000D03*
X139500000Y-58500000D03*
D31*
X283250000Y-152750000D03*
D29*
X310250000Y-99500000D03*
X310750000Y-51500000D03*
X310250000Y-49500000D03*
X110000000Y-51500000D03*
X157750000Y-102500000D03*
X157750000Y-97000000D03*
X157750000Y-91500000D03*
X148750000Y-94155000D03*
X144312500Y-95000000D03*
X159500000Y-93500000D03*
X165750000Y-94155000D03*
X174750000Y-90250000D03*
X169000000Y-95250000D03*
X160750000Y-83250000D03*
X297500000Y-159750000D03*
X285000000Y-162250000D03*
X291000000Y-162250000D03*
X290000000Y-152750000D03*
X292000000Y-152750000D03*
X214250000Y-128250000D03*
X214250000Y-123250000D03*
X266000000Y-135000000D03*
X120000000Y-130750000D03*
D12*
X192250000Y-50000000D03*
X192250000Y-52000000D03*
X194500000Y-51000000D03*
X190000000Y-51000000D03*
X281000000Y-51500000D03*
X278750000Y-52500000D03*
X276500000Y-51500000D03*
X278750000Y-50500000D03*
X278750000Y-51500000D03*
D29*
X197000000Y-50212500D03*
X274000000Y-52287500D03*
X275000000Y-46750000D03*
X281000000Y-46750000D03*
X178500000Y-103500000D03*
X289500000Y-133000000D03*
X295000000Y-133000000D03*
D12*
X299150000Y-117500000D03*
D29*
X221500000Y-132750000D03*
X221500000Y-137250000D03*
X232000000Y-123962500D03*
X231787500Y-120250000D03*
X226000000Y-114787500D03*
X221500000Y-127712500D03*
X277962500Y-114250000D03*
X277962500Y-126750000D03*
D12*
X276500000Y-61450000D03*
X118100000Y-68700000D03*
X135250000Y-98000000D03*
X273500000Y-113750000D03*
X274150000Y-123800000D03*
X276300000Y-60750000D03*
X269750000Y-123750000D03*
X245500000Y-140000000D03*
X243250000Y-140000000D03*
X267550000Y-121800000D03*
X162750000Y-180500000D03*
X117300000Y-68700000D03*
X133000000Y-98000000D03*
X116500000Y-68700000D03*
X130750000Y-98000000D03*
X115700000Y-68700000D03*
X128500000Y-98000000D03*
X114000000Y-52675000D03*
X148750000Y-92885000D03*
X285937500Y-121937500D03*
X286725000Y-119075000D03*
X276700000Y-62150000D03*
D29*
X195500000Y-59249996D03*
D12*
X194500000Y-50050000D03*
X276500000Y-52450000D03*
D29*
X218000000Y-127712500D03*
X218000000Y-132750000D03*
D12*
X269250000Y-120000000D03*
X272650000Y-123900000D03*
X276000000Y-121750000D03*
X269350000Y-122000000D03*
X276100000Y-60050000D03*
D29*
X193400000Y-61350000D03*
X194800000Y-59950000D03*
X194100000Y-60650000D03*
X197000000Y-51787500D03*
X275000000Y-49900000D03*
X274000000Y-50712500D03*
D12*
X297200000Y-153600004D03*
X295500000Y-146250000D03*
X250000000Y-140000000D03*
X271500000Y-124250000D03*
X241000000Y-140000000D03*
X269350000Y-118600000D03*
X119600000Y-68700000D03*
X137500000Y-98000000D03*
D32*
X283212500Y-58837500D02*
X284000000Y-59625000D01*
X283212500Y-57500000D02*
X283212500Y-58837500D01*
X187787500Y-57500000D02*
X187787500Y-56250000D01*
X187787500Y-58775000D02*
X187000000Y-59562500D01*
X187787500Y-57500000D02*
X187787500Y-58775000D01*
X283212500Y-57500000D02*
X283212500Y-56250000D01*
X279725000Y-49037500D02*
X278937500Y-48250000D01*
X281000000Y-49037500D02*
X279725000Y-49037500D01*
X281000000Y-49037500D02*
X290837500Y-49037500D01*
X290837500Y-49037500D02*
X303000000Y-61200000D01*
X303000000Y-61200000D02*
X303000000Y-107000000D01*
X303000000Y-107000000D02*
X295000000Y-115000000D01*
D33*
X166250000Y-92500000D02*
X166635000Y-92885000D01*
X150865000Y-92885000D02*
X151250000Y-92500000D01*
X151250000Y-92500000D02*
X166250000Y-92500000D01*
X292750000Y-95750000D02*
X292750000Y-69537500D01*
X287000000Y-101500000D02*
X292750000Y-95750000D01*
X199000000Y-103000000D02*
X199000000Y-105250000D01*
X199750000Y-106000000D02*
X270250000Y-106000000D01*
X270250000Y-106000000D02*
X271000000Y-105250000D01*
X197500000Y-101500000D02*
X199000000Y-103000000D01*
X171250000Y-101500000D02*
X197500000Y-101500000D01*
X273750000Y-101500000D02*
X287000000Y-101500000D01*
X166635000Y-92885000D02*
X166635000Y-96885000D01*
X271000000Y-105250000D02*
X271000000Y-104250000D01*
X166635000Y-96885000D02*
X171250000Y-101500000D01*
X199000000Y-105250000D02*
X199750000Y-106000000D01*
X271000000Y-104250000D02*
X273750000Y-101500000D01*
D34*
X276750000Y-70750000D02*
X276750000Y-68250000D01*
X277500000Y-68000014D02*
X277500000Y-71500000D01*
X278250000Y-67750000D02*
X278250000Y-72325010D01*
X279000000Y-72999990D02*
X278999990Y-73000000D01*
X279000000Y-67500000D02*
X279000000Y-72999990D01*
X279750000Y-67250000D02*
X279750000Y-73750000D01*
X280500000Y-67000000D02*
X280500000Y-73851002D01*
X280500000Y-73851002D02*
X279851002Y-74500000D01*
X279851002Y-74500000D02*
X279000000Y-74500000D01*
D33*
X200750000Y-109500000D02*
X201250000Y-109000000D01*
X201250000Y-109000000D02*
X279250000Y-109000000D01*
X279250000Y-109000000D02*
X284750000Y-103500000D01*
X284750000Y-103500000D02*
X284750000Y-102437500D01*
X194500000Y-103750000D02*
X194500000Y-102437500D01*
X197250000Y-106500000D02*
X194500000Y-103750000D01*
X197250000Y-109500000D02*
X197250000Y-106500000D01*
X194750000Y-115500000D02*
X200750000Y-109500000D01*
X194750000Y-150500000D02*
X194750000Y-115500000D01*
X153750000Y-180500000D02*
X153750000Y-168500000D01*
X164000000Y-158250000D02*
X188500000Y-158250000D01*
X154000000Y-180750000D02*
X153750000Y-180500000D01*
X191750000Y-153500000D02*
X194750000Y-150500000D01*
X191750000Y-155000000D02*
X191750000Y-153500000D01*
X153750000Y-168500000D02*
X164000000Y-158250000D01*
X188500000Y-158250000D02*
X191750000Y-155000000D01*
X191250000Y-104250000D02*
X190500000Y-103500000D01*
X194500000Y-106750000D02*
X192000000Y-104250000D01*
X194500000Y-108750000D02*
X194500000Y-106750000D01*
X190500000Y-103500000D02*
X190500000Y-102437500D01*
X192000000Y-104250000D02*
X191250000Y-104250000D01*
X200250000Y-108750000D02*
X200500000Y-108500000D01*
X280750000Y-104500000D02*
X280750000Y-102437500D01*
X276750000Y-108500000D02*
X280750000Y-104500000D01*
X200500000Y-108500000D02*
X276750000Y-108500000D01*
X194250000Y-114750000D02*
X200250000Y-108750000D01*
X194250000Y-150500000D02*
X194250000Y-114750000D01*
X191250000Y-155000000D02*
X191250000Y-153500000D01*
X188500000Y-157750000D02*
X191250000Y-155000000D01*
X153500000Y-181500000D02*
X153250000Y-181250000D01*
X153250000Y-181250000D02*
X153250000Y-168500000D01*
X154000000Y-181500000D02*
X153500000Y-181500000D01*
X153250000Y-168500000D02*
X164000000Y-157750000D01*
X191250000Y-153500000D02*
X194250000Y-150500000D01*
X164000000Y-157750000D02*
X188500000Y-157750000D01*
X276750000Y-105500000D02*
X276750000Y-102437500D01*
X199718750Y-108000000D02*
X274250000Y-108000000D01*
X274250000Y-108000000D02*
X276750000Y-105500000D01*
X197468750Y-110250000D02*
X199718750Y-108000000D01*
X193750000Y-110250000D02*
X197468750Y-110250000D01*
X191500000Y-108000000D02*
X193750000Y-110250000D01*
X190035210Y-108000000D02*
X191500000Y-108000000D01*
X186500000Y-102437500D02*
X186500000Y-104464790D01*
X186500000Y-104464790D02*
X190035210Y-108000000D01*
X190750000Y-153500000D02*
X193750000Y-150500000D01*
X188500000Y-157250000D02*
X190750000Y-155000000D01*
X153750000Y-182250000D02*
X152750000Y-181250000D01*
X154000000Y-182250000D02*
X153750000Y-182250000D01*
X190750000Y-155000000D02*
X190750000Y-153500000D01*
X152750000Y-181250000D02*
X152750000Y-168500000D01*
X152750000Y-168500000D02*
X164000000Y-157250000D01*
X193750000Y-150500000D02*
X193750000Y-110250000D01*
X164000000Y-157250000D02*
X188500000Y-157250000D01*
D34*
X281750000Y-57250000D02*
X278750000Y-54250000D01*
D33*
X113750000Y-57500000D02*
X113750000Y-56250000D01*
X113750000Y-56250000D02*
X112000000Y-54500000D01*
X112000000Y-51962500D02*
X108537500Y-48500000D01*
X112000000Y-54500000D02*
X112000000Y-51962500D01*
D34*
X111250000Y-169500000D02*
X111250000Y-153000000D01*
X121500000Y-179750000D02*
X111250000Y-169500000D01*
X107250000Y-128250000D02*
X111750000Y-123750000D01*
X111250000Y-153000000D02*
X107250000Y-149000000D01*
X111750000Y-123750000D02*
X116790000Y-123750000D01*
X107250000Y-149000000D02*
X107250000Y-128250000D01*
D33*
X129750000Y-182500000D02*
X129750000Y-180500000D01*
X128500000Y-144000000D02*
X130000000Y-144000000D01*
X129500000Y-180250000D02*
X129500000Y-152750000D01*
X127500000Y-150750000D02*
X127500000Y-145000000D01*
X154100000Y-188500000D02*
X135750000Y-188500000D01*
X129750000Y-180500000D02*
X129500000Y-180250000D01*
X129500000Y-152750000D02*
X127500000Y-150750000D01*
X154400000Y-188200000D02*
X154100000Y-188500000D01*
X135750000Y-188500000D02*
X129750000Y-182500000D01*
X127500000Y-145000000D02*
X128500000Y-144000000D01*
X154400000Y-184250000D02*
X158250000Y-184250000D01*
X159750000Y-180500000D02*
X160500000Y-179750000D01*
X160500000Y-179750000D02*
X160500000Y-173500000D01*
X160500000Y-173500000D02*
X162250000Y-171750000D01*
X125500000Y-126750000D02*
X125500000Y-144000000D01*
X113750000Y-94155000D02*
X114000000Y-94405000D01*
X114000000Y-104750000D02*
X119500000Y-110250000D01*
X114000000Y-94405000D02*
X114000000Y-104750000D01*
X119500000Y-110250000D02*
X119500000Y-120750000D01*
X119500000Y-120750000D02*
X125500000Y-126750000D01*
X124750000Y-151500000D02*
X124750000Y-150750000D01*
X127500000Y-154250000D02*
X124750000Y-151500000D01*
X127750000Y-181500000D02*
X127750000Y-180500000D01*
X127750000Y-180500000D02*
X128000000Y-180250000D01*
X153600000Y-189750000D02*
X153350000Y-189500000D01*
X125500000Y-150000000D02*
X125500000Y-144000000D01*
X128000000Y-180250000D02*
X128000000Y-173250000D01*
X127500000Y-171250000D02*
X127500000Y-154250000D01*
X128000000Y-173250000D02*
X127000000Y-172250000D01*
X153350000Y-189500000D02*
X135750000Y-189500000D01*
X127000000Y-172250000D02*
X127000000Y-171750000D01*
X124750000Y-150750000D02*
X125500000Y-150000000D01*
X135750000Y-189500000D02*
X127750000Y-181500000D01*
X127000000Y-171750000D02*
X127500000Y-171250000D01*
X155750000Y-168500000D02*
X155750000Y-173950000D01*
X164000000Y-160250000D02*
X155750000Y-168500000D01*
X195250000Y-153500000D02*
X188500000Y-160250000D01*
X188500000Y-160250000D02*
X164000000Y-160250000D01*
X204500000Y-146500000D02*
X201750000Y-149250000D01*
X155750000Y-173950000D02*
X155950000Y-174150000D01*
X204500000Y-144000000D02*
X204500000Y-146500000D01*
X201250000Y-149250000D02*
X197000000Y-153500000D01*
X201750000Y-149250000D02*
X201250000Y-149250000D01*
X197000000Y-153500000D02*
X195250000Y-153500000D01*
X153600000Y-183600000D02*
X153600000Y-184250000D01*
X151000000Y-174000000D02*
X151250000Y-174250000D01*
X151250000Y-181250000D02*
X153600000Y-183600000D01*
X151250000Y-174250000D02*
X151250000Y-181250000D01*
X125000000Y-145750000D02*
X123250000Y-144000000D01*
X125000000Y-150000000D02*
X125000000Y-145750000D01*
X127500000Y-177000000D02*
X127500000Y-173500000D01*
X126500000Y-171500000D02*
X127000000Y-171000000D01*
X127000000Y-154250000D02*
X124250000Y-151500000D01*
X127250000Y-177250000D02*
X127500000Y-177000000D01*
X124250000Y-150750000D02*
X125000000Y-150000000D01*
X126500000Y-172500000D02*
X126500000Y-171500000D01*
X124250000Y-151500000D02*
X124250000Y-150750000D01*
X127000000Y-171000000D02*
X127000000Y-154250000D01*
X127500000Y-173500000D02*
X126500000Y-172500000D01*
X127000000Y-144750000D02*
X127750000Y-144000000D01*
X129000000Y-152750000D02*
X127000000Y-150750000D01*
X127000000Y-150750000D02*
X127000000Y-144750000D01*
X129000000Y-181000000D02*
X129000000Y-152750000D01*
X128000000Y-154250000D02*
X128000000Y-171750000D01*
X125250000Y-151500000D02*
X128000000Y-154250000D01*
X120000000Y-120750000D02*
X126000000Y-126750000D01*
X114500000Y-104750000D02*
X120000000Y-110250000D01*
X120000000Y-110250000D02*
X120000000Y-120750000D01*
X113750000Y-92885000D02*
X114500000Y-93635000D01*
X125250000Y-150750000D02*
X125250000Y-151500000D01*
X126000000Y-126750000D02*
X126000000Y-143500000D01*
X126250000Y-144250000D02*
X126000000Y-144500000D01*
X114500000Y-93635000D02*
X114500000Y-104750000D01*
X126000000Y-150000000D02*
X125250000Y-150750000D01*
X126000000Y-143500000D02*
X126250000Y-143750000D01*
X126250000Y-143750000D02*
X126250000Y-144250000D01*
X126000000Y-144500000D02*
X126000000Y-150000000D01*
X128000000Y-171750000D02*
X127750000Y-172000000D01*
X156000000Y-176250000D02*
X156250000Y-176250000D01*
X155250000Y-175500000D02*
X156000000Y-176250000D01*
X155250000Y-168500000D02*
X155250000Y-175500000D01*
X164000000Y-159750000D02*
X155250000Y-168500000D01*
X202250000Y-144000000D02*
X202250000Y-146500000D01*
X202250000Y-146500000D02*
X198750000Y-150000000D01*
X198750000Y-150000000D02*
X198250000Y-150000000D01*
X188500000Y-159750000D02*
X164000000Y-159750000D01*
X198250000Y-150000000D02*
X188500000Y-159750000D01*
X220000000Y-120500000D02*
X220250000Y-120250000D01*
X213500000Y-120500000D02*
X220000000Y-120500000D01*
X204500000Y-140000000D02*
X204500000Y-129500000D01*
X204500000Y-129500000D02*
X213500000Y-120500000D01*
X156250000Y-168500000D02*
X164000000Y-160750000D01*
X157000000Y-174250000D02*
X156250000Y-173500000D01*
X156250000Y-179000000D02*
X157000000Y-178250000D01*
X203500000Y-149750000D02*
X206750000Y-146500000D01*
X157000000Y-178250000D02*
X157000000Y-174250000D01*
X206750000Y-146500000D02*
X206750000Y-144000000D01*
X201250000Y-149750000D02*
X203500000Y-149750000D01*
X156250000Y-173500000D02*
X156250000Y-168500000D01*
X164000000Y-160750000D02*
X188500000Y-160750000D01*
X188500000Y-160750000D02*
X195250000Y-154000000D01*
X195250000Y-154000000D02*
X197000000Y-154000000D01*
X197000000Y-154000000D02*
X201250000Y-149750000D01*
X202250000Y-130750000D02*
X202250000Y-140000000D01*
X217500000Y-119750000D02*
X213250000Y-119750000D01*
X213250000Y-119750000D02*
X202250000Y-130750000D01*
X155750000Y-178250000D02*
X156250000Y-178250000D01*
X154750000Y-177250000D02*
X155750000Y-178250000D01*
X200000000Y-147750000D02*
X188500000Y-159250000D01*
X164000000Y-159250000D02*
X154750000Y-168500000D01*
X200000000Y-144000000D02*
X200000000Y-147750000D01*
X188500000Y-159250000D02*
X164000000Y-159250000D01*
X154750000Y-168500000D02*
X154750000Y-177250000D01*
X218250000Y-125250000D02*
X209750000Y-125250000D01*
X206750000Y-128250000D02*
X206750000Y-140000000D01*
X209750000Y-125250000D02*
X206750000Y-128250000D01*
X200000000Y-131875000D02*
X200000000Y-140000000D01*
X217500000Y-119000000D02*
X212875000Y-119000000D01*
X212875000Y-119000000D02*
X200000000Y-131875000D01*
X155500000Y-179750000D02*
X156250000Y-179750000D01*
X154250000Y-178500000D02*
X155500000Y-179750000D01*
X197750000Y-149500000D02*
X188500000Y-158750000D01*
X154250000Y-168500000D02*
X154250000Y-178500000D01*
X197750000Y-144000000D02*
X197750000Y-149500000D01*
X188500000Y-158750000D02*
X164000000Y-158750000D01*
X164000000Y-158750000D02*
X154250000Y-168500000D01*
X268750000Y-126000000D02*
X270500000Y-124250000D01*
X252250000Y-126000000D02*
X268750000Y-126000000D01*
X247750000Y-140000000D02*
X247750000Y-130500000D01*
X247750000Y-130500000D02*
X252250000Y-126000000D01*
X197750000Y-133000000D02*
X197750000Y-140000000D01*
X218250000Y-117250000D02*
X213500000Y-117250000D01*
X213500000Y-117250000D02*
X197750000Y-133000000D01*
X243250000Y-149500000D02*
X243250000Y-144000000D01*
X237750000Y-155000000D02*
X243250000Y-149500000D01*
X158000000Y-179500000D02*
X158000000Y-174250000D01*
X164000000Y-161750000D02*
X188500000Y-161750000D01*
X159750000Y-181250000D02*
X158000000Y-179500000D01*
X188500000Y-161750000D02*
X195250000Y-155000000D01*
X195250000Y-155000000D02*
X237750000Y-155000000D01*
X157250000Y-173500000D02*
X157250000Y-168500000D01*
X157250000Y-168500000D02*
X164000000Y-161750000D01*
X158000000Y-174250000D02*
X157250000Y-173500000D01*
X147250000Y-174500000D02*
X147250000Y-182310000D01*
X157750000Y-168500000D02*
X157750000Y-170500000D01*
X245500000Y-147750000D02*
X237750000Y-155500000D01*
X237750000Y-155500000D02*
X195250000Y-155500000D01*
X157750000Y-170500000D02*
X158000000Y-170750000D01*
X164000000Y-162250000D02*
X157750000Y-168500000D01*
X245500000Y-144000000D02*
X245500000Y-147750000D01*
X195250000Y-155500000D02*
X188500000Y-162250000D01*
X188500000Y-162250000D02*
X164000000Y-162250000D01*
X241000000Y-151250000D02*
X241000000Y-144000000D01*
X237750000Y-154500000D02*
X241000000Y-151250000D01*
X159000000Y-181250000D02*
X157500000Y-179750000D01*
X157500000Y-179750000D02*
X157500000Y-174250000D01*
X188500000Y-161250000D02*
X195250000Y-154500000D01*
X156750000Y-173500000D02*
X156750000Y-168500000D01*
X156750000Y-168500000D02*
X164000000Y-161250000D01*
X157500000Y-174250000D02*
X156750000Y-173500000D01*
X164000000Y-161250000D02*
X188500000Y-161250000D01*
X195250000Y-154500000D02*
X237750000Y-154500000D01*
X158750000Y-183000000D02*
X159000000Y-182750000D01*
X152250000Y-181250000D02*
X154000000Y-183000000D01*
X154000000Y-183000000D02*
X158750000Y-183000000D01*
X152500000Y-167750000D02*
X152250000Y-168000000D01*
X159000000Y-182750000D02*
X159000000Y-181250000D01*
X152250000Y-168000000D02*
X152250000Y-181250000D01*
X148000000Y-174500000D02*
X148000000Y-179250000D01*
X158375000Y-171500000D02*
X158000000Y-171500000D01*
X158750000Y-171125000D02*
X158375000Y-171500000D01*
X158250000Y-170000000D02*
X158750000Y-170500000D01*
X245500000Y-150250000D02*
X242000000Y-153750000D01*
X195250000Y-156000000D02*
X188500000Y-162750000D01*
X242000000Y-153750000D02*
X240000000Y-153750000D01*
X237750000Y-156000000D02*
X195250000Y-156000000D01*
X158750000Y-170500000D02*
X158750000Y-171125000D01*
X250000000Y-148250000D02*
X248000000Y-150250000D01*
X240000000Y-153750000D02*
X237750000Y-156000000D01*
X250000000Y-144000000D02*
X250000000Y-148250000D01*
X158250000Y-168500000D02*
X158250000Y-170000000D01*
X248000000Y-150250000D02*
X245500000Y-150250000D01*
X188500000Y-162750000D02*
X164000000Y-162750000D01*
X164000000Y-162750000D02*
X158250000Y-168500000D01*
X183790000Y-164500000D02*
X185790000Y-166500000D01*
X166000000Y-164500000D02*
X183790000Y-164500000D01*
X158000000Y-173000000D02*
X158000000Y-172500000D01*
X158000000Y-172500000D02*
X166000000Y-164500000D01*
X186540000Y-167250000D02*
X185790000Y-166500000D01*
X204750000Y-157250000D02*
X194750000Y-167250000D01*
X238000000Y-157250000D02*
X204750000Y-157250000D01*
X194750000Y-167250000D02*
X186540000Y-167250000D01*
X300000000Y-143500000D02*
X296500000Y-143500000D01*
X300750000Y-144250000D02*
X300000000Y-143500000D01*
X296500000Y-143500000D02*
X284750000Y-155250000D01*
X284750000Y-155250000D02*
X240000000Y-155250000D01*
X240000000Y-155250000D02*
X238000000Y-157250000D01*
X296250000Y-144250000D02*
X296750000Y-144250000D01*
X284750000Y-155750000D02*
X296250000Y-144250000D01*
X240000000Y-155750000D02*
X284750000Y-155750000D01*
X238000000Y-157750000D02*
X240000000Y-155750000D01*
X183250000Y-166500000D02*
X184500000Y-167750000D01*
X194750000Y-167750000D02*
X204750000Y-157750000D01*
X184500000Y-167750000D02*
X194750000Y-167750000D01*
X204750000Y-157750000D02*
X238000000Y-157750000D01*
X159000000Y-172000000D02*
X166000000Y-165000000D01*
X159000000Y-173000000D02*
X159000000Y-172000000D01*
X179210000Y-165000000D02*
X180710000Y-166500000D01*
X166000000Y-165000000D02*
X179210000Y-165000000D01*
X171500000Y-179500000D02*
X170750000Y-178750000D01*
X170750000Y-178750000D02*
X170750000Y-177250000D01*
X170750000Y-177250000D02*
X169750000Y-176250000D01*
X169750000Y-176250000D02*
X165000000Y-176250000D01*
X165000000Y-176250000D02*
X163750000Y-175000000D01*
X163750000Y-175000000D02*
X163750000Y-174250000D01*
X171500000Y-177000000D02*
X170000000Y-175500000D01*
X171500000Y-178500000D02*
X171500000Y-177000000D01*
X170000000Y-175500000D02*
X165000008Y-175500000D01*
X161000000Y-174000000D02*
X163250000Y-171750000D01*
X160500000Y-180500000D02*
X161000000Y-180000000D01*
X161000000Y-180000000D02*
X161000000Y-174000000D01*
X153000000Y-85500000D02*
X156750000Y-85500000D01*
X150000000Y-88500000D02*
X153000000Y-85500000D01*
X152200000Y-158500000D02*
X152200000Y-154950000D01*
X152200000Y-154950000D02*
X144750000Y-147500000D01*
X150000000Y-103250000D02*
X150000000Y-88500000D01*
X144750000Y-147500000D02*
X144750000Y-108500000D01*
X144750000Y-108500000D02*
X150000000Y-103250000D01*
X112750000Y-76500000D02*
X112750000Y-57500000D01*
X117250000Y-89250000D02*
X117250000Y-81000000D01*
X117250000Y-81000000D02*
X112750000Y-76500000D01*
X293750000Y-152000000D02*
X291000000Y-152000000D01*
X298702500Y-155500000D02*
X297250000Y-155500000D01*
X297250000Y-155500000D02*
X293750000Y-152000000D01*
X134500000Y-191750000D02*
X125500000Y-182750000D01*
X157250000Y-191750000D02*
X134500000Y-191750000D01*
X119800000Y-136800000D02*
X111750000Y-128750000D01*
X166750000Y-182250000D02*
X157250000Y-191750000D01*
X167000000Y-181500000D02*
X166750000Y-181750000D01*
X166750000Y-181750000D02*
X166750000Y-182250000D01*
X125500000Y-155500000D02*
X119800000Y-149800000D01*
X119800000Y-149800000D02*
X119800000Y-136800000D01*
X125500000Y-182750000D02*
X125500000Y-155500000D01*
X157250000Y-191250000D02*
X134500000Y-191250000D01*
X120250000Y-136750000D02*
X118060000Y-134560000D01*
X166250000Y-182250000D02*
X157250000Y-191250000D01*
X166500000Y-180500000D02*
X166250000Y-180750000D01*
X134500000Y-191250000D02*
X126000000Y-182750000D01*
X166250000Y-180750000D02*
X166250000Y-182250000D01*
X126000000Y-182750000D02*
X126000000Y-155500000D01*
X126000000Y-155500000D02*
X120250000Y-149750000D01*
X120250000Y-149750000D02*
X120250000Y-136750000D01*
X118060000Y-134560000D02*
X118060000Y-123750000D01*
X143230000Y-179770000D02*
X139250000Y-179770000D01*
X144250000Y-175960000D02*
X144250000Y-178750000D01*
X144250000Y-178750000D02*
X143230000Y-179770000D01*
X139250000Y-116250000D02*
X137000000Y-114000000D01*
X152500000Y-184500000D02*
X152500000Y-183500000D01*
X153500000Y-185500000D02*
X152500000Y-184500000D01*
X152500000Y-183500000D02*
X150250000Y-181250000D01*
X150250000Y-181250000D02*
X150250000Y-174500000D01*
X141500000Y-150500000D02*
X139750000Y-150500000D01*
X137000000Y-106500000D02*
X135250000Y-104750000D01*
X159800000Y-184400000D02*
X158700000Y-185500000D01*
X135250000Y-104750000D02*
X135250000Y-101500000D01*
X137000000Y-114000000D02*
X137000000Y-106500000D01*
X158700000Y-185500000D02*
X153500000Y-185500000D01*
X139250000Y-150000000D02*
X139250000Y-116250000D01*
X143250000Y-167500000D02*
X143250000Y-152250000D01*
X150250000Y-174500000D02*
X143250000Y-167500000D01*
X143250000Y-152250000D02*
X141500000Y-150500000D01*
X139750000Y-150500000D02*
X139250000Y-150000000D01*
X133000000Y-104750000D02*
X133000000Y-101500000D01*
X136500000Y-108250000D02*
X133000000Y-104750000D01*
X149750000Y-174500000D02*
X142750000Y-167500000D01*
X136500000Y-114000000D02*
X136500000Y-108250000D01*
X152000000Y-183500000D02*
X149750000Y-181250000D01*
X142750000Y-154000000D02*
X138750000Y-150000000D01*
X138750000Y-116250000D02*
X136500000Y-114000000D01*
X160600000Y-184400000D02*
X159000000Y-186000000D01*
X149750000Y-181250000D02*
X149750000Y-174500000D01*
X152000000Y-184500000D02*
X152000000Y-183500000D01*
X159000000Y-186000000D02*
X153500000Y-186000000D01*
X142750000Y-167500000D02*
X142750000Y-154000000D01*
X153500000Y-186000000D02*
X152000000Y-184500000D01*
X138750000Y-150000000D02*
X138750000Y-116250000D01*
X130750000Y-103000000D02*
X130750000Y-101500000D01*
X136000000Y-108250000D02*
X130750000Y-103000000D01*
X161400000Y-184400000D02*
X159300000Y-186500000D01*
X151500000Y-183500000D02*
X149250000Y-181250000D01*
X136000000Y-114000000D02*
X136000000Y-108250000D01*
X151500000Y-184500000D02*
X151500000Y-183500000D01*
X159300000Y-186500000D02*
X153500000Y-186500000D01*
X149250000Y-181250000D02*
X149250000Y-174500000D01*
X153500000Y-186500000D02*
X151500000Y-184500000D01*
X149250000Y-174500000D02*
X142250000Y-167500000D01*
X142250000Y-167500000D02*
X142250000Y-154000000D01*
X142250000Y-154000000D02*
X138250000Y-150000000D01*
X138250000Y-150000000D02*
X138250000Y-116250000D01*
X138250000Y-116250000D02*
X136000000Y-114000000D01*
X128500000Y-102500000D02*
X128500000Y-101500000D01*
X129000000Y-103000000D02*
X128500000Y-102500000D01*
X135500000Y-108250000D02*
X130250000Y-103000000D01*
X135500000Y-114000000D02*
X135500000Y-108250000D01*
X151000000Y-184500000D02*
X151000000Y-183500000D01*
X141750000Y-167500000D02*
X141750000Y-154000000D01*
X130250000Y-103000000D02*
X129000000Y-103000000D01*
X148750000Y-181250000D02*
X148750000Y-174500000D01*
X162200000Y-184400000D02*
X159600000Y-187000000D01*
X153500000Y-187000000D02*
X151000000Y-184500000D01*
X159600000Y-187000000D02*
X153500000Y-187000000D01*
X151000000Y-183500000D02*
X148750000Y-181250000D01*
X148750000Y-174500000D02*
X141750000Y-167500000D01*
X137750000Y-116250000D02*
X135500000Y-114000000D01*
X141750000Y-154000000D02*
X137750000Y-150000000D01*
X137750000Y-150000000D02*
X137750000Y-116250000D01*
X136500000Y-101500000D02*
X137500000Y-101500000D01*
X135600000Y-104600000D02*
X135600000Y-102400000D01*
X137500000Y-106500000D02*
X135600000Y-104600000D01*
X135600000Y-102400000D02*
X136500000Y-101500000D01*
X137500000Y-114000000D02*
X137500000Y-106500000D01*
X139750000Y-116250000D02*
X137500000Y-114000000D01*
X140750000Y-136750000D02*
X139750000Y-135750000D01*
X139750000Y-138750000D02*
X140750000Y-137750000D01*
X139750000Y-149500000D02*
X139750000Y-138750000D01*
X153000000Y-184500000D02*
X153000000Y-183500000D01*
X158250000Y-185000000D02*
X153500000Y-185000000D01*
X153500000Y-185000000D02*
X153000000Y-184500000D01*
X140250000Y-150000000D02*
X139750000Y-149500000D01*
X143750000Y-167500000D02*
X143750000Y-152250000D01*
X153000000Y-183500000D02*
X150750000Y-181250000D01*
X150750000Y-181250000D02*
X150750000Y-174500000D01*
X160350000Y-182900000D02*
X158250000Y-185000000D01*
X150750000Y-174500000D02*
X143750000Y-167500000D01*
X139750000Y-135750000D02*
X139750000Y-116250000D01*
X143750000Y-152250000D02*
X141500000Y-150000000D01*
X140750000Y-137750000D02*
X140750000Y-136750000D01*
X163000000Y-182900000D02*
X160350000Y-182900000D01*
X141500000Y-150000000D02*
X140250000Y-150000000D01*
X289750000Y-151250000D02*
X294050000Y-151250000D01*
X166000000Y-165500000D02*
X177250000Y-165500000D01*
X177250000Y-165500000D02*
X180000000Y-168250000D01*
X294050000Y-151250000D02*
X296400000Y-153600000D01*
X180000000Y-168250000D02*
X194750000Y-168250000D01*
X158750000Y-179250000D02*
X160000000Y-178000000D01*
X204750000Y-158250000D02*
X238000000Y-158250000D01*
X160000000Y-171500000D02*
X166000000Y-165500000D01*
X160000000Y-178000000D02*
X160000000Y-171500000D01*
X194750000Y-168250000D02*
X204750000Y-158250000D01*
X238000000Y-158250000D02*
X240000000Y-156250000D01*
X240000000Y-156250000D02*
X284750000Y-156250000D01*
X284750000Y-156250000D02*
X289750000Y-151250000D01*
X165250000Y-178500000D02*
X165000000Y-178500000D01*
X165750000Y-179000000D02*
X165250000Y-178500000D01*
X165750000Y-182250000D02*
X165750000Y-179000000D01*
X159000000Y-189000000D02*
X165750000Y-182250000D01*
X128250000Y-181500000D02*
X135750000Y-189000000D01*
X135750000Y-189000000D02*
X159000000Y-189000000D01*
X128250000Y-180625000D02*
X128250000Y-181500000D01*
X128500000Y-152750000D02*
X128500000Y-180375000D01*
X120500000Y-120750000D02*
X126500000Y-126750000D01*
X120500000Y-110250000D02*
X120500000Y-120750000D01*
X115000000Y-104750000D02*
X120500000Y-110250000D01*
X126750000Y-143500000D02*
X126750000Y-144250000D01*
X126500000Y-150750000D02*
X128500000Y-152750000D01*
X113750000Y-91615000D02*
X115000000Y-92865000D01*
X126500000Y-126750000D02*
X126500000Y-143250000D01*
X115000000Y-92865000D02*
X115000000Y-104750000D01*
X126500000Y-143250000D02*
X126750000Y-143500000D01*
X128500000Y-180375000D02*
X128250000Y-180625000D01*
X126500000Y-144500000D02*
X126500000Y-150750000D01*
X126750000Y-144250000D02*
X126500000Y-144500000D01*
D32*
X284787500Y-57500000D02*
X285750000Y-57500000D01*
X284787500Y-63500000D02*
X285750000Y-63500000D01*
X284787500Y-65500000D02*
X285750000Y-65500000D01*
X186212500Y-57500000D02*
X185250000Y-57500000D01*
X186212500Y-63500000D02*
X185250000Y-63500000D01*
X186212500Y-65500000D02*
X185250000Y-65500000D01*
X188500000Y-102437500D02*
X188500000Y-103500000D01*
X192500000Y-102437500D02*
X192500000Y-103500000D01*
X196500000Y-102437500D02*
X196500000Y-103500000D01*
X274750000Y-102437500D02*
X274750000Y-103500000D01*
X278750000Y-102437500D02*
X278750000Y-103500000D01*
X282750000Y-102437500D02*
X282750000Y-103500000D01*
X275000000Y-47462500D02*
X275000000Y-46750000D01*
X281000000Y-47462500D02*
X281000000Y-46750000D01*
X178500000Y-102437500D02*
X178500000Y-103500000D01*
X232000000Y-120462500D02*
X231787500Y-120250000D01*
X232000000Y-123962500D02*
X232000000Y-120462500D01*
X226325000Y-114787500D02*
X226000000Y-114787500D01*
X231787500Y-120250000D02*
X226325000Y-114787500D01*
X223712500Y-125500000D02*
X221500000Y-127712500D01*
X230500000Y-125500000D02*
X223712500Y-125500000D01*
X232000000Y-123962500D02*
X232000000Y-124000000D01*
X232000000Y-124000000D02*
X230500000Y-125500000D01*
X280750000Y-100562500D02*
X278750000Y-100562500D01*
D33*
X276500000Y-61450000D02*
X273500000Y-64250000D01*
X273500000Y-64250000D02*
X273500000Y-64450000D01*
X278750000Y-100562500D02*
X278750000Y-80250000D01*
X273500000Y-75000000D02*
X273500000Y-64250000D01*
X278750000Y-80250000D02*
X273500000Y-75000000D01*
X118100000Y-70350000D02*
X118100000Y-68700000D01*
X120000000Y-72250000D02*
X118100000Y-70350000D01*
X120000000Y-76000000D02*
X120000000Y-72250000D01*
X120500000Y-76500000D02*
X120000000Y-76000000D01*
X135250000Y-92000000D02*
X123500000Y-80250000D01*
X135250000Y-98000000D02*
X135250000Y-92000000D01*
X123500000Y-78500000D02*
X121500000Y-76500000D01*
X123500000Y-80250000D02*
X123500000Y-78500000D01*
X121500000Y-76500000D02*
X120500000Y-76500000D01*
X275200000Y-123800000D02*
X274150000Y-123800000D01*
X276750000Y-122250000D02*
X275200000Y-123800000D01*
X273500000Y-113750000D02*
X273500000Y-115750000D01*
X276750000Y-119000000D02*
X276750000Y-122250000D01*
X273500000Y-115750000D02*
X276750000Y-119000000D01*
D32*
X276750000Y-100562500D02*
X274750000Y-100562500D01*
D33*
X276250000Y-60750000D02*
X276300000Y-60750000D01*
X273000000Y-64000000D02*
X276250000Y-60750000D01*
X273000000Y-75250000D02*
X273000000Y-64000000D01*
X274750000Y-100562500D02*
X274750000Y-77000000D01*
X274750000Y-77000000D02*
X273000000Y-75250000D01*
X256000000Y-123750000D02*
X256250000Y-123750000D01*
X256250000Y-123750000D02*
X269750000Y-123750000D01*
X245500000Y-140000000D02*
X245500000Y-130500000D01*
X252250000Y-123750000D02*
X256250000Y-123750000D01*
X245500000Y-130500000D02*
X252250000Y-123750000D01*
X251950000Y-121800000D02*
X267550000Y-121800000D01*
X243250000Y-140000000D02*
X243250000Y-130500000D01*
X243250000Y-130500000D02*
X251950000Y-121800000D01*
X162000000Y-180500000D02*
X162750000Y-180500000D01*
X159000000Y-183500000D02*
X162000000Y-180500000D01*
X154000000Y-183500000D02*
X159000000Y-183500000D01*
X151750000Y-181250000D02*
X154000000Y-183500000D01*
X151750000Y-167500000D02*
X151750000Y-181250000D01*
X152250000Y-167000000D02*
X151750000Y-167500000D01*
X193250000Y-110500000D02*
X193250000Y-148750000D01*
X191750000Y-109000000D02*
X193250000Y-110500000D01*
X176500000Y-102437500D02*
X176500000Y-103750000D01*
X181750000Y-109000000D02*
X191750000Y-109000000D01*
X176500000Y-103750000D02*
X181750000Y-109000000D01*
X193250000Y-148750000D02*
X189500000Y-152500000D01*
X189500000Y-152500000D02*
X189500000Y-155750000D01*
X189500000Y-155750000D02*
X188500000Y-156750000D01*
X188500000Y-156750000D02*
X164000000Y-156750000D01*
X153750000Y-167000000D02*
X152250000Y-167000000D01*
X164000000Y-156750000D02*
X153750000Y-167000000D01*
X117300000Y-70050000D02*
X117300000Y-68700000D01*
X119500000Y-76750000D02*
X119500000Y-72250000D01*
X119500000Y-72250000D02*
X117300000Y-70050000D01*
X133000000Y-98000000D02*
X133000000Y-90250000D01*
X133000000Y-90250000D02*
X119500000Y-76750000D01*
X116500000Y-69750000D02*
X116500000Y-68700000D01*
X119000000Y-72250000D02*
X116500000Y-69750000D01*
X119000000Y-76750000D02*
X119000000Y-72250000D01*
X130750000Y-98000000D02*
X130750000Y-88500000D01*
X130750000Y-88500000D02*
X119000000Y-76750000D01*
X116000000Y-69750000D02*
X115999999Y-68999999D01*
X115999999Y-68999999D02*
X115700000Y-68700000D01*
X118500000Y-72250000D02*
X116000000Y-69750000D01*
X118500000Y-76750000D02*
X118500000Y-72250000D01*
X128750000Y-87000000D02*
X118500000Y-76750000D01*
X128500000Y-93750000D02*
X128000000Y-93250000D01*
X128000000Y-93250000D02*
X128000000Y-92250000D01*
X128500000Y-98000000D02*
X128500000Y-93750000D01*
X128750000Y-91500000D02*
X128750000Y-87000000D01*
X128000000Y-92250000D02*
X128750000Y-91500000D01*
X148750000Y-88500000D02*
X148750000Y-92885000D01*
X114000000Y-55500000D02*
X115500000Y-57000000D01*
X133500000Y-73250000D02*
X148750000Y-88500000D01*
X132000000Y-57000000D02*
X133500000Y-58500000D01*
X114000000Y-52675000D02*
X114000000Y-55500000D01*
X133500000Y-58500000D02*
X133500000Y-73250000D01*
X115500000Y-57000000D02*
X132000000Y-57000000D01*
X285937500Y-119862500D02*
X286725000Y-119075000D01*
X285937500Y-121937500D02*
X285937500Y-119862500D01*
D32*
X284750000Y-100562500D02*
X282750000Y-100562500D01*
D33*
X282750000Y-100562500D02*
X282750000Y-90000000D01*
X282750000Y-90000000D02*
X282750000Y-89750000D01*
X274000000Y-74750000D02*
X282750000Y-83500000D01*
X282750000Y-83500000D02*
X282750000Y-90000000D01*
X276700000Y-62150000D02*
X274000000Y-64850000D01*
X274000000Y-64850000D02*
X274000000Y-74750000D01*
D32*
X196500000Y-100562500D02*
X194500000Y-100562500D01*
D33*
X196500000Y-100562500D02*
X196500000Y-100250000D01*
X196500000Y-60250000D02*
X196500000Y-100562500D01*
X195500000Y-59249996D02*
X195500000Y-59250000D01*
X195500000Y-59250000D02*
X196500000Y-60250000D01*
X194500000Y-50050000D02*
X193700000Y-49250000D01*
X193700000Y-49250000D02*
X181750000Y-49250000D01*
X181750000Y-49250000D02*
X179250000Y-51750000D01*
X179250000Y-51750000D02*
X179250000Y-77250000D01*
X179250000Y-77250000D02*
X178000000Y-78500000D01*
X178000000Y-78500000D02*
X178000000Y-100562500D01*
D32*
X176500000Y-100562500D02*
X178500000Y-100562500D01*
D33*
X275950000Y-53000000D02*
X276500000Y-52450000D01*
X196250000Y-53000000D02*
X275950000Y-53000000D01*
X195500000Y-52250000D02*
X196250000Y-53000000D01*
X194500000Y-50050000D02*
X195500000Y-51050000D01*
X195500000Y-51050000D02*
X195500000Y-52250000D01*
D32*
X218000000Y-132750000D02*
X218000000Y-127712500D01*
D33*
X272650000Y-123900000D02*
X271750000Y-123000000D01*
X271750000Y-123000000D02*
X269050000Y-123000000D01*
X269050000Y-123000000D02*
X268450000Y-122400000D01*
X268450000Y-120800000D02*
X269250000Y-120000000D01*
X268450000Y-122400000D02*
X268450000Y-120800000D01*
X275500000Y-122250000D02*
X276000000Y-121750000D01*
X269600000Y-122250000D02*
X275500000Y-122250000D01*
X269350000Y-122000000D02*
X269600000Y-122250000D01*
D32*
X283212500Y-63500000D02*
X283212500Y-65500000D01*
X283212500Y-62287500D02*
X284000000Y-61500000D01*
X283212500Y-63500000D02*
X283212500Y-62287500D01*
X276550000Y-60050000D02*
X276100000Y-60050000D01*
X277750000Y-61250000D02*
X276550000Y-60050000D01*
X277750000Y-62750000D02*
X277750000Y-61250000D01*
X283212500Y-65500000D02*
X280500000Y-65500000D01*
X280500000Y-65500000D02*
X277750000Y-62750000D01*
X187787500Y-65500000D02*
X187787500Y-63500000D01*
X187787500Y-62225000D02*
X187000000Y-61437500D01*
X187787500Y-63500000D02*
X187787500Y-62225000D01*
X191750000Y-62250000D02*
X192650000Y-61350000D01*
X191750000Y-64250000D02*
X191750000Y-62250000D01*
X187787500Y-65500000D02*
X190500000Y-65500000D01*
X192650000Y-61350000D02*
X193400000Y-61350000D01*
X190500000Y-65500000D02*
X191750000Y-64250000D01*
X192500000Y-100562500D02*
X190500000Y-100562500D01*
D33*
X192500000Y-100562500D02*
X192500000Y-68000000D01*
X194800000Y-65700000D02*
X194800000Y-59950000D01*
X192500000Y-68000000D02*
X194800000Y-65700000D01*
D32*
X186500000Y-100562500D02*
X186500000Y-100750000D01*
X188500000Y-100562500D02*
X186500000Y-100562500D01*
D33*
X194100000Y-65650000D02*
X194100000Y-60650000D01*
X188500000Y-100500000D02*
X188500000Y-71250000D01*
X188500000Y-71250000D02*
X194100000Y-65650000D01*
D32*
X276275000Y-49037500D02*
X277062500Y-48250000D01*
X275000000Y-49037500D02*
X276275000Y-49037500D01*
X275000000Y-49037500D02*
X275000000Y-49900000D01*
X198075000Y-50712500D02*
X274000000Y-50712500D01*
X197000000Y-51787500D02*
X198075000Y-50712500D01*
D33*
X297200000Y-153600004D02*
X297200000Y-151700000D01*
X297200000Y-151700000D02*
X295500000Y-150000000D01*
X295500000Y-150000000D02*
X295500000Y-146250000D01*
X268500000Y-127250000D02*
X271500000Y-124250000D01*
X250000000Y-140000000D02*
X250000000Y-130500000D01*
X253250000Y-127250000D02*
X268500000Y-127250000D01*
X250000000Y-130500000D02*
X253250000Y-127250000D01*
X241000000Y-130500000D02*
X251400000Y-120100000D01*
X241000000Y-140000000D02*
X241000000Y-130500000D01*
X251400000Y-120100000D02*
X264050000Y-120100000D01*
X264950000Y-119200000D02*
X268750000Y-119200000D01*
X268750000Y-119200000D02*
X269350000Y-118600000D01*
X264050000Y-120100000D02*
X264950000Y-119200000D01*
X120500000Y-72250000D02*
X119600000Y-71350000D01*
X120500000Y-75750000D02*
X120500000Y-72250000D01*
X137500000Y-93750000D02*
X124000000Y-80250000D01*
X137500000Y-98000000D02*
X137500000Y-93750000D01*
X120750000Y-76000000D02*
X120500000Y-75750000D01*
X124000000Y-80250000D02*
X124000000Y-78500000D01*
X119600000Y-71350000D02*
X119600000Y-68700000D01*
X121500000Y-76000000D02*
X120750000Y-76000000D01*
X124000000Y-78500000D02*
X121500000Y-76000000D01*
D35*
G36*
X319650001Y-201650000D02*
G01*
X100350000Y-201650000D01*
X100350000Y-71850000D01*
X103900000Y-71850000D01*
X103900000Y-197500000D01*
X103901921Y-197519509D01*
X103907612Y-197538268D01*
X103916853Y-197555557D01*
X103929289Y-197570711D01*
X103944443Y-197583147D01*
X103961732Y-197592388D01*
X103980491Y-197598079D01*
X104000000Y-197600000D01*
X316000000Y-197600000D01*
X316019509Y-197598079D01*
X316038268Y-197592388D01*
X316055557Y-197583147D01*
X316070711Y-197570711D01*
X316083147Y-197555557D01*
X316092388Y-197538268D01*
X316098079Y-197519509D01*
X316100000Y-197500000D01*
X316100000Y-46000000D01*
X316098079Y-45980491D01*
X316092388Y-45961732D01*
X316083147Y-45944443D01*
X316070711Y-45929289D01*
X316055557Y-45916853D01*
X316038268Y-45907612D01*
X316019509Y-45901921D01*
X316000000Y-45900000D01*
X104000000Y-45900000D01*
X103980491Y-45901921D01*
X103961732Y-45907612D01*
X103944443Y-45916853D01*
X103929289Y-45929289D01*
X103916853Y-45944443D01*
X103907612Y-45961732D01*
X103901921Y-45980491D01*
X103900000Y-46000000D01*
X103900000Y-58150000D01*
X100350000Y-58150000D01*
X100350000Y-41850000D01*
X319650000Y-41850000D01*
X319650001Y-201650000D01*
G37*
X319650001Y-201650000D02*
X100350000Y-201650000D01*
X100350000Y-71850000D01*
X103900000Y-71850000D01*
X103900000Y-197500000D01*
X103901921Y-197519509D01*
X103907612Y-197538268D01*
X103916853Y-197555557D01*
X103929289Y-197570711D01*
X103944443Y-197583147D01*
X103961732Y-197592388D01*
X103980491Y-197598079D01*
X104000000Y-197600000D01*
X316000000Y-197600000D01*
X316019509Y-197598079D01*
X316038268Y-197592388D01*
X316055557Y-197583147D01*
X316070711Y-197570711D01*
X316083147Y-197555557D01*
X316092388Y-197538268D01*
X316098079Y-197519509D01*
X316100000Y-197500000D01*
X316100000Y-46000000D01*
X316098079Y-45980491D01*
X316092388Y-45961732D01*
X316083147Y-45944443D01*
X316070711Y-45929289D01*
X316055557Y-45916853D01*
X316038268Y-45907612D01*
X316019509Y-45901921D01*
X316000000Y-45900000D01*
X104000000Y-45900000D01*
X103980491Y-45901921D01*
X103961732Y-45907612D01*
X103944443Y-45916853D01*
X103929289Y-45929289D01*
X103916853Y-45944443D01*
X103907612Y-45961732D01*
X103901921Y-45980491D01*
X103900000Y-46000000D01*
X103900000Y-58150000D01*
X100350000Y-58150000D01*
X100350000Y-41850000D01*
X319650000Y-41850000D01*
X319650001Y-201650000D01*
D36*
G36*
X224950000Y-122950000D02*
G01*
X221550000Y-122950000D01*
X221550000Y-119550000D01*
X224950000Y-119550000D01*
X224950000Y-122950000D01*
G37*
X224950000Y-122950000D02*
X221550000Y-122950000D01*
X221550000Y-119550000D01*
X224950000Y-119550000D01*
X224950000Y-122950000D01*
D35*
G36*
X110150000Y-56541422D02*
G01*
X110150000Y-73458578D01*
X109458578Y-74150000D01*
X100350000Y-74150000D01*
X100350000Y-71850000D01*
X104482812Y-71850000D01*
X104500000Y-71851693D01*
X104568612Y-71844935D01*
X104634587Y-71824922D01*
X104695390Y-71792422D01*
X104748685Y-71748685D01*
X104792422Y-71695390D01*
X104824922Y-71634587D01*
X104844935Y-71568612D01*
X104850000Y-71517189D01*
X104851693Y-71500000D01*
X104850000Y-71482811D01*
X104850000Y-58517188D01*
X104851693Y-58500000D01*
X104844935Y-58431388D01*
X104824922Y-58365413D01*
X104792422Y-58304610D01*
X104748685Y-58251315D01*
X104695390Y-58207578D01*
X104634587Y-58175078D01*
X104568612Y-58155065D01*
X104517189Y-58150000D01*
X104517188Y-58150000D01*
X104500000Y-58148307D01*
X104482811Y-58150000D01*
X100350000Y-58150000D01*
X100350000Y-55850000D01*
X109458578Y-55850000D01*
X110150000Y-56541422D01*
G37*
X110150000Y-56541422D02*
X110150000Y-73458578D01*
X109458578Y-74150000D01*
X100350000Y-74150000D01*
X100350000Y-71850000D01*
X104482812Y-71850000D01*
X104500000Y-71851693D01*
X104568612Y-71844935D01*
X104634587Y-71824922D01*
X104695390Y-71792422D01*
X104748685Y-71748685D01*
X104792422Y-71695390D01*
X104824922Y-71634587D01*
X104844935Y-71568612D01*
X104850000Y-71517189D01*
X104851693Y-71500000D01*
X104850000Y-71482811D01*
X104850000Y-58517188D01*
X104851693Y-58500000D01*
X104844935Y-58431388D01*
X104824922Y-58365413D01*
X104792422Y-58304610D01*
X104748685Y-58251315D01*
X104695390Y-58207578D01*
X104634587Y-58175078D01*
X104568612Y-58155065D01*
X104517189Y-58150000D01*
X104517188Y-58150000D01*
X104500000Y-58148307D01*
X104482811Y-58150000D01*
X100350000Y-58150000D01*
X100350000Y-55850000D01*
X109458578Y-55850000D01*
X110150000Y-56541422D01*
G36*
X317898561Y-160650000D02*
G01*
X307100000Y-160650000D01*
X307100000Y-154700000D01*
X307597097Y-154700000D01*
X307597097Y-156300000D01*
X307608682Y-156417621D01*
X307642990Y-156530721D01*
X307698704Y-156634955D01*
X307773683Y-156726317D01*
X307865045Y-156801296D01*
X307969279Y-156857010D01*
X308082379Y-156891318D01*
X308200000Y-156902903D01*
X309800000Y-156902903D01*
X309917621Y-156891318D01*
X310030721Y-156857010D01*
X310134955Y-156801296D01*
X310226317Y-156726317D01*
X310301296Y-156634955D01*
X310357010Y-156530721D01*
X310391318Y-156417621D01*
X310402903Y-156300000D01*
X310402903Y-154700000D01*
X310391318Y-154582379D01*
X310357010Y-154469279D01*
X310301296Y-154365045D01*
X310226317Y-154273683D01*
X310134955Y-154198704D01*
X310030721Y-154142990D01*
X309917621Y-154108682D01*
X309867990Y-154103794D01*
X309892448Y-154087451D01*
X310087451Y-153892448D01*
X310240664Y-153663149D01*
X310346199Y-153408365D01*
X310400000Y-153137888D01*
X310400000Y-152862112D01*
X310346199Y-152591635D01*
X310240664Y-152336851D01*
X310087451Y-152107552D01*
X309979899Y-152000000D01*
X310087451Y-151892448D01*
X310240664Y-151663149D01*
X310346199Y-151408365D01*
X310400000Y-151137888D01*
X310400000Y-150862112D01*
X310346199Y-150591635D01*
X310240664Y-150336851D01*
X310087451Y-150107552D01*
X309892448Y-149912549D01*
X309663149Y-149759336D01*
X309408365Y-149653801D01*
X309137888Y-149600000D01*
X308862112Y-149600000D01*
X308591635Y-149653801D01*
X308336851Y-149759336D01*
X308107552Y-149912549D01*
X307912549Y-150107552D01*
X307759336Y-150336851D01*
X307653801Y-150591635D01*
X307600000Y-150862112D01*
X307600000Y-151137888D01*
X307653801Y-151408365D01*
X307759336Y-151663149D01*
X307912549Y-151892448D01*
X308020101Y-152000000D01*
X307912549Y-152107552D01*
X307759336Y-152336851D01*
X307653801Y-152591635D01*
X307600000Y-152862112D01*
X307600000Y-153137888D01*
X307653801Y-153408365D01*
X307759336Y-153663149D01*
X307912549Y-153892448D01*
X308107552Y-154087451D01*
X308132010Y-154103794D01*
X308082379Y-154108682D01*
X307969279Y-154142990D01*
X307865045Y-154198704D01*
X307773683Y-154273683D01*
X307698704Y-154365045D01*
X307642990Y-154469279D01*
X307608682Y-154582379D01*
X307597097Y-154700000D01*
X307100000Y-154700000D01*
X307100000Y-143350000D01*
X317651418Y-143350000D01*
X317898561Y-160650000D01*
G37*
X317898561Y-160650000D02*
X307100000Y-160650000D01*
X307100000Y-154700000D01*
X307597097Y-154700000D01*
X307597097Y-156300000D01*
X307608682Y-156417621D01*
X307642990Y-156530721D01*
X307698704Y-156634955D01*
X307773683Y-156726317D01*
X307865045Y-156801296D01*
X307969279Y-156857010D01*
X308082379Y-156891318D01*
X308200000Y-156902903D01*
X309800000Y-156902903D01*
X309917621Y-156891318D01*
X310030721Y-156857010D01*
X310134955Y-156801296D01*
X310226317Y-156726317D01*
X310301296Y-156634955D01*
X310357010Y-156530721D01*
X310391318Y-156417621D01*
X310402903Y-156300000D01*
X310402903Y-154700000D01*
X310391318Y-154582379D01*
X310357010Y-154469279D01*
X310301296Y-154365045D01*
X310226317Y-154273683D01*
X310134955Y-154198704D01*
X310030721Y-154142990D01*
X309917621Y-154108682D01*
X309867990Y-154103794D01*
X309892448Y-154087451D01*
X310087451Y-153892448D01*
X310240664Y-153663149D01*
X310346199Y-153408365D01*
X310400000Y-153137888D01*
X310400000Y-152862112D01*
X310346199Y-152591635D01*
X310240664Y-152336851D01*
X310087451Y-152107552D01*
X309979899Y-152000000D01*
X310087451Y-151892448D01*
X310240664Y-151663149D01*
X310346199Y-151408365D01*
X310400000Y-151137888D01*
X310400000Y-150862112D01*
X310346199Y-150591635D01*
X310240664Y-150336851D01*
X310087451Y-150107552D01*
X309892448Y-149912549D01*
X309663149Y-149759336D01*
X309408365Y-149653801D01*
X309137888Y-149600000D01*
X308862112Y-149600000D01*
X308591635Y-149653801D01*
X308336851Y-149759336D01*
X308107552Y-149912549D01*
X307912549Y-150107552D01*
X307759336Y-150336851D01*
X307653801Y-150591635D01*
X307600000Y-150862112D01*
X307600000Y-151137888D01*
X307653801Y-151408365D01*
X307759336Y-151663149D01*
X307912549Y-151892448D01*
X308020101Y-152000000D01*
X307912549Y-152107552D01*
X307759336Y-152336851D01*
X307653801Y-152591635D01*
X307600000Y-152862112D01*
X307600000Y-153137888D01*
X307653801Y-153408365D01*
X307759336Y-153663149D01*
X307912549Y-153892448D01*
X308107552Y-154087451D01*
X308132010Y-154103794D01*
X308082379Y-154108682D01*
X307969279Y-154142990D01*
X307865045Y-154198704D01*
X307773683Y-154273683D01*
X307698704Y-154365045D01*
X307642990Y-154469279D01*
X307608682Y-154582379D01*
X307597097Y-154700000D01*
X307100000Y-154700000D01*
X307100000Y-143350000D01*
X317651418Y-143350000D01*
X317898561Y-160650000D01*
M02*
