M48
; DRILL file {KiCad (5.1.6)-1} date 07/16/20 00:26:18
; FORMAT={-:-/ absolute / inch / decimal}
; #@! TF.CreationDate,2020-07-16T00:26:18+02:00
; #@! TF.GenerationSoftware,Kicad,Pcbnew,(5.1.6)-1
; #@! TF.FileFunction,Plated,1,4,PTH
FMAT,2
INCH
T1C0.0079
T2C0.0118
T3C0.0157
T4C0.0197
T5C0.0315
T6C0.0354
T7C0.0362
T8C0.0394
T9C0.0400
T10C0.0512
T11C0.0591
T12C0.0906
%
G90
G05
T1
X4.5965Y-2.5886
X10.6988Y-4.7047
X10.6988Y-4.7441
X10.6988Y-4.7835
X10.7382Y-4.7047
X10.7382Y-4.7441
X10.7382Y-4.7835
X10.7776Y-4.7047
X10.7776Y-4.7441
X10.7776Y-4.7835
X10.9132Y-2.3031
X10.9438Y-2.2725
X10.9438Y-2.3338
X10.9744Y-2.2419
X10.9744Y-2.3031
X10.9744Y-2.3644
X11.005Y-2.2725
X11.005Y-2.3338
X11.0357Y-2.3031
X4.5551Y-2.5472
X4.5551Y-2.5886
X4.5551Y-2.6299
X4.5965Y-2.5472
X4.5965Y-2.6299
X4.6378Y-2.5472
X4.6378Y-2.5886
X4.6378Y-2.6299
X7.5077Y-2.2835
X7.5383Y-2.2528
X7.5383Y-2.3141
X7.5689Y-2.2222
X7.5689Y-2.2835
X7.5689Y-2.3447
X7.5995Y-2.2528
X7.5995Y-2.3141
X7.6301Y-2.2835
T2
X4.1024Y-2.8661
X4.1024Y-2.9055
X4.1043Y-2.2146
X4.1043Y-2.2539
X4.1417Y-2.6299
X4.1417Y-2.6693
X4.1417Y-2.7087
X4.1417Y-2.748
X4.1417Y-2.7874
X4.1417Y-2.8268
X4.1417Y-2.8661
X4.1417Y-2.9055
X4.1437Y-2.2146
X4.1437Y-2.2539
X4.1437Y-2.2933
X4.1437Y-2.3327
X4.1437Y-2.372
X4.1437Y-2.4114
X4.1437Y-2.4508
X4.1437Y-2.4902
X4.1811Y-2.6299
X4.1811Y-2.6693
X4.1811Y-2.7087
X4.1811Y-2.748
X4.1811Y-2.7874
X4.1811Y-2.8268
X4.1811Y-2.8661
X4.1811Y-2.9055
X4.1831Y-2.2146
X4.1831Y-2.2539
X4.1831Y-2.2933
X4.1831Y-2.3327
X4.1831Y-2.372
X4.1831Y-2.4114
X4.1831Y-2.4508
X4.1831Y-2.4902
X4.2205Y-2.6299
X4.2205Y-2.6693
X4.2205Y-2.7087
X4.2205Y-2.748
X4.2205Y-2.7874
X4.2205Y-2.8268
X4.2205Y-2.8661
X4.2205Y-2.9055
X4.2224Y-2.2146
X4.2224Y-2.2539
X4.2224Y-2.2933
X4.2224Y-2.3327
X4.2224Y-2.372
X4.2224Y-2.4114
X4.2224Y-2.4508
X4.2224Y-2.4902
X4.2598Y-2.6299
X4.2598Y-2.6693
X4.2598Y-2.7087
X4.2598Y-2.748
X4.2598Y-2.7874
X4.2598Y-2.8268
X4.2598Y-2.8661
X4.2598Y-2.9055
X4.2618Y-2.2146
X4.2618Y-2.2539
X4.2618Y-2.2933
X4.2618Y-2.3327
X4.2618Y-2.372
X4.2618Y-2.4114
X4.2618Y-2.4508
X4.2618Y-2.4902
X4.2731Y-1.9094
X4.2992Y-2.6299
X4.2992Y-2.6693
X4.2992Y-2.7087
X4.2992Y-2.748
X4.2992Y-2.7874
X4.2992Y-2.8268
X4.2992Y-2.8661
X4.2992Y-2.9055
X4.3012Y-2.2146
X4.3012Y-2.2539
X4.3012Y-2.2933
X4.3012Y-2.3327
X4.3012Y-2.372
X4.3012Y-2.4114
X4.3012Y-2.4508
X4.3012Y-2.4902
X4.3996Y-5.0689
X4.439Y-2.2638
X4.4783Y-2.2638
X4.4783Y-3.6069
X4.4783Y-3.6569
X4.4783Y-3.7069
X4.4882Y-2.0738
X4.4882Y-2.5886
X4.5197Y-2.1457
X4.5197Y-2.6654
X4.5551Y-2.7047
X4.5866Y-2.7047
X4.598Y-4.872
X4.6161Y-3.5138
X4.6181Y-2.7047
X4.648Y-4.872
X4.6496Y-2.7047
X4.6555Y-2.0098
X4.6555Y-2.1634
X4.6732Y-2.6654
X4.7087Y-2.7047
X4.7126Y-2.5886
X4.7835Y-7.0768
X4.8031Y-1.9606
X4.8031Y-1.9921
X4.8031Y-2.0236
X4.8346Y-1.9606
X4.8346Y-1.9921
X4.8346Y-2.0236
X4.8524Y-5.6693
X4.8661Y-1.9606
X4.8661Y-1.9921
X4.8661Y-2.0236
X4.935Y-2.3031
X4.937Y-2.0669
X4.937Y-2.1614
X4.9409Y-5.6693
X4.9685Y-2.0669
X4.9685Y-2.0984
X4.9685Y-2.1299
X4.9685Y-2.1614
X4.9744Y-2.3031
X5.0Y-2.0669
X5.0Y-2.1614
X5.0098Y-6.9783
X5.0138Y-2.3031
X5.0138Y-2.3425
X5.0138Y-2.3819
X5.0138Y-2.4213
X5.0138Y-2.4606
X5.0295Y-5.6693
X5.0295Y-6.7717
X5.0531Y-2.3031
X5.0531Y-2.3425
X5.0531Y-2.3819
X5.0531Y-2.4213
X5.0531Y-2.4606
X5.0531Y-2.5
X5.0531Y-2.5394
X5.0531Y-2.5787
X5.0531Y-2.6181
X5.0591Y-3.8583
X5.0591Y-3.9961
X5.0787Y-7.126
X5.0925Y-2.3031
X5.0925Y-2.3425
X5.0925Y-2.3819
X5.0925Y-2.4213
X5.0925Y-2.4606
X5.0925Y-2.5
X5.0925Y-2.5394
X5.0925Y-2.5787
X5.0925Y-2.6181
X5.1181Y-5.6693
X5.1319Y-2.4606
X5.1476Y-3.8583
X5.1476Y-3.9961
X5.2057Y-4.9803
X5.2362Y-3.8583
X5.2362Y-3.9961
X5.3081Y-4.8425
X5.3248Y-3.8583
X5.3248Y-3.9961
X5.3337Y-4.8425
X5.4134Y-2.628
X5.4134Y-2.6673
X5.4134Y-2.7067
X5.4134Y-2.7461
X5.4134Y-2.7854
X5.4134Y-2.8248
X5.4134Y-2.8642
X5.4134Y-3.8583
X5.4134Y-3.9961
X5.4528Y-2.628
X5.4528Y-2.6673
X5.4528Y-2.7067
X5.4528Y-2.7461
X5.4528Y-2.7854
X5.4528Y-2.8248
X5.4528Y-2.8642
X5.4823Y-7.0776
X5.4921Y-2.7854
X5.4921Y-2.8248
X5.4921Y-2.8642
X5.5315Y-2.7854
X5.5315Y-2.8248
X5.5315Y-2.8642
X5.5709Y-2.7854
X5.5709Y-2.8248
X5.5709Y-2.8642
X5.6102Y-2.628
X5.6102Y-2.6673
X5.6102Y-2.7067
X5.6102Y-2.7461
X5.6102Y-2.7854
X5.6102Y-2.8248
X5.6102Y-2.8642
X5.6496Y-2.628
X5.6496Y-2.6673
X5.6496Y-2.7067
X5.6496Y-2.7461
X5.6496Y-2.7854
X5.6496Y-2.8248
X5.6496Y-2.8642
X5.6791Y-6.9276
X5.748Y-6.2028
X5.748Y-6.3602
X5.748Y-6.5177
X5.7972Y-6.8701
X5.7972Y-7.1776
X5.8268Y-6.8701
X5.8268Y-7.0571
X5.8563Y-3.6569
X5.9396Y-3.6569
X5.9449Y-6.8504
X5.9921Y-6.2402
X6.0039Y-6.6043
X6.0472Y-7.2539
X6.0472Y-7.4705
X6.063Y-7.1161
X6.063Y-7.1457
X6.063Y-7.1752
X6.0787Y-7.2539
X6.0787Y-7.4094
X6.122Y-4.6555
X6.122Y-4.6949
X6.122Y-4.7343
X6.122Y-4.8917
X6.122Y-4.9311
X6.122Y-5.0886
X6.122Y-5.128
X6.122Y-5.1673
X6.1398Y-6.8563
X6.1516Y-6.939
X6.1516Y-7.0177
X6.1516Y-7.0472
X6.1516Y-7.0768
X6.1614Y-4.6555
X6.1614Y-4.6949
X6.1614Y-4.7343
X6.1614Y-4.8917
X6.1614Y-4.9311
X6.1614Y-5.0886
X6.1614Y-5.128
X6.1614Y-5.1673
X6.1713Y-3.3661
X6.2008Y-4.6555
X6.2008Y-4.6949
X6.2008Y-4.7343
X6.2008Y-4.8917
X6.2008Y-4.9311
X6.2008Y-4.9705
X6.2008Y-5.0098
X6.2008Y-5.0492
X6.2008Y-5.0886
X6.2008Y-5.128
X6.2008Y-5.1673
X6.2008Y-7.1457
X6.2205Y-6.7224
X6.2205Y-6.752
X6.2205Y-6.811
X6.2303Y-7.2539
X6.2402Y-4.6555
X6.2402Y-4.6949
X6.2402Y-4.7343
X6.2402Y-4.7736
X6.2402Y-4.813
X6.2402Y-4.8524
X6.2402Y-4.8917
X6.2402Y-4.9311
X6.2402Y-4.9705
X6.2402Y-5.0098
X6.2402Y-5.0492
X6.2402Y-5.0886
X6.2402Y-5.128
X6.2402Y-5.1673
X6.25Y-7.0571
X6.2598Y-6.811
X6.2598Y-7.1358
X6.2697Y-6.8996
X6.2795Y-4.6555
X6.2795Y-4.6949
X6.2795Y-4.7343
X6.2795Y-4.7736
X6.2795Y-4.813
X6.2795Y-4.8524
X6.2795Y-4.8917
X6.2795Y-4.9311
X6.2795Y-4.9705
X6.2795Y-5.0098
X6.2795Y-5.0492
X6.2795Y-5.0886
X6.2795Y-5.128
X6.2795Y-5.1673
X6.2894Y-7.1063
X6.2894Y-7.1358
X6.2913Y-7.2598
X6.3189Y-4.6555
X6.3189Y-4.6949
X6.3189Y-4.7343
X6.3189Y-4.7736
X6.3189Y-4.813
X6.3189Y-4.8524
X6.3189Y-4.8917
X6.3189Y-4.9311
X6.3189Y-4.9705
X6.3189Y-5.0098
X6.3189Y-5.0492
X6.3189Y-5.0886
X6.3189Y-5.128
X6.3189Y-5.1673
X6.3189Y-7.1063
X6.3228Y-7.2598
X6.3543Y-7.2598
X6.3583Y-4.6555
X6.3583Y-4.6949
X6.3583Y-4.7343
X6.3583Y-4.8917
X6.3583Y-4.9311
X6.3583Y-5.0886
X6.3583Y-5.128
X6.3583Y-5.1673
X6.3858Y-7.2598
X6.3878Y-6.7618
X6.3976Y-4.6555
X6.3976Y-4.6949
X6.3976Y-4.7343
X6.3976Y-4.8917
X6.3976Y-4.9311
X6.3976Y-5.0886
X6.3976Y-5.128
X6.3976Y-5.1673
X6.4075Y-7.1063
X6.4173Y-7.2008
X6.4272Y-6.7618
X6.437Y-4.6555
X6.437Y-4.6949
X6.437Y-4.7343
X6.437Y-4.8917
X6.437Y-4.9311
X6.437Y-5.0886
X6.437Y-5.128
X6.437Y-5.1673
X6.4469Y-6.8602
X6.4961Y-7.0276
X6.4961Y-6.9094
X6.4961Y-7.0571
X6.5551Y-7.1063
X6.5604Y-3.6569
X6.5669Y-5.4528
X6.5669Y-5.4803
X6.5669Y-5.5079
X6.5669Y-5.6535
X6.5669Y-5.6811
X6.5748Y-7.1457
X6.5945Y-5.4528
X6.5945Y-5.4803
X6.5945Y-5.5079
X6.5945Y-5.6535
X6.5945Y-5.6811
X6.622Y-5.4528
X6.622Y-5.4803
X6.622Y-5.5079
X6.622Y-5.6535
X6.622Y-5.6811
X6.6496Y-5.4528
X6.6496Y-5.4803
X6.6496Y-5.5079
X6.6496Y-5.5354
X6.6496Y-5.563
X6.6496Y-5.5906
X6.6496Y-5.6181
X6.6496Y-5.6457
X6.6496Y-5.6732
X6.6772Y-5.4528
X6.6772Y-5.4803
X6.6772Y-5.5079
X6.6772Y-5.5354
X6.6772Y-5.563
X6.6772Y-5.5906
X6.6772Y-5.6181
X6.6772Y-5.6457
X6.6772Y-5.6732
X6.7047Y-5.4528
X6.7047Y-5.4803
X6.7047Y-5.5079
X6.7047Y-5.6732
X6.7323Y-5.4528
X6.7323Y-5.4803
X6.7323Y-5.5079
X6.752Y-7.0276
X6.752Y-7.0669
X6.7598Y-5.4528
X6.7598Y-5.4803
X6.7598Y-5.5079
X6.939Y-5.5709
X6.939Y-5.6496
X6.939Y-5.7283
X7.4803Y-2.0079
X7.5689Y-1.9685
X7.5689Y-2.0079
X7.5689Y-2.0472
X7.6575Y-1.9705
X7.6575Y-2.0079
X7.6575Y-4.2815
X7.7657Y-4.311
X7.7854Y-5.5118
X7.7854Y-5.6693
X7.874Y-5.5118
X7.874Y-5.6693
X7.8839Y-4.2815
X7.9035Y-4.311
X7.9626Y-5.5118
X7.9626Y-5.6693
X8.0512Y-5.5118
X8.0512Y-5.6693
X8.1398Y-5.5118
X8.1398Y-5.6693
X8.563Y-4.685
X8.563Y-4.7146
X8.5925Y-4.6161
X8.5925Y-4.9311
X8.6713Y-4.6654
X8.6713Y-4.7343
X8.6713Y-4.7638
X8.6713Y-4.8425
X8.6713Y-4.8819
X8.7008Y-4.6555
X8.7205Y-4.8917
X8.7421Y-4.7264
X8.7421Y-4.7579
X8.7421Y-4.7894
X8.7421Y-4.8209
X8.75Y-4.6555
X8.7598Y-4.8917
X8.7736Y-4.7264
X8.7736Y-4.7579
X8.7736Y-4.7894
X8.7736Y-4.8209
X8.7913Y-4.6555
X8.7992Y-4.8917
X8.8051Y-4.7264
X8.8051Y-4.7579
X8.8051Y-4.7894
X8.8051Y-4.8209
X8.8366Y-4.7264
X8.8366Y-4.7579
X8.8366Y-4.7894
X8.8366Y-4.8209
X8.8386Y-4.6555
X8.878Y-4.6555
X8.878Y-4.8917
X8.9075Y-4.7047
X8.9075Y-4.8031
X8.9075Y-4.8524
X8.9094Y-5.4528
X8.9094Y-5.4803
X8.9094Y-5.5079
X8.9094Y-5.6535
X8.9094Y-5.6811
X8.937Y-5.4528
X8.937Y-5.4803
X8.937Y-5.5079
X8.937Y-5.6535
X8.937Y-5.6811
X8.9646Y-5.4528
X8.9646Y-5.4803
X8.9646Y-5.5079
X8.9646Y-5.6535
X8.9646Y-5.6811
X8.9921Y-5.4528
X8.9921Y-5.4803
X8.9921Y-5.5079
X8.9921Y-5.5354
X8.9921Y-5.563
X8.9921Y-5.5906
X8.9921Y-5.6181
X8.9921Y-5.6457
X8.9921Y-5.6732
X9.0197Y-5.4528
X9.0197Y-5.4803
X9.0197Y-5.5079
X9.0197Y-5.5354
X9.0197Y-5.563
X9.0197Y-5.5906
X9.0197Y-5.6181
X9.0197Y-5.6457
X9.0197Y-5.6732
X9.0472Y-5.4528
X9.0472Y-5.4803
X9.0472Y-5.5079
X9.0472Y-5.6732
X9.0748Y-5.4528
X9.0748Y-5.4803
X9.0748Y-5.5079
X9.1024Y-5.4528
X9.1024Y-5.4803
X9.1024Y-5.5079
X9.2421Y-6.5256
X9.2421Y-6.565
X9.2421Y-6.6043
X9.2421Y-6.6437
X9.2421Y-6.6831
X9.2421Y-6.7224
X9.2421Y-6.7618
X9.2421Y-6.8012
X9.2815Y-5.5709
X9.2815Y-5.6496
X9.2815Y-5.7283
X9.2815Y-6.565
X9.2815Y-6.6043
X9.2815Y-6.6437
X9.2815Y-6.6831
X9.2815Y-6.7224
X9.2815Y-6.7618
X9.2815Y-6.8012
X9.2815Y-6.8406
X9.3209Y-6.565
X9.3209Y-6.6043
X9.3209Y-6.6437
X9.3209Y-6.6831
X9.3209Y-6.7224
X9.3209Y-6.7618
X9.3209Y-6.8012
X9.3209Y-6.8406
X9.3425Y-4.7126
X9.3425Y-4.752
X9.3425Y-4.7874
X9.3425Y-4.8228
X9.3425Y-4.8583
X9.3602Y-6.5256
X9.3602Y-6.565
X9.3602Y-6.6043
X9.3602Y-6.6437
X9.3602Y-6.6831
X9.3602Y-6.7224
X9.3602Y-6.7618
X9.3602Y-6.8012
X9.3602Y-6.8406
X9.378Y-4.7874
X9.378Y-4.8583
X9.3996Y-6.565
X9.3996Y-6.6043
X9.3996Y-6.6437
X9.3996Y-6.6831
X9.3996Y-6.7224
X9.3996Y-6.7618
X9.3996Y-6.8012
X9.3996Y-6.8406
X9.4134Y-4.7874
X9.4134Y-4.8583
X9.439Y-6.5256
X9.439Y-6.565
X9.439Y-6.6043
X9.439Y-6.6437
X9.439Y-6.6831
X9.439Y-6.7224
X9.439Y-6.7618
X9.439Y-6.8012
X9.439Y-6.8406
X9.4783Y-6.565
X9.4783Y-6.6043
X9.4783Y-6.6437
X9.4783Y-6.6831
X9.4783Y-6.7224
X9.4783Y-6.7618
X9.4783Y-6.8012
X9.4783Y-6.8406
X9.4882Y-5.5118
X9.4882Y-5.6693
X9.5177Y-6.565
X9.5177Y-6.6043
X9.5177Y-6.6437
X9.5177Y-6.6831
X9.5177Y-6.7224
X9.5177Y-6.7618
X9.5177Y-6.8012
X9.5177Y-6.8406
X9.5571Y-6.5256
X9.5571Y-6.565
X9.5571Y-6.6043
X9.5571Y-6.6437
X9.5571Y-6.6831
X9.5571Y-6.7224
X9.5571Y-6.7618
X9.5571Y-6.8012
X9.5768Y-5.5118
X9.5768Y-5.6693
X9.6654Y-5.5118
X9.6654Y-5.6693
X9.7539Y-5.5118
X9.8425Y-5.5118
X9.8425Y-5.6693
X10.5138Y-5.4528
X10.5138Y-5.4803
X10.5138Y-5.5079
X10.5138Y-5.6535
X10.5138Y-5.6811
X10.5335Y-4.7953
X10.5413Y-5.4528
X10.5413Y-5.4803
X10.5413Y-5.5079
X10.5413Y-5.6535
X10.5413Y-5.6811
X10.5689Y-5.4528
X10.5689Y-5.4803
X10.5689Y-5.5079
X10.5689Y-5.6535
X10.5689Y-5.6811
X10.5965Y-5.4528
X10.5965Y-5.4803
X10.5965Y-5.5079
X10.5965Y-5.5354
X10.5965Y-5.563
X10.5965Y-5.5906
X10.5965Y-5.6181
X10.5965Y-5.6457
X10.5965Y-5.6732
X10.6004Y-4.7244
X10.6043Y-4.6693
X10.6043Y-4.8031
X10.6201Y-4.872
X10.624Y-5.4528
X10.624Y-5.4803
X10.624Y-5.5079
X10.624Y-5.5354
X10.624Y-5.563
X10.624Y-5.5906
X10.624Y-5.6181
X10.624Y-5.6457
X10.624Y-5.6732
X10.6496Y-4.8917
X10.6516Y-5.4528
X10.6516Y-5.4803
X10.6516Y-5.5079
X10.6516Y-5.6732
X10.6791Y-5.4528
X10.6791Y-5.4803
X10.6791Y-5.5079
X10.689Y-4.8917
X10.7067Y-5.4528
X10.7067Y-5.4803
X10.7067Y-5.5079
X10.7343Y-4.878
X10.7382Y-4.4882
X10.7677Y-4.4783
X10.7933Y-4.874
X10.7972Y-4.4882
X10.8661Y-4.7933
X10.8701Y-2.3642
X10.876Y-4.4882
X10.878Y-2.3917
X10.8858Y-2.0276
X10.8858Y-2.065
X10.8858Y-2.4193
X10.8858Y-5.5709
X10.8858Y-5.6496
X10.8858Y-5.7283
X10.8937Y-2.4469
X10.8957Y-2.687
X10.8957Y-2.7854
X10.9252Y-2.6772
X10.9252Y-2.815
X10.9547Y-2.6673
X10.9547Y-2.8474
X10.9744Y-1.9882
X10.9744Y-2.0276
X10.9744Y-2.0669
X10.9744Y-2.1358
X10.9843Y-2.874
X10.9843Y-2.6575
X10.9843Y-2.9331
X11.0138Y-2.6476
X11.0138Y-2.9035
X11.0433Y-2.6378
X11.063Y-2.0276
X11.0925Y-2.2539
X11.1319Y-4.6181
X11.1319Y-4.6457
X11.1594Y-4.6181
X11.1594Y-4.6457
X11.187Y-4.6181
X11.187Y-4.6457
X11.2146Y-4.6181
X11.2146Y-4.6457
X11.2421Y-4.6181
X11.2421Y-4.6457
X11.2574Y-4.8007
X11.2697Y-4.6181
X11.2697Y-4.6457
X11.2884Y-4.688
X11.4567Y-5.9843
X11.5256Y-2.7377
X11.565Y-3.1102
X11.565Y-3.1496
X11.565Y-3.189
X11.5748Y-2.6378
X11.6142Y-3.1102
X11.6142Y-3.1496
X11.6142Y-3.189
X11.6339Y-5.7579
X11.6634Y-3.1102
X11.6634Y-3.1496
X11.6634Y-3.189
X11.6693Y-6.0472
X11.6831Y-5.6791
X11.685Y-5.9173
X11.6988Y-4.626
X11.6988Y-4.6654
X11.6988Y-4.7047
X11.6988Y-4.7441
X11.6988Y-4.7835
X11.6988Y-4.8228
X11.7008Y-6.0472
X11.7099Y-5.9173
X11.7349Y-6.0512
X11.7382Y-4.626
X11.7599Y-6.122
X11.7776Y-4.626
X11.8169Y-4.626
X11.8169Y-4.6654
X11.8169Y-4.7047
X11.8169Y-4.7441
X11.8406Y-5.6791
X11.998Y-2.7165
X11.998Y-2.7953
X11.998Y-3.0709
X11.998Y-3.1496
X12.0374Y-2.6969
X12.0374Y-2.7362
X12.0374Y-2.7756
X12.0374Y-2.815
X12.0374Y-3.0512
X12.0374Y-3.0906
X12.0374Y-3.1299
X12.0374Y-3.1693
X12.0768Y-2.6969
X12.0768Y-2.7362
X12.0768Y-2.7756
X12.0768Y-2.815
X12.0768Y-3.0512
X12.0768Y-3.0906
X12.0768Y-3.1299
X12.0768Y-3.1693
X12.1161Y-2.6969
X12.1161Y-2.7362
X12.1161Y-2.7756
X12.1161Y-2.815
X12.1161Y-3.0512
X12.1161Y-3.0906
X12.1161Y-3.1299
X12.1161Y-3.1693
X12.1358Y-5.6693
X12.1358Y-5.7087
X12.1358Y-5.748
X12.1358Y-5.7874
X12.1358Y-6.2205
X12.1358Y-6.2598
X12.1358Y-6.2992
X12.1555Y-2.6969
X12.1555Y-2.7362
X12.1555Y-2.7756
X12.1555Y-2.815
X12.1555Y-3.0512
X12.1555Y-3.0906
X12.1555Y-3.1299
X12.1555Y-3.1693
X12.1752Y-5.6693
X12.1752Y-5.7087
X12.1752Y-5.748
X12.1752Y-5.7874
X12.1752Y-6.2205
X12.1752Y-6.2598
X12.1752Y-6.2992
X12.1949Y-2.6969
X12.1949Y-2.7362
X12.1949Y-2.7756
X12.1949Y-2.815
X12.1949Y-3.0512
X12.1949Y-3.0906
X12.1949Y-3.1299
X12.1949Y-3.1693
X12.2146Y-5.6693
X12.2146Y-5.7874
X12.2146Y-5.8268
X12.2146Y-5.8661
X12.2146Y-6.1811
X12.2146Y-6.2992
X12.2343Y-2.6969
X12.2343Y-2.7362
X12.2343Y-2.7756
X12.2343Y-3.0906
X12.2343Y-3.1299
X12.2343Y-3.1693
X12.2539Y-5.8268
X12.2539Y-5.8661
X12.2539Y-5.9055
X12.2539Y-5.9449
X12.2539Y-5.9843
X12.2539Y-6.0236
X12.2539Y-6.063
X12.2539Y-6.1024
X12.2539Y-6.1417
X12.2933Y-5.8268
X12.2933Y-5.8661
X12.2933Y-5.9055
X12.2933Y-5.9449
X12.2933Y-5.9843
X12.2933Y-6.0236
X12.2933Y-6.063
X12.2933Y-6.1024
X12.2933Y-6.1417
X12.3327Y-5.6693
X12.3327Y-5.7874
X12.3327Y-5.8268
X12.3327Y-5.8661
X12.3327Y-5.9055
X12.3327Y-5.9449
X12.3327Y-5.9843
X12.3327Y-6.0236
X12.3327Y-6.063
X12.3327Y-6.1024
X12.3327Y-6.1417
X12.3327Y-6.1811
X12.3327Y-6.2992
X12.372Y-5.6693
X12.372Y-5.7087
X12.372Y-5.748
X12.372Y-5.7874
X12.372Y-5.8268
X12.372Y-5.8661
X12.372Y-5.9055
X12.372Y-5.9449
X12.372Y-5.9843
X12.372Y-6.0236
X12.372Y-6.063
X12.372Y-6.1024
X12.372Y-6.1417
X12.372Y-6.1811
X12.372Y-6.2205
X12.372Y-6.2598
X12.372Y-6.2992
X12.4114Y-5.6693
X12.4114Y-5.7087
X12.4114Y-5.748
X12.4114Y-5.7874
X12.4114Y-5.8268
X12.4114Y-5.8661
X12.4114Y-5.9055
X12.4114Y-5.9449
X12.4114Y-5.9843
X12.4114Y-6.0236
X12.4114Y-6.063
X12.4114Y-6.1024
X12.4114Y-6.1417
X12.4114Y-6.1811
X12.4114Y-6.2205
X12.4114Y-6.2598
X12.4114Y-6.2992
X11.1841Y-4.7274
X11.1841Y-4.7608
X11.2175Y-4.7274
X11.2175Y-4.7608
X4.5669Y-2.0571
X4.5669Y-2.0866
X4.5669Y-2.1161
X4.5965Y-2.0571
X4.5965Y-2.0866
X4.5965Y-2.1161
X4.626Y-2.0571
X4.626Y-2.0866
X4.626Y-2.1161
T3
X4.1732Y-1.9488
X4.1732Y-2.126
X4.2731Y-2.1654
X4.3012Y-5.2928
X4.3307Y-2.0276
X4.3406Y-2.1063
X4.3465Y-5.1772
X4.348Y-4.7539
X4.3504Y-3.4621
X4.3996Y-3.3465
X4.435Y-5.1772
X4.4587Y-1.9488
X4.4783Y-2.3425
X4.4882Y-3.2972
X4.5079Y-2.3228
X4.5374Y-2.3425
X4.5374Y-2.8445
X4.5472Y-3.2972
X4.548Y-5.0689
X4.5571Y-3.6069
X4.5571Y-3.7069
X4.5669Y-2.3228
X4.5965Y-2.3425
X4.5965Y-2.8445
X4.598Y-5.0689
X4.626Y-2.3228
X4.6555Y-2.3425
X4.6752Y-5.5451
X4.7146Y-1.9488
X4.7146Y-2.3425
X4.7244Y-4.8327
X4.7244Y-5.1476
X4.7343Y-3.5335
X4.7441Y-7.2638
X4.7736Y-2.7067
X4.7736Y-2.8445
X4.7736Y-4.9483
X4.8327Y-6.8701
X4.8327Y-7.0472
X4.8524Y-3.7795
X4.8622Y-4.4365
X4.9154Y-4.3209
X4.9941Y-4.5965
X5.0728Y-4.5965
X5.0787Y-3.6516
X5.1516Y-4.5965
X5.2303Y-4.4587
X5.2657Y-5.1299
X5.2657Y-5.2067
X5.2657Y-5.4429
X5.2657Y-5.6791
X5.3091Y-4.5965
X5.3346Y-7.4902
X5.3346Y-7.6476
X5.3765Y-6.5039
X5.3814Y-5.7283
X5.3878Y-4.5965
X5.3937Y-1.8898
X5.4823Y-7.1776
X5.4921Y-2.3031
X5.5118Y-2.2244
X5.5143Y-5.4035
X5.561Y-6.8012
X5.5709Y-2.0866
X5.5709Y-2.1457
X5.5709Y-5.0295
X5.5709Y-5.1181
X5.6004Y-4.9311
X5.6299Y-5.3543
X5.6496Y-1.8898
X5.6767Y-6.752
X5.6816Y-3.7402
X5.7579Y-1.9587
X5.8563Y-3.7069
X5.9252Y-4.9311
X6.0138Y-4.9311
X6.0531Y-4.0354
X6.0531Y-5.5438
X6.1024Y-5.6594
X6.1614Y-7.687
X6.1909Y-7.3917
X6.2106Y-3.6024
X6.2106Y-3.8189
X6.2106Y-4.0354
X6.2205Y-7.687
X6.2795Y-3.6811
X6.2795Y-3.7402
X6.2894Y-6.6634
X6.3189Y-7.628
X6.3287Y-3.2776
X6.3386Y-5.6594
X6.4272Y-5.7283
X6.4764Y-3.9075
X6.4862Y-5.7283
X6.5256Y-3.7069
X6.5453Y-4.6949
X6.5748Y-7.628
X6.624Y-7.5123
X6.6339Y-4.6949
X6.6535Y-3.75
X6.7224Y-4.6949
X6.7224Y-4.8524
X6.7643Y-3.6024
X6.811Y-5.2067
X6.8233Y-5.5217
X6.8799Y-3.5531
X7.0276Y-4.0748
X7.2933Y-2.2638
X7.2933Y-2.5
X7.2933Y-2.5787
X7.3932Y-2.2146
X7.4213Y-4.0748
X7.4705Y-6.7913
X7.5787Y-4.0748
X7.6142Y-2.4154
X7.6417Y-2.3878
X7.6693Y-2.3602
X7.6969Y-2.3327
X7.7362Y-4.0748
X7.7559Y-1.9769
X7.7559Y-2.0389
X7.7953Y-3.002
X7.7953Y-3.2776
X7.815Y-3.6024
X7.815Y-3.9173
X8.0512Y-3.002
X8.0512Y-3.2776
X8.1496Y-3.6024
X8.1496Y-3.9173
X8.2087Y-7.1358
X8.2087Y-7.1949
X8.2087Y-7.2539
X8.2087Y-7.313
X8.2087Y-7.372
X8.2087Y-7.4311
X8.2087Y-7.4902
X8.2087Y-7.5492
X8.2087Y-7.6083
X8.2677Y-7.1358
X8.2677Y-7.1949
X8.2677Y-7.2539
X8.2677Y-7.313
X8.2677Y-7.372
X8.2677Y-7.4311
X8.2677Y-7.4902
X8.2677Y-7.5492
X8.2677Y-7.6083
X8.3071Y-3.002
X8.3071Y-3.2776
X8.3268Y-7.1358
X8.3268Y-7.1949
X8.3268Y-7.2539
X8.3268Y-7.313
X8.3268Y-7.372
X8.3268Y-7.4311
X8.3268Y-7.4902
X8.3268Y-7.5492
X8.3268Y-7.6083
X8.3957Y-5.5536
X8.4252Y-6.8602
X8.435Y-4.7835
X8.435Y-4.8524
X8.435Y-5.0492
X8.4449Y-5.6693
X8.4547Y-7.1358
X8.4547Y-7.1949
X8.4547Y-7.2539
X8.4547Y-7.313
X8.4547Y-7.372
X8.4547Y-7.4311
X8.4547Y-7.4902
X8.4547Y-7.5492
X8.4547Y-7.6083
X8.4843Y-3.6024
X8.4843Y-3.9173
X8.5138Y-7.2539
X8.5138Y-7.313
X8.5138Y-7.372
X8.5138Y-7.4311
X8.5138Y-7.4902
X8.5138Y-7.5492
X8.5138Y-7.6083
X8.5349Y-5.0886
X8.563Y-3.002
X8.563Y-3.2776
X8.5728Y-7.2539
X8.5728Y-7.313
X8.5728Y-7.372
X8.5728Y-7.4311
X8.5728Y-7.4902
X8.5728Y-7.5492
X8.5728Y-7.6083
X8.5827Y-5.0281
X8.5827Y-5.2264
X8.5827Y-5.4035
X8.622Y-5.128
X8.6319Y-7.2539
X8.6319Y-7.313
X8.6319Y-7.372
X8.6319Y-7.4311
X8.6319Y-7.4902
X8.6319Y-7.5492
X8.6319Y-7.6083
X8.6614Y-4.4193
X8.6811Y-5.128
X8.6811Y-5.6693
X8.6909Y-7.2539
X8.6909Y-7.313
X8.6909Y-7.372
X8.6909Y-7.4311
X8.6909Y-7.4902
X8.6909Y-7.5492
X8.6909Y-7.6083
X8.7205Y-4.4193
X8.7205Y-5.0281
X8.7205Y-5.2264
X8.7205Y-5.4035
X8.75Y-7.2539
X8.75Y-7.313
X8.75Y-7.372
X8.75Y-7.4311
X8.75Y-7.4902
X8.75Y-7.5492
X8.75Y-7.6083
X8.7598Y-5.128
X8.7697Y-5.7283
X8.8091Y-7.2539
X8.8091Y-7.313
X8.8091Y-7.372
X8.8091Y-7.4311
X8.8091Y-7.4902
X8.8091Y-7.5492
X8.8091Y-7.6083
X8.8189Y-3.002
X8.8189Y-3.2776
X8.8189Y-3.6024
X8.8189Y-3.9173
X8.8189Y-5.128
X8.8287Y-5.7283
X8.8583Y-4.4193
X8.8681Y-7.1358
X8.8681Y-7.1949
X8.8681Y-7.2539
X8.8681Y-7.313
X8.8681Y-7.372
X8.8681Y-7.4311
X8.8681Y-7.4902
X8.8681Y-7.5492
X8.8681Y-7.6083
X8.878Y-5.2559
X8.8976Y-4.5192
X8.937Y-5.2559
X8.9567Y-4.4193
X8.9961Y-7.1358
X8.9961Y-7.1949
X8.9961Y-7.2539
X8.9961Y-7.313
X8.9961Y-7.372
X8.9961Y-7.4311
X8.9961Y-7.4902
X8.9961Y-7.5492
X8.9961Y-7.6083
X9.0354Y-4.498
X9.0354Y-4.9803
X9.0551Y-7.1358
X9.0551Y-7.1949
X9.0551Y-7.2539
X9.0551Y-7.313
X9.0551Y-7.372
X9.0551Y-7.4311
X9.0551Y-7.4902
X9.0551Y-7.5492
X9.0551Y-7.6083
X9.0635Y-4.7343
X9.0945Y-4.9803
X9.1142Y-7.1358
X9.1142Y-7.1949
X9.1142Y-7.2539
X9.1142Y-7.313
X9.1142Y-7.372
X9.1142Y-7.4311
X9.1142Y-7.4902
X9.1142Y-7.5492
X9.1142Y-7.6083
X9.1255Y-4.7343
X9.1339Y-4.8804
X9.2126Y-6.8602
X9.3676Y-6.3189
X9.3898Y-3.189
X9.3898Y-3.4646
X9.3898Y-3.7598
X9.3898Y-4.0551
X9.5054Y-6.2402
X9.5374Y-4.4882
X9.5866Y-6.8602
X9.6161Y-5.0591
X9.6432Y-6.2402
X9.6432Y-6.4173
X9.6457Y-3.189
X9.6457Y-3.4646
X9.685Y-7.1358
X9.685Y-7.1949
X9.685Y-7.2539
X9.685Y-7.313
X9.685Y-7.372
X9.685Y-7.4311
X9.685Y-7.4902
X9.685Y-7.5492
X9.685Y-7.6083
X9.7244Y-3.7598
X9.7244Y-4.0551
X9.7441Y-7.1358
X9.7441Y-7.1949
X9.7441Y-7.2539
X9.7441Y-7.313
X9.7441Y-7.372
X9.7441Y-7.4311
X9.7441Y-7.4902
X9.7441Y-7.5492
X9.7441Y-7.6083
X9.8031Y-7.1358
X9.8031Y-7.1949
X9.8031Y-7.2539
X9.8031Y-7.313
X9.8031Y-7.372
X9.8031Y-7.4311
X9.8031Y-7.4902
X9.8031Y-7.5492
X9.8031Y-7.6083
X9.8524Y-4.4882
X9.872Y-6.3287
X9.872Y-6.3878
X9.872Y-6.4469
X9.872Y-6.5059
X9.872Y-6.565
X9.872Y-6.624
X9.872Y-6.6831
X9.872Y-6.7421
X9.872Y-6.8012
X9.9016Y-3.189
X9.9016Y-3.4646
X9.9016Y-6.8602
X9.9311Y-6.3287
X9.9311Y-6.3878
X9.9311Y-6.4469
X9.9311Y-6.5059
X9.9311Y-6.565
X9.9311Y-6.624
X9.9311Y-6.6831
X9.9311Y-6.7421
X9.9311Y-6.8012
X9.9311Y-7.1358
X9.9311Y-7.1949
X9.9311Y-7.2539
X9.9311Y-7.313
X9.9311Y-7.372
X9.9311Y-7.4311
X9.9311Y-7.4902
X9.9311Y-7.5492
X9.9311Y-7.6083
X9.9902Y-6.4469
X9.9902Y-6.5059
X9.9902Y-6.565
X9.9902Y-6.624
X9.9902Y-6.6831
X9.9902Y-6.7421
X9.9902Y-6.8012
X9.9902Y-7.2539
X9.9902Y-7.313
X9.9902Y-7.372
X9.9902Y-7.4311
X9.9902Y-7.4902
X9.9902Y-7.5492
X9.9902Y-7.6083
X10.0492Y-5.5118
X10.0492Y-5.6693
X10.0492Y-6.4469
X10.0492Y-6.5059
X10.0492Y-6.565
X10.0492Y-6.624
X10.0492Y-6.6831
X10.0492Y-6.7421
X10.0492Y-6.8012
X10.0492Y-7.2539
X10.0492Y-7.313
X10.0492Y-7.372
X10.0492Y-7.4311
X10.0492Y-7.4902
X10.0492Y-7.5492
X10.0492Y-7.6083
X10.0591Y-3.7598
X10.0591Y-4.0551
X10.0886Y-5.0591
X10.1083Y-6.4469
X10.1083Y-6.5059
X10.1083Y-6.565
X10.1083Y-6.624
X10.1083Y-6.6831
X10.1083Y-6.7421
X10.1083Y-6.8012
X10.1083Y-7.2539
X10.1083Y-7.313
X10.1083Y-7.372
X10.1083Y-7.4311
X10.1083Y-7.4902
X10.1083Y-7.5492
X10.1083Y-7.6083
X10.1575Y-3.189
X10.1575Y-3.4646
X10.1673Y-6.4469
X10.1673Y-6.5059
X10.1673Y-6.565
X10.1673Y-6.624
X10.1673Y-6.6831
X10.1673Y-6.7421
X10.1673Y-6.8012
X10.1673Y-7.2539
X10.1673Y-7.313
X10.1673Y-7.372
X10.1673Y-7.4311
X10.1673Y-7.4902
X10.1673Y-7.5492
X10.1673Y-7.6083
X10.187Y-4.5768
X10.187Y-5.1772
X10.187Y-5.315
X10.2264Y-6.4469
X10.2264Y-6.5059
X10.2264Y-6.565
X10.2264Y-6.624
X10.2264Y-6.6831
X10.2264Y-6.7421
X10.2264Y-6.8012
X10.2264Y-7.2539
X10.2264Y-7.313
X10.2264Y-7.372
X10.2264Y-7.4311
X10.2264Y-7.4902
X10.2264Y-7.5492
X10.2264Y-7.6083
X10.2854Y-4.9311
X10.2854Y-5.6693
X10.2854Y-6.4469
X10.2854Y-6.5059
X10.2854Y-6.565
X10.2854Y-6.624
X10.2854Y-6.6831
X10.2854Y-6.7421
X10.2854Y-6.8012
X10.2854Y-7.2539
X10.2854Y-7.313
X10.2854Y-7.372
X10.2854Y-7.4311
X10.2854Y-7.4902
X10.2854Y-7.5492
X10.2854Y-7.6083
X10.2869Y-4.5374
X10.3248Y-4.5571
X10.3248Y-4.626
X10.3248Y-4.6949
X10.3445Y-6.3287
X10.3445Y-6.3878
X10.3445Y-6.4469
X10.3445Y-6.5059
X10.3445Y-6.565
X10.3445Y-6.624
X10.3445Y-6.6831
X10.3445Y-6.7421
X10.3445Y-6.8012
X10.3445Y-7.1358
X10.3445Y-7.1949
X10.3445Y-7.2539
X10.3445Y-7.313
X10.3445Y-7.372
X10.3445Y-7.4311
X10.3445Y-7.4902
X10.3445Y-7.5492
X10.3445Y-7.6083
X10.374Y-5.7283
X10.3937Y-3.7598
X10.3937Y-4.0551
X10.4035Y-5.315
X10.4035Y-6.3287
X10.4035Y-6.3878
X10.4035Y-6.4469
X10.4035Y-6.5059
X10.4035Y-6.565
X10.4035Y-6.624
X10.4035Y-6.6831
X10.4035Y-6.7421
X10.4035Y-6.8012
X10.4134Y-3.189
X10.4134Y-3.4646
X10.4331Y-5.7283
X10.4626Y-4.5866
X10.4626Y-4.6555
X10.4626Y-4.7244
X10.4724Y-5.315
X10.4724Y-7.1358
X10.4724Y-7.1949
X10.4724Y-7.2539
X10.4724Y-7.313
X10.4724Y-7.372
X10.4724Y-7.4311
X10.4724Y-7.4902
X10.4724Y-7.5492
X10.4724Y-7.6083
X10.4823Y-4.8425
X10.4823Y-4.9016
X10.4823Y-5.0787
X10.5315Y-7.1358
X10.5315Y-7.1949
X10.5315Y-7.2539
X10.5315Y-7.313
X10.5315Y-7.372
X10.5315Y-7.4311
X10.5315Y-7.4902
X10.5315Y-7.5492
X10.5315Y-7.6083
X10.5512Y-4.3898
X10.5822Y-5.1181
X10.5906Y-7.1358
X10.5906Y-7.1949
X10.5906Y-7.2539
X10.5906Y-7.313
X10.5906Y-7.372
X10.5906Y-7.4311
X10.5906Y-7.4902
X10.5906Y-7.5492
X10.5906Y-7.6083
X10.622Y-4.4783
X10.6693Y-4.3307
X10.6693Y-5.315
X10.7283Y-5.0098
X10.7874Y-1.9966
X10.7874Y-2.0586
X10.7972Y-5.0295
X10.8169Y-4.0748
X10.8268Y-1.8406
X10.8268Y-1.9646
X10.8366Y-4.3504
X10.8366Y-6.4469
X10.8366Y-7.7165
X10.9434Y-4.498
X10.9434Y-4.9902
X10.9744Y-4.0748
X11.0054Y-4.498
X11.0054Y-4.6358
X11.0054Y-4.8524
X11.0054Y-4.9902
X11.063Y-1.8406
X11.1122Y-4.9705
X11.1319Y-4.0748
X11.1319Y-5.2362
X11.1501Y-2.2146
X11.1713Y-4.9705
X11.1713Y-6.2721
X11.2205Y-6.3878
X11.2303Y-4.9705
X11.25Y-2.2638
X11.25Y-2.5
X11.25Y-2.5787
X11.2894Y-4.9705
X11.3091Y-5.0098
X11.3091Y-5.0689
X11.3287Y-5.2362
X11.3484Y-4.9705
X11.3976Y-5.2362
X11.4173Y-6.0138
X11.4567Y-6.3878
X11.4862Y-6.4469
X11.4862Y-7.7264
X11.4961Y-6.0138
X11.5748Y-6.3583
X11.6142Y-4.5276
X11.6142Y-5.0984
X11.6142Y-5.2362
X11.6339Y-6.3583
X11.7126Y-6.2894
X11.7618Y-5.6791
X11.8209Y-6.4469
X11.8209Y-7.7264
X11.8676Y-6.3091
X11.8996Y-5.8661
X11.8996Y-6.1024
X11.9414Y-6.3091
X12.0571Y-6.8898
X12.0571Y-7.6969
X12.2146Y-1.8701
X12.2146Y-1.9488
X12.2146Y-3.9173
X12.2146Y-3.9961
X12.2343Y-2.0276
X12.2343Y-2.2441
X12.2343Y-2.4606
X12.2343Y-3.4055
X12.2343Y-3.622
X12.2343Y-3.8386
T4
X3.9961Y-1.7913
X3.9961Y-1.9094
X3.9961Y-2.0276
X3.9961Y-2.1457
X3.9961Y-2.2638
X3.9961Y-2.8543
X3.9961Y-2.9724
X3.9961Y-3.0906
X3.9961Y-3.2087
X3.9961Y-3.3268
X3.9961Y-3.4449
X3.9961Y-3.563
X3.9961Y-3.6811
X3.9961Y-3.7992
X3.9961Y-3.9173
X3.9961Y-4.0354
X3.9961Y-4.1535
X3.9961Y-4.2717
X3.9961Y-4.3898
X3.9961Y-4.5079
X3.9961Y-4.626
X3.9961Y-4.7441
X3.9961Y-4.8622
X3.9961Y-4.9803
X3.9961Y-5.0984
X3.9961Y-5.2165
X3.9961Y-5.3346
X3.9961Y-5.4528
X3.9961Y-5.5709
X3.9961Y-5.689
X3.9961Y-5.8071
X3.9961Y-5.9252
X3.9961Y-6.0433
X3.9961Y-6.1614
X3.9961Y-6.2795
X3.9961Y-6.3976
X3.9961Y-6.5157
X3.9961Y-6.6339
X3.9961Y-6.752
X3.9961Y-6.8701
X3.9961Y-6.9882
X3.9961Y-7.1063
X3.9961Y-7.2244
X3.9961Y-7.3425
X3.9961Y-7.4606
X3.9961Y-7.5787
X3.9961Y-7.6969
X3.9961Y-7.815
X4.0354Y-1.6929
X4.0551Y-1.8504
X4.0551Y-1.9685
X4.0551Y-2.0866
X4.0551Y-2.2047
X4.0551Y-2.9134
X4.0551Y-3.0315
X4.0551Y-3.1496
X4.0551Y-3.2677
X4.0551Y-3.3858
X4.0551Y-3.5039
X4.0551Y-3.622
X4.0551Y-3.7402
X4.0551Y-3.8583
X4.0551Y-3.9764
X4.0551Y-4.0945
X4.0551Y-4.2126
X4.0551Y-4.3307
X4.0551Y-4.4488
X4.0551Y-4.5669
X4.0551Y-4.685
X4.0551Y-4.8031
X4.0551Y-4.9213
X4.0551Y-5.0394
X4.0551Y-5.1575
X4.0551Y-5.2756
X4.0551Y-5.3937
X4.0551Y-5.5118
X4.0551Y-5.6299
X4.0551Y-5.748
X4.0551Y-5.8661
X4.0551Y-5.9843
X4.0551Y-6.1024
X4.0551Y-6.2205
X4.0551Y-6.3386
X4.0551Y-6.4567
X4.0551Y-6.5748
X4.0551Y-6.6929
X4.0551Y-6.811
X4.0551Y-6.9291
X4.0551Y-7.0472
X4.0551Y-7.1654
X4.0551Y-7.2835
X4.0551Y-7.4016
X4.0551Y-7.5197
X4.0551Y-7.6378
X4.0551Y-7.7559
X4.0551Y-7.8937
X4.0945Y-1.752
X4.1142Y-3.1004
X4.1142Y-4.1437
X4.1142Y-7.8346
X4.1339Y-5.9547
X4.1535Y-1.6929
X4.1732Y-3.0413
X4.1732Y-4.2028
X4.1732Y-7.8937
X4.1929Y-6.0138
X4.2126Y-1.752
X4.2323Y-3.1004
X4.2323Y-4.1437
X4.2323Y-7.8346
X4.252Y-5.9547
X4.2717Y-1.6929
X4.2913Y-3.0413
X4.2913Y-4.2028
X4.2913Y-7.8937
X4.311Y-6.0138
X4.3307Y-1.752
X4.3504Y-3.1004
X4.3504Y-4.1437
X4.3504Y-7.8346
X4.3701Y-5.9547
X4.3898Y-1.6929
X4.4094Y-3.0413
X4.4094Y-4.2028
X4.4094Y-7.8937
X4.4291Y-6.0138
X4.4488Y-1.752
X4.4685Y-3.1004
X4.4685Y-4.1437
X4.4685Y-7.8346
X4.4882Y-5.9547
X4.5079Y-1.6929
X4.5276Y-3.0413
X4.5276Y-4.2028
X4.5276Y-7.8937
X4.5472Y-6.0138
X4.5669Y-1.752
X4.5866Y-3.1004
X4.5866Y-4.1437
X4.5866Y-7.8346
X4.6063Y-5.9547
X4.626Y-1.6929
X4.6457Y-3.0413
X4.6457Y-4.2028
X4.6457Y-7.8937
X4.6654Y-6.0138
X4.685Y-1.752
X4.7047Y-3.1004
X4.7047Y-4.1437
X4.7047Y-7.8346
X4.7244Y-5.9547
X4.7441Y-1.6929
X4.7638Y-3.0413
X4.7638Y-4.2028
X4.7638Y-7.8937
X4.7835Y-6.0138
X4.8031Y-1.752
X4.8228Y-3.1004
X4.8228Y-4.1437
X4.8228Y-7.8346
X4.8425Y-5.9547
X4.8622Y-1.6929
X4.8819Y-3.0413
X4.8819Y-4.2028
X4.8819Y-7.8937
X4.9016Y-6.0138
X4.9213Y-1.752
X4.9409Y-3.1004
X4.9409Y-4.1437
X4.9409Y-7.8346
X4.9606Y-5.9547
X4.9803Y-1.6929
X5.0Y-3.0413
X5.0Y-4.2028
X5.0Y-7.8937
X5.0197Y-6.0138
X5.0394Y-1.752
X5.0591Y-3.1004
X5.0591Y-4.1437
X5.0591Y-7.8346
X5.0787Y-5.9547
X5.0984Y-1.6929
X5.1181Y-3.0413
X5.1181Y-4.2028
X5.1181Y-7.8937
X5.1378Y-6.0138
X5.1575Y-1.752
X5.1772Y-3.1004
X5.1772Y-4.1437
X5.1772Y-7.8346
X5.1969Y-5.9547
X5.2165Y-1.6929
X5.2362Y-3.0413
X5.2362Y-4.2028
X5.2362Y-7.8937
X5.2559Y-6.0138
X5.2756Y-1.752
X5.2953Y-3.1004
X5.2953Y-4.1437
X5.2953Y-7.8346
X5.315Y-5.9547
X5.3346Y-1.6929
X5.3543Y-3.0413
X5.3543Y-4.2028
X5.3543Y-7.8937
X5.374Y-6.0138
X5.3937Y-1.752
X5.4134Y-3.1004
X5.4134Y-4.1437
X5.4134Y-7.8346
X5.4331Y-5.9547
X5.4528Y-1.6929
X5.4724Y-3.0413
X5.4724Y-4.2028
X5.4724Y-7.8937
X5.4921Y-6.0138
X5.5118Y-1.752
X5.5315Y-3.1004
X5.5315Y-4.1437
X5.5315Y-7.8346
X5.5512Y-5.9547
X5.5709Y-1.6929
X5.5906Y-3.0413
X5.5906Y-4.2028
X5.5906Y-7.8937
X5.6102Y-6.0138
X5.6299Y-1.752
X5.6496Y-3.1004
X5.6496Y-4.1437
X5.6496Y-7.8346
X5.6693Y-5.9547
X5.689Y-1.6929
X5.7087Y-3.0413
X5.7087Y-4.2028
X5.7087Y-7.8937
X5.7283Y-6.0138
X5.748Y-1.752
X5.7677Y-3.1004
X5.7677Y-4.1437
X5.7677Y-7.8346
X5.7874Y-5.9547
X5.8071Y-1.6929
X5.8268Y-3.0413
X5.8268Y-4.2028
X5.8268Y-7.8937
X5.8465Y-6.0138
X5.8661Y-1.752
X5.8858Y-3.1004
X5.8858Y-4.1437
X5.8858Y-7.8346
X5.9055Y-5.9547
X5.9252Y-1.6929
X5.9449Y-3.0413
X5.9449Y-4.2028
X5.9449Y-7.8937
X5.9646Y-6.0138
X5.9843Y-1.752
X6.0039Y-3.1004
X6.0039Y-4.1437
X6.0039Y-7.8346
X6.0236Y-5.9547
X6.0433Y-1.6929
X6.063Y-3.0413
X6.063Y-4.2028
X6.063Y-7.8937
X6.0827Y-6.0138
X6.1024Y-1.752
X6.122Y-3.1004
X6.122Y-4.1437
X6.122Y-7.8346
X6.1417Y-5.9547
X6.1614Y-1.6929
X6.1811Y-3.0413
X6.1811Y-4.2028
X6.1811Y-7.8937
X6.2008Y-6.0138
X6.2205Y-1.752
X6.2402Y-3.1004
X6.2402Y-4.1437
X6.2402Y-7.8346
X6.2598Y-5.9547
X6.2795Y-1.6929
X6.2992Y-3.0413
X6.2992Y-4.2028
X6.2992Y-7.8937
X6.3189Y-6.0138
X6.3386Y-1.752
X6.3583Y-3.1004
X6.3583Y-4.1437
X6.3583Y-7.8346
X6.378Y-5.9547
X6.3976Y-1.6929
X6.4173Y-3.0413
X6.4173Y-4.2028
X6.4173Y-7.8937
X6.437Y-6.0138
X6.4567Y-1.752
X6.4764Y-3.1004
X6.4764Y-4.1437
X6.4764Y-7.8346
X6.4961Y-5.9547
X6.5157Y-1.6929
X6.5354Y-3.0413
X6.5354Y-4.2028
X6.5354Y-7.8937
X6.5551Y-6.0138
X6.5748Y-1.752
X6.5945Y-3.1004
X6.5945Y-4.1437
X6.5945Y-7.8346
X6.6142Y-5.9547
X6.6339Y-1.6929
X6.6535Y-3.0413
X6.6535Y-4.2028
X6.6535Y-7.8937
X6.6732Y-6.0138
X6.6929Y-1.752
X6.7126Y-3.1004
X6.7126Y-4.1437
X6.7126Y-7.8346
X6.7323Y-5.9547
X6.752Y-1.6929
X6.7717Y-3.0413
X6.7717Y-4.2028
X6.7717Y-7.8937
X6.7913Y-6.0138
X6.811Y-1.752
X6.8307Y-3.1004
X6.8307Y-4.1437
X6.8307Y-7.8346
X6.8504Y-5.9547
X6.8701Y-1.6929
X6.8898Y-3.0413
X6.8898Y-4.2028
X6.8898Y-7.8937
X6.9094Y-6.0138
X6.9291Y-1.752
X6.9488Y-3.1004
X6.9488Y-4.1437
X6.9488Y-7.8346
X6.9685Y-5.9547
X6.9882Y-1.6929
X7.0079Y-3.0413
X7.0079Y-4.2028
X7.0079Y-7.8937
X7.0276Y-6.0138
X7.0472Y-1.752
X7.0669Y-3.1004
X7.0669Y-4.1437
X7.0669Y-7.8346
X7.0866Y-5.9547
X7.1063Y-1.6929
X7.126Y-4.2028
X7.126Y-7.8937
X7.1457Y-6.0138
X7.1555Y-2.0768
X7.1555Y-2.1949
X7.1555Y-2.313
X7.1555Y-2.4311
X7.1555Y-2.5492
X7.1555Y-2.6673
X7.1555Y-2.7854
X7.1555Y-2.9035
X7.1555Y-3.0217
X7.1555Y-3.1398
X7.1555Y-3.2579
X7.1555Y-3.376
X7.1555Y-3.4941
X7.1555Y-3.6122
X7.1555Y-3.7303
X7.1555Y-3.8484
X7.1555Y-3.9665
X7.1555Y-4.0846
X7.1654Y-1.752
X7.185Y-4.1437
X7.185Y-7.8346
X7.2047Y-5.9547
X7.2146Y-2.1358
X7.2146Y-2.2539
X7.2146Y-2.372
X7.2146Y-2.4902
X7.2146Y-2.6083
X7.2146Y-2.7264
X7.2146Y-2.8445
X7.2146Y-2.9626
X7.2146Y-3.0807
X7.2146Y-3.1988
X7.2146Y-3.3169
X7.2146Y-3.435
X7.2146Y-3.5531
X7.2146Y-3.6713
X7.2146Y-3.7894
X7.2146Y-3.9075
X7.2146Y-4.0256
X7.2244Y-1.6929
X7.2244Y-1.8209
X7.2441Y-4.2028
X7.2441Y-7.8937
X7.2638Y-6.0138
X7.2835Y-1.752
X7.3031Y-4.1437
X7.3031Y-7.8346
X7.3228Y-5.9547
X7.3425Y-1.6929
X7.3622Y-4.2028
X7.3622Y-7.8937
X7.3819Y-6.0138
X7.4016Y-1.752
X7.4213Y-4.1437
X7.4213Y-7.8346
X7.4409Y-5.9547
X7.4508Y-4.2618
X7.4508Y-4.3799
X7.4508Y-4.498
X7.4508Y-4.6161
X7.4508Y-4.7343
X7.4508Y-4.8524
X7.4508Y-5.128
X7.4508Y-5.2461
X7.4508Y-5.3642
X7.4508Y-5.4823
X7.4508Y-5.6004
X7.4508Y-5.7185
X7.4508Y-5.8366
X7.4606Y-1.6929
X7.4803Y-4.2028
X7.4803Y-7.8937
X7.5Y-6.0138
X7.5098Y-4.3209
X7.5098Y-4.439
X7.5098Y-4.5571
X7.5098Y-4.6752
X7.5098Y-4.7933
X7.5098Y-5.187
X7.5098Y-5.3051
X7.5098Y-5.4232
X7.5098Y-5.5413
X7.5098Y-5.6594
X7.5098Y-5.7776
X7.5098Y-5.8957
X7.5197Y-1.752
X7.5394Y-4.1437
X7.5394Y-7.8346
X7.5591Y-5.9547
X7.5787Y-1.6929
X7.5984Y-4.2028
X7.5984Y-7.8937
X7.6181Y-6.0138
X7.6378Y-1.752
X7.6575Y-4.1437
X7.6575Y-7.8346
X7.6772Y-5.9547
X7.6969Y-1.6929
X7.7165Y-4.2028
X7.7165Y-7.8937
X7.7362Y-6.0138
X7.7559Y-1.752
X7.7756Y-4.1437
X7.7756Y-7.8346
X7.7953Y-5.9547
X7.815Y-1.6929
X7.8346Y-4.2028
X7.8346Y-7.8937
X7.8543Y-6.0138
X7.874Y-1.752
X7.8937Y-4.1437
X7.8937Y-7.8346
X7.9134Y-5.9547
X7.9331Y-1.6929
X7.9528Y-4.2028
X7.9528Y-7.8937
X7.9724Y-6.0138
X7.9921Y-1.752
X8.0118Y-4.1437
X8.0118Y-7.8346
X8.0315Y-5.9547
X8.0512Y-1.6929
X8.0709Y-4.2028
X8.0709Y-7.8937
X8.0906Y-6.0138
X8.1102Y-1.752
X8.1299Y-4.1437
X8.1299Y-7.8346
X8.1496Y-5.9547
X8.1693Y-1.6929
X8.189Y-4.2028
X8.189Y-7.8937
X8.2087Y-6.0138
X8.2283Y-1.752
X8.248Y-4.1437
X8.248Y-7.8346
X8.2677Y-5.9547
X8.2874Y-1.6929
X8.3071Y-4.2028
X8.3071Y-7.8937
X8.3268Y-6.0138
X8.3465Y-1.752
X8.3661Y-4.1437
X8.3661Y-7.8346
X8.3858Y-5.9547
X8.4055Y-1.6929
X8.4252Y-4.2028
X8.4252Y-7.8937
X8.4449Y-6.0138
X8.4646Y-1.752
X8.4843Y-4.1437
X8.4843Y-7.8346
X8.5039Y-5.9547
X8.5236Y-1.6929
X8.5433Y-4.2028
X8.5433Y-7.8937
X8.563Y-6.0138
X8.5827Y-1.752
X8.6024Y-4.1437
X8.6024Y-7.8346
X8.622Y-5.9547
X8.6417Y-1.6929
X8.6614Y-4.2028
X8.6614Y-7.8937
X8.6811Y-6.0138
X8.7008Y-1.752
X8.7205Y-4.1437
X8.7205Y-7.8346
X8.7402Y-5.9547
X8.7598Y-1.6929
X8.7795Y-4.2028
X8.7795Y-7.8937
X8.7992Y-6.0138
X8.8189Y-1.752
X8.8386Y-4.1437
X8.8386Y-7.8346
X8.8583Y-5.9547
X8.878Y-1.6929
X8.8976Y-4.2028
X8.8976Y-7.8937
X8.9173Y-6.0138
X8.937Y-1.752
X8.9567Y-4.1437
X8.9567Y-7.8346
X8.9764Y-5.9547
X8.9961Y-1.6929
X9.0157Y-4.2028
X9.0157Y-7.8937
X9.0354Y-6.0138
X9.0551Y-1.752
X9.0748Y-4.1437
X9.0748Y-7.8346
X9.0945Y-5.9547
X9.1142Y-1.6929
X9.1339Y-4.2028
X9.1339Y-7.8937
X9.1535Y-6.0138
X9.1732Y-1.752
X9.1929Y-4.1437
X9.1929Y-7.8346
X9.2126Y-5.9547
X9.2323Y-1.6929
X9.252Y-4.2028
X9.252Y-7.8937
X9.2717Y-6.0138
X9.2913Y-1.752
X9.311Y-4.1437
X9.311Y-7.8346
X9.3307Y-5.9547
X9.3504Y-1.6929
X9.3701Y-4.2028
X9.3701Y-7.8937
X9.3898Y-6.0138
X9.4094Y-1.752
X9.4291Y-4.1437
X9.4291Y-7.8346
X9.4488Y-5.9547
X9.4685Y-1.6929
X9.4882Y-4.2028
X9.4882Y-7.8937
X9.5079Y-6.0138
X9.5276Y-1.752
X9.5472Y-4.1437
X9.5472Y-7.8346
X9.5669Y-5.9547
X9.5866Y-1.6929
X9.6063Y-4.2028
X9.6063Y-7.8937
X9.626Y-6.0138
X9.6457Y-1.752
X9.6654Y-4.1437
X9.6654Y-7.8346
X9.685Y-5.9547
X9.7047Y-1.6929
X9.7244Y-4.2028
X9.7244Y-7.8937
X9.7441Y-6.0138
X9.7638Y-1.752
X9.7835Y-4.1437
X9.7835Y-7.8346
X9.8031Y-5.9547
X9.8228Y-1.6929
X9.8425Y-4.2028
X9.8425Y-7.8937
X9.8622Y-6.0138
X9.8819Y-1.752
X9.9016Y-4.1437
X9.9016Y-7.8346
X9.9213Y-5.9547
X9.9409Y-1.6929
X9.9606Y-4.2028
X9.9606Y-7.8937
X9.9803Y-6.0138
X10.0Y-1.752
X10.0197Y-4.1437
X10.0197Y-7.8346
X10.0394Y-5.9547
X10.0591Y-1.6929
X10.0787Y-4.2028
X10.0787Y-7.8937
X10.0984Y-6.0138
X10.1181Y-1.752
X10.1378Y-4.1437
X10.1378Y-7.8346
X10.1575Y-5.9547
X10.1772Y-1.6929
X10.1969Y-4.2028
X10.1969Y-7.8937
X10.2165Y-6.0138
X10.2362Y-1.752
X10.2559Y-4.1437
X10.2559Y-7.8346
X10.2756Y-5.9547
X10.2953Y-1.6929
X10.315Y-4.2028
X10.315Y-7.8937
X10.3346Y-6.0138
X10.3543Y-1.752
X10.374Y-4.1437
X10.374Y-7.8346
X10.3937Y-5.9547
X10.4134Y-1.6929
X10.4331Y-4.2028
X10.4331Y-7.8937
X10.4528Y-6.0138
X10.4724Y-1.752
X10.4921Y-4.1437
X10.4921Y-7.8346
X10.5118Y-5.9547
X10.5315Y-1.6929
X10.5512Y-4.2028
X10.5512Y-7.8937
X10.5709Y-6.0138
X10.5906Y-1.752
X10.6102Y-4.1437
X10.6102Y-7.8346
X10.6299Y-5.9547
X10.6496Y-1.6929
X10.6693Y-4.2028
X10.6693Y-7.8937
X10.689Y-6.0138
X10.7087Y-1.752
X10.7283Y-4.1437
X10.7283Y-7.8346
X10.748Y-5.9547
X10.7677Y-1.6929
X10.7874Y-4.2028
X10.7874Y-7.8937
X10.8071Y-6.0138
X10.8268Y-1.752
X10.8465Y-4.1437
X10.8465Y-7.8346
X10.8661Y-5.9547
X10.8858Y-1.6929
X10.9055Y-4.2028
X10.9055Y-7.8937
X10.9252Y-6.0138
X10.9449Y-1.752
X10.9646Y-4.1437
X10.9646Y-7.8346
X10.9843Y-5.9547
X11.0039Y-1.6929
X11.0236Y-4.2028
X11.0236Y-7.8937
X11.0433Y-6.0138
X11.063Y-1.752
X11.0827Y-4.1437
X11.0827Y-7.8346
X11.0925Y-5.4823
X11.0925Y-5.6004
X11.0925Y-5.7185
X11.0925Y-5.8366
X11.1024Y-5.9547
X11.122Y-1.6929
X11.1417Y-4.2028
X11.1417Y-7.8937
X11.1516Y-5.4232
X11.1516Y-5.5413
X11.1516Y-5.6594
X11.1516Y-5.7776
X11.1516Y-5.8957
X11.1516Y-6.0138
X11.1811Y-1.752
X11.2008Y-4.1437
X11.2008Y-7.8346
X11.2106Y-5.4823
X11.2402Y-1.6929
X11.2598Y-4.2028
X11.2598Y-7.8937
X11.2697Y-5.4232
X11.2992Y-1.752
X11.3189Y-4.1437
X11.3189Y-7.8346
X11.3287Y-1.8602
X11.3287Y-2.1358
X11.3287Y-2.2539
X11.3287Y-2.372
X11.3287Y-2.4902
X11.3287Y-2.6083
X11.3287Y-2.7264
X11.3287Y-2.8445
X11.3287Y-2.9626
X11.3287Y-3.0807
X11.3287Y-3.1988
X11.3287Y-3.3169
X11.3287Y-3.435
X11.3287Y-3.5531
X11.3287Y-3.6713
X11.3287Y-3.7894
X11.3287Y-3.9075
X11.3287Y-4.0256
X11.3287Y-5.4823
X11.3583Y-1.6929
X11.378Y-4.2028
X11.378Y-7.8937
X11.3878Y-1.8209
X11.3878Y-2.1949
X11.3878Y-2.313
X11.3878Y-2.4311
X11.3878Y-2.5492
X11.3878Y-2.6673
X11.3878Y-2.7854
X11.3878Y-2.9035
X11.3878Y-3.0217
X11.3878Y-3.1398
X11.3878Y-3.2579
X11.3878Y-3.376
X11.3878Y-3.4941
X11.3878Y-3.6122
X11.3878Y-3.7303
X11.3878Y-3.8484
X11.3878Y-3.9665
X11.3878Y-4.0846
X11.3878Y-5.4232
X11.4173Y-1.752
X11.437Y-4.1437
X11.437Y-7.8346
X11.4469Y-5.4823
X11.4764Y-1.6929
X11.4961Y-4.2028
X11.4961Y-7.8937
X11.5059Y-5.4232
X11.5354Y-1.752
X11.5551Y-4.1437
X11.5551Y-7.8346
X11.565Y-5.4823
X11.5945Y-1.6929
X11.6142Y-4.2028
X11.6142Y-7.8937
X11.624Y-5.4232
X11.6535Y-1.752
X11.6732Y-4.1437
X11.6732Y-7.8346
X11.6831Y-5.4823
X11.7126Y-1.6929
X11.7323Y-4.2028
X11.7323Y-7.8937
X11.7421Y-5.4232
X11.7717Y-1.752
X11.7913Y-4.1437
X11.7913Y-7.8346
X11.8012Y-5.4823
X11.8307Y-1.6929
X11.8504Y-7.8937
X11.8602Y-5.4232
X11.8898Y-1.752
X11.9094Y-7.8346
X11.9193Y-5.4823
X11.9488Y-1.6929
X11.9685Y-7.8937
X11.9783Y-5.4232
X12.0079Y-1.752
X12.0276Y-7.8346
X12.0374Y-5.4823
X12.0472Y-4.1437
X12.0669Y-1.6929
X12.0866Y-7.8937
X12.0965Y-5.4232
X12.1063Y-4.2028
X12.126Y-1.752
X12.1457Y-7.8346
X12.1555Y-5.4823
X12.1654Y-4.1437
X12.185Y-1.6929
X12.2047Y-7.8937
X12.2146Y-5.4232
X12.2244Y-4.2028
X12.2441Y-1.752
X12.2638Y-7.8346
X12.2736Y-5.4823
X12.2835Y-4.1437
X12.3031Y-1.6929
X12.3228Y-7.8937
X12.3327Y-5.4232
X12.3425Y-4.2028
X12.3622Y-1.752
X12.3819Y-7.8346
X12.3917Y-5.4823
X12.4016Y-4.1437
X12.4213Y-1.6929
X12.4409Y-7.8937
X12.4803Y-1.752
X12.4803Y-1.8701
X12.4803Y-1.9882
X12.4803Y-2.1063
X12.4803Y-2.2244
X12.4803Y-2.3425
X12.4803Y-2.4606
X12.4803Y-2.5787
X12.4803Y-2.6969
X12.4803Y-2.815
X12.4803Y-2.9331
X12.4803Y-3.0512
X12.4803Y-3.1693
X12.4803Y-3.2874
X12.4803Y-3.4055
X12.4803Y-3.5236
X12.4803Y-3.6417
X12.4803Y-3.7598
X12.4803Y-3.878
X12.4803Y-3.9961
X12.4803Y-4.1142
X12.4803Y-4.2323
X12.4803Y-4.3504
X12.4803Y-4.4685
X12.4803Y-4.5866
X12.4803Y-4.7047
X12.4803Y-4.8228
X12.4803Y-4.9409
X12.4803Y-5.0591
X12.4803Y-5.1772
X12.4803Y-5.2953
X12.4803Y-5.4134
X12.4803Y-5.5315
X12.4803Y-5.6496
X12.4803Y-5.7677
X12.4803Y-5.8858
X12.4803Y-6.0039
X12.4803Y-6.122
X12.4803Y-6.2402
X12.4803Y-6.3583
X12.4803Y-6.4764
X12.4803Y-6.5945
X12.4803Y-6.7126
X12.4803Y-6.8307
X12.4803Y-6.9488
X12.4803Y-7.0669
X12.4803Y-7.185
X12.4803Y-7.3031
X12.4803Y-7.4213
X12.4803Y-7.5394
X12.4803Y-7.6575
X12.4803Y-7.7756
X12.5394Y-1.6929
X12.5394Y-1.811
X12.5394Y-1.9291
X12.5394Y-2.0472
X12.5394Y-2.1654
X12.5394Y-2.2835
X12.5394Y-2.4016
X12.5394Y-2.5197
X12.5394Y-2.6378
X12.5394Y-2.7559
X12.5394Y-2.874
X12.5394Y-2.9921
X12.5394Y-3.1102
X12.5394Y-3.2283
X12.5394Y-3.3465
X12.5394Y-3.4646
X12.5394Y-3.5827
X12.5394Y-3.7008
X12.5394Y-3.8189
X12.5394Y-3.937
X12.5394Y-4.0551
X12.5394Y-4.1732
X12.5394Y-4.2913
X12.5394Y-4.4094
X12.5394Y-4.5276
X12.5394Y-4.6457
X12.5394Y-4.7638
X12.5394Y-4.8819
X12.5394Y-5.0
X12.5394Y-5.1181
X12.5394Y-5.2362
X12.5394Y-5.3543
X12.5394Y-5.4724
X12.5394Y-5.5906
X12.5394Y-5.7087
X12.5394Y-5.8268
X12.5394Y-5.9449
X12.5394Y-6.063
X12.5394Y-6.1811
X12.5394Y-6.2992
X12.5394Y-6.4173
X12.5394Y-6.5354
X12.5394Y-6.6535
X12.5394Y-6.7717
X12.5394Y-6.8898
X12.5394Y-7.0079
X12.5394Y-7.126
X12.5394Y-7.2441
X12.5394Y-7.3622
X12.5394Y-7.4803
X12.5394Y-7.5984
X12.5394Y-7.7165
X12.5394Y-7.8346
T5
X12.2835Y-6.4173
X12.2835Y-7.6772
X12.3622Y-6.4173
X12.3622Y-7.6772
X11.3091Y-7.0866
X11.4075Y-7.0866
X5.7579Y-5.0394
X5.8366Y-5.0394
X8.2382Y-6.752
X8.3169Y-6.752
X8.6122Y-6.752
X8.7106Y-6.752
X9.7146Y-6.5157
X9.7933Y-6.5157
X7.5098Y-7.1063
X7.6083Y-7.1063
X9.0059Y-6.752
X9.0846Y-6.752
X11.0138Y-7.0866
X11.1122Y-7.0866
X9.7185Y-6.752
X9.7972Y-6.752
T6
X4.1831Y-6.2681
X4.1831Y-6.3681
X4.1831Y-6.4681
T7
X12.1654Y-5.8465
X12.1654Y-5.9449
X12.1654Y-6.0236
X12.1654Y-6.122
T8
X11.5551Y-6.8701
X11.752Y-6.8701
X7.1146Y-6.5551
X7.2146Y-6.5551
X7.3146Y-6.5551
X11.5551Y-7.3031
X11.752Y-7.3031
T9
X7.1654Y-6.9079
X7.1654Y-7.0079
X7.1654Y-7.1079
X7.2654Y-6.9079
X7.2654Y-7.0079
X7.2654Y-7.1079
T10
X4.1224Y-6.9768
X4.1224Y-7.1768
X4.3224Y-6.9768
X4.3224Y-7.1768
T11
X4.2224Y-7.0768
T12
X12.272Y-5.7256
X12.272Y-6.2429
T5
G00X12.1457Y-7.1378
M15
G01X12.1457Y-7.0354
M16
G05
G00X12.3071Y-6.8976
M15
G01X12.2205Y-6.8976
M16
G05
G00X12.374Y-7.1299
M15
G01X12.374Y-7.0433
M16
G05
T0
M30
